<?xml version="1.0" standalone="no"?>
<!DOCTYPE svg PUBLIC "-//W3C//DTD SVG 1.1//EN" "http://www.w3.org/Graphics/SVG/1.1/DTD/svg11.dtd" >
<svg xmlns="http://www.w3.org/2000/svg">
<metadata>
This is a custom SVG webfont generated by Font Squirrel.
Copyright   :  1997 Typografski all rights reserved wwwtypografskide
</metadata>
<defs>
<font id="webfontQ1N3pnHs" horiz-adv-x="740" >
<font-face units-per-em="1000" ascent="800" descent="-200" />
<missing-glyph horiz-adv-x="357" />
<glyph unicode=" "  horiz-adv-x="357" />
<glyph unicode="&#x09;" horiz-adv-x="357" />
<glyph unicode="&#xa0;" horiz-adv-x="357" />
<glyph unicode="!" horiz-adv-x="295" d="M-1 -4q1 13 8 9q2 -1 2 -5q0 -7 -9 -22q0 9 -1 18zM-1 541q0 9 4 9q2 0 4 -1t2 -4q0 -7 -9 -17q0 -1 -1 13zM-1 587q1 13 8 9q2 -1 2 -5q0 -7 -9 -22q0 9 -1 18zM5 -51q0 18 9 16v-34q-9 0 -9 18zM6 612q0 7 3 7q8 0 8 -6q0 -4 -10 -10zM7 413q0 19 3 59q4 46 4 50 q0 -20 -3 -59q-4 -46 -4 -50zM13 291q-1 6 0 10q0 4 3 4q7 0 7 -5q0 -6 -9 -16q0 1 -1 7zM13 352q-1 6 0 10q0 4 3 4q7 0 7 -5q0 -6 -9 -16q0 1 -1 7zM13 394q0 6 3 6q2 0 4.5 -1t2.5 -4t-9 -9zM20 318v9q0 5 3 5q7 0 7 -5q0 -4 -10 -9zM26 180q1 13 8 9q3 -1 3 -5 q0 -8 -10 -22q0 9 -1 18zM48 -76h54l-1 13q0 5 8 7v-13q34 12 102 7q0 -18 2 -46.5t2 -38.5q0 -27 -11 -39q-14 -14 -50 -14q-14 0 -32 2q-17 2 -27 0q-5 36 -14 115q-23 3 -33 7zM61 678q2 7 7 7q11 -1 13 0q-2 24 -6 81q8 9 20 20q5 1 8 1q5 0 11.5 -4t14.5 -3q2 0 27 10 t34 10q11 0 41 -7q-1 -8 -2 -27v-30q1 -13 2 -4q1 -28 -7 -88l-13 -14v21q-24 -2 -24 -5q1 -1 3 -2h-7q3 -3 3.5 -13.5t3.5 -13.5h21q1 -8 -4 -13.5t-3 -14.5h13q1 -6 7 -20q2 -11 2 -22q0 -45 -49 -87v-13q8 0 27 -7q-1 -9 -1 -20q0 -15 3 -45t3 -45q0 -22 -5 -39l-21 -14 q0 -5 1 -6t6 -1q4 1 7 0q-3 -27 -14 -88q8 0 8 -27t-8 -27q2 -11 7 -48v-13q-9 -5 -9 -10q0 -2 2 -4q-36 -4 -54 -7q-9 18 -20 48q2 36 -7 108q14 9 27 21q-2 3 -9.5 3.5t-10.5 3.5l-21 47q0 8 7.5 30.5t6.5 37.5q-9 29 -21 75q-3 22 7 163q-14 6 -13 6q-1 13 -1 39 q0 27 1 16v23t-14 11zM81 148v9q0 6 3 6q7 0 7 -5q0 -4 -10 -10zM87 192q0 19 8 17v-34q-8 0 -8 17zM88 230v8q0 6 3 6q7 0 7 -5q0 -4 -10 -9zM100 -8q0 27 9 27v-54q-9 0 -9 27zM115 746l7 -14l1 10q0 4 -8 4zM143 549l6 -14q0 1 1 10q1 4 -7 4z" />
<glyph unicode="&#x22;" horiz-adv-x="294" d="M3 785q21 12 21 13q0 6 -17 10q-1 5 0.5 14.5t-0.5 13.5q3 0 20.5 4.5t21.5 4.5q8 -1 24 -4q-11 -89 0 -159l-38 -14q-9 4 -28 10q0 23 -2 54q-2 39 -2 53zM68 854v8t5 2q2 -1 2 -2q0 -3 -7 -8zM77 836v6q-1 4 1 4q6 0 6 -3t-7 -7zM114 780q0 8 2.5 27t2.5 20 q0 -13 -2 -37q-2 -27 -3 -10zM119 859v7q0 4 5 2q2 -1 2 -2q0 -3 -7 -7zM126 699q0 11 3.5 36t3.5 36q3 1 10 4.5t18 4.5q-1 3 -14 14q4 14 19 37q5 1 14 5l23 -9q0 -41 -5 -79q5 0 14 -5q-3 -1 -14 0v-28q0 -15 -9 -19q6 -6 9 -14q-4 -2 -42 -4q8 -2 -18 -5q-4 4 -10 9 q-2 7 -2 17zM217 775q0 35 4 33q2 -1 2 -6q0 -9 -6 -27zM220 836q0 18 6 18v-37q-6 0 -6 19z" />
<glyph unicode="#" horiz-adv-x="345" d="M0 244q7 12 7 14q0 4 -7 8q1 7 0 8q29 -2 46 3q9 39 14 75q-1 1 -3 11q-14 -1 -41 3q-2 4 -8 8v22q30 0 49 -6q2 5 13 24q-1 13 0 38l6 6q6 26 5 32h27v6q-18 -3 -19 -3q-1 8 3 30h32q-1 -13 -5 -46l-5 -6q-1 -3 0 -10.5t0 -10.5l-6 -3q-1 -6 3 -51h19v16q4 -15 8 -16h22 q-1 12 0 13q3 -5 2 -8l6 5q2 6 5 11q-6 2 -5 8q2 10 2 11q-2 12 -2 16q2 -1 2 -11q3 4 6 14h8l-8 13q-3 2 3 11h5q-6 4 3 33q4 1 9.5 1.5t9.5 0.5q-3 2 -9 3v6q17 -4 18 -5q2 -3 -1 -17h2q0 -7 -2 -16q-1 -1 -0.5 -6l0.5 -5q-1 -1 -8 0l-3 -11h11q-2 -14 -4 -19 q-2 -8 -10 -13v-3q8 -4 8 -27q33 -3 44 -3q-1 -5 -6 -19q2 0 3 6h8q-1 -12 0 -11q4 1 11 0q-16 -4 -33 -9q-26 -7 -32 -5q0 3 -6 6q7 -3 0 -27q-2 -1 -2 -27q4 1 -3 8v-6q0 -22 3 -35q6 1 16 0q0 -6 11 -5q9 5 13 3v-8q-2 1 -2 -9q2 0 12.5 -2.5t11.5 -2.5h-19q1 -5 -3 -11 q-10 3 -29 3l-6 -6h-11q1 -1 -2 -5v4q-1 3 -3 1l-3 -45q-2 0 -3 0.5t0 -0.5q1 0 -2 -3q0 3 1 4q0 -6 -1 -28q0 -10 -3 -28l-4 -4l-4 -4q0 -1 0.5 -4.5t-0.5 -5.5h-35q1 2 -3 5q3 26 11 84l5 5v22l-1 -7.5t-1 -11.5l-6 24q-19 -1 -36.5 -4t-19.5 -23q2 -7 2 -21 q0 -1 -3.5 -12.5t-4.5 -14.5h-3q0 -14 -2 -41q-2 -2 -6 -5q-10 -4 -13 5q-4 -1 -14 3q-10 8 0 62l7 37q0 17 -42 14zM22 387q3 0 8 -5q3 6 -8 5zM38 382l3 -5q-2 5 -3 5zM92 309q-3 -35 14 -35q6 0 21 5q1 -1 3 -5t3 -5h5q1 2 2.5 5.5t2.5 4.5h6l-3 25h6q-3 1 -3 16 q4 -3 5 -6q-2 26 0 46q-24 3 -46 3q-3 -3 -8 -11q6 -3 6 -5q-1 -1 -9 0q-2 -14 -5 -38zM100 171v5q0 2 3 1q4 -2 -3 -6zM100 190q0 18 3 16q4 -2 -3 -16zM106 220q0 17 2 16q4 -2 -2 -16zM108 163q2 6 3 6q3 -1 2 -3t-5 -3zM114 285q0 6 2 5q4 -2 -2 -5zM116 303q0 7 3 6 q-1 -3 0 -13q-4 0 -3 7zM119 312q0 20 3 19q4 -2 -3 -19zM130 177q0 20 3 19q3 -2 -3 -19zM133 201q0 12 2 11q4 -2 -2 -11zM142 443q0 3 7 4q5 -1 9 -2q0 -2 -6 -4q-10 -1 -10 2zM173 460v5q0 2 3 1q4 -2 -3 -6zM181 163h16h-16zM192 328l3 -5q-2 5 -3 5zM203 504q2 1 5 1 q-1 3 -5 4v-5zM211 209q0 12 3 11q3 -2 -3 -11zM214 225q0 18 2 16q4 -1 -2 -16zM214 417q0 10 2 8q4 -1 -2 -8zM222 290q0 7 2 6q4 -2 -2 -6zM224 301v10q1 7 3 6q4 -2 -3 -16zM227 328v4q1 1 3 1q4 -2 -3 -5zM230 339q0 9 3 8q3 -2 -3 -8zM230 463q2 5 3 5q8 -1 9 -3 q-2 -1 -12 -2zM235 423q-4 8 3 8q3 0 -3 -8zM238 406q0 18 3 17q3 -2 -3 -17zM243 441v6q0 4 3 3q3 -2 -3 -9zM268 363q7 -3 8 -6q-2 -1 -3 -2t-1 -2l1 -2l-3 1v8q-4 3 -2 3z" />
<glyph unicode="$" horiz-adv-x="538" d="M0 22q1 7 0 16q16 14 37 42q6 7 16 22q24 -12 69 -43q2 -7 5 -16q15 -7 44 -7q50 2 41 2q2 16 2 35q0 16 -2 50t-2 51q0 21 2 39q0 3 4.5 13t4.5 17q0 9 -4 17q-7 16 -43 28q-46 17 -52 20q-53 33 -74 90l-11 5q-5 14 0 37q0 22 0 16q0 1 -5.5 3l-5.5 2q-13 38 6 101 q6 21 37.5 66.5t46.5 55.5q6 4 56 16q38 9 43 28q-2 18 2 56l16 16q37 -5 37 -23q0 -4 -1.5 -13t-1.5 -14q0 -16 13 -29q10 -10 32 -14q30 -5 37 -8q9 -10 27 -21q5 -1 11 3t9 4t6 -1l16 -27q9 -2 26 -10q-3 -12 -15 -37q-11 -14 -32 -43q-77 36 -98 36q-23 0 -29 -20 q-3 -9 -3 -20t3 -32.5t3 -31.5q0 -13 -3 -22q-5 -1 -16 -5v-11q1 1 2 1q6 0 7 -35q1 -38 2 -40q3 -9 25 -16l33 -10q0 -5 0 13q0 6 5 8q-1 -9 0 -26q3 -7 20.5 -12.5t21.5 -9t7.5 -15.5t8 -15.5t13.5 -1.5q10 2 14 1q1 -6 5 -16q9 -2 21 -11q-1 -9 0 -26q9 -12 21 -32 q3 -11 2.5 -32.5t1 -30t7.5 -6.5q-3 -13 -11 -42q-6 -25 -21 -64q-10 -7 -26 -21q-3 -12 -16 -32q-7 -2 -16 -5q-5 -9 -21 -26q-28 -18 -85 -32q-1 -3 -5.5 -6.5t-4.5 -4.5q-3 -7 5 -37q-13 -2 -11 -21l11 -10q-2 -9 -3 -9t-2 3q-7 -28 0 -31q-6 0 -17 -1t-15 -1 q-29 0 -27 49q0 2 3 25t3 33l-96 32q-55 19 -84 42q-1 9 -6 22q-4 3 -14 3.5t-12 6.5zM125 481q0 -22 23 -56.5t42 -34.5q28 0 28 108q0 117 -1 106h-21q-13 -9 -32 -21q-3 -1 -10.5 0t-10.5 0q2 -28 0 -26q-18 -70 -18 -76zM143 260q0 24 5 21q2 -1 2 -4q0 -6 -7 -17z M259 49q6 -2 6 -3q-1 -5 0 -8l15 -5v16q0 9 6 10l5 -21q22 10 53 32q20 27 20 76q0 64 -31 88q-11 8 -27 12q-26 7 -31 9q-1 -3 -5.5 -6.5t-4.5 -4.5q-5 -15 -5 -31q0 -14 5 -37t5 -32q0 11 -11 -53v-42zM275 -152q0 8 5 5q2 -1 2 -3q0 -5 -7 -13q0 -2 0 11zM279 94 q1 15 7 13v-27q-7 0 -7 14zM280 128v7q-1 5 2 5q6 0 6 -4q0 -3 -8 -8zM285 528q0 15 6 13v-27q-7 0 -6 14zM286 382q0 19 5 16q2 -1 2 -3q0 -5 -7 -13zM317 91v20q0 14 6 12q2 -1 2 -5q0 -9 -8 -27zM317 -133q0 10 6 7q2 -1 2 -3q0 -6 -8 -18v14zM317 -189q0 8 6 5 q2 -1 2 -3q0 -4 -8 -13v11zM328 530v9t5 2q3 -1 3 -3q0 -4 -8 -8zM455 -9q0 7 5 5q2 -1 2 -4q0 -4 -7 -12q0 -2 0 11zM466 12v7q-1 4 2 4q6 0 6 -4q0 -3 -8 -7zM471 65q0 40 5 37q2 -1 2 -6q0 -10 -7 -31z" />
<glyph unicode="%" horiz-adv-x="624" d="M-6 644q0 60 6 75q12 9 27 27v20q4 5 16.5 5t16.5 2q13 11 34 27q43 1 47 0l20 -20q10 1 34 -7q7 -4 8 -14q1 -13 5 -19q18 -17 40 -47q6 -24 6 -52q0 -46 -15 -95q-13 -44 -31.5 -69t-36.5 -32q-13 -5 -57 -7v-14q-7 0 -7 4q1 8 0 10q-10 -1 -33 0q-11 2 -36.5 22.5 t-30.5 30.5q-13 29 -13 153zM12 -160q0 3 1 7q10 2 21 7v27q19 4 47 13q2 8 13 20q-5 11 -6 11q-11 2 -14 3v26q9 13 20 34q-2 12 0 33q2 6 17 21t17 20q0 16 6 47q5 10 24 31t23 29q2 5 1 17q-2 12 -1 17q11 12 27 33q10 34 40 101q9 4 20 13q4 13 14 41h13q-1 9 0 26 q3 9 24.5 41.5t22.5 39.5q-1 8 0 20q3 5 17.5 10.5t16.5 9.5t27 74q1 8 -3.5 13t-4.5 8t1 6q10 5 20 13q-2 11 0 34q15 18 34 47q1 2 6 37q3 17 21 23q10 3 33 2q36 -2 34 -2q2 -4 6 -13q-2 -4 -9.5 -4.5t-10 -2.5t-2.5 -4q0 -4 9 -9q-4 -2 -5 -8q-1 -10 -2 -12h-33l20 -41 h-7q-15 -32 -47 -107q0 -1 -6.5 -3.5t-6.5 -3.5q2 -11 0 -33q-15 -12 -34 -34q0 -11 -7 -33l-13 -7q-2 -7 3 -16t4 -11q-11 -6 -27 -20q1 -10 0 -27q-12 -10 -27 -27q-3 -18 -13 -54l-14 -6q-4 -19 -20 -61q-11 -11 -27 -33q-5 -10 -6.5 -27.5t-6.5 -26.5l-27 -20 q1 -10 0 -27l-27 -54h-13q1 -10 0 -26q-12 -12 -27 -34q2 -10 0 -27q-21 -27 -47 -67q2 -7 0 -20q-13 -10 -27 -27q2 -11 0 -27q-9 -14 -30.5 -18.5t-43.5 -8.5q1 4 -3.5 12t-4.5 15zM52 576q0 -2 2 -4q10 -9 20 -47q15 -14 44 -14t43 14q11 47 7 20h6q1 8 -3 29 q-4 25 -4 37q0 8 1 15q0 1 7 13t6 20q0 3 -12.5 19.5t-14.5 20.5v14q-8 7 -24 9q-23 2 -29 4q-24 -37 -30 -65q-4 -18 -4 -69q-2 2 -8.5 -4t-6.5 -12zM100 533q-1 13 0 19q2 9 7 6q3 -1 3 -7q0 -11 -9 -33q0 -2 -1 15zM107 -66q20 3 20 14q0 7 -13 6zM141 746q3 -9 7 -20 q7 -2 7 4q0 13 -14 16zM168 364q29 2 41.5 3.5t5.5 2.5h-41q6 0 -6 -6zM174 -30q0 5 3 5q7 0 7 -5q0 -4 -10 -9v9zM195 -16q0 3 6 4q7 1 9.5 -2t4.5 -5l-7 -13q0 1 -6.5 7t-6.5 9zM235 464q0 45 7 41q3 -1 3 -7q0 -11 -10 -34zM254 77q0 6 3 6q8 0 8 -5q0 -4 -10 -10z M281 426q0 7 3 7q8 0 8 -6q0 -4 -10 -10zM288 473q0 6 3 6q7 0 7 -5t-9 -10zM295 505v25q0 18 7 15q3 -1 3 -7q0 -11 -10 -33zM300 -10q0 62 15 92q4 8 20.5 21t20.5 19q-1 8 6 20q8 5 24.5 5t22.5 2q3 6 14 13q20 2 47 -6l40 -14q-1 -9 7 -27q3 -3 17 -9.5t16 -16.5 q-1 -10 0 -27l14 -7q2 -15 -0.5 -42t0.5 -45q-25 -5 -27 -7q-2 -10 0 -27l20 -6q-20 -62 -24 -68t-50 -40q-5 -10 -13 -20q-12 -3 -35 -1q-27 2 -39 1q-2 11 -13 27q-6 3 -30 8q-18 3 -23.5 11t-6 25.5t-1.5 22.5l-13 13q-9 35 -9 83zM315 183v8q0 6 3 6q7 0 7 -5 q0 -4 -10 -9zM370 -21q0 -81 33 -98q10 -5 25 -5q21 -1 28 -2q15 17 34 47q6 21 7 52v55q-8 -8 -7 -20h-7q-5 43 -13 74q2 0 -31 2q-20 1 -30 -2q-39 -11 -39 -103zM388 1q0 27 8 27v-54q-8 0 -8 27zM395 353q0 6 3 6q8 0 8 -5t-10 -10zM402 473q0 6 3 6q7 0 7 -5t-9 -10z M409 377q0 -1 0 9q0 6 3 6q7 0 7 -5q0 -4 -10 -10zM449 466q-1 6 3 6q7 0 7 -5q0 -4 -9 -9zM496 587q-1 3 1.5 7t5.5 5q8 2 8 -1q0 -4 -8 -13q-6 -1 -7 2zM516 614q0 6 3 6q7 0 7 -5t-9 -10z" />
<glyph unicode="&#x26;" horiz-adv-x="941" d="M-1 108q0 8 4 8q6 0 6 -5q0 -6 -9 -16q0 -1 -1 13zM13 136v17q0 12 7 9q3 -1 3 -5q0 -7 -10 -21zM19 38q0 19 8 17v-34q-8 0 -8 17zM33 211q0 6 3 6q7 0 7 -5q0 -4 -9 -9zM93 112q0 19 8 17v-34q-8 0 -8 17zM100 144q0 6 3 6q7 0 7 -5q0 -4 -9 -9zM100 433q0 6 3 6 q7 0 7 -5q0 -4 -9 -10zM100.5 493.5q-0.5 7.5 0.5 9.5q1 4 6 2q3 -1 3 -4q0 -6 -9 -16q0 1 -0.5 8.5zM101 62q0 19 6 60l14 14q-2 16 0 47q11 17 27 47q0 11 6 33q7 11 30.5 28t30.5 26q4 12 20 33q11 7 30 12q26 7 30 8q-5 25 -27 74q-11 8 -26 27q-4 11 -3.5 33.5 t-3.5 33.5q0 1 -10 7t-10 7q-2 13 4 25q5 7 9 15q-5 3 0 34q3 -2 5 -2q1 0 1 1q0 2 -13 14h14q4 23 20 67q16 25 69 59q58 35 92 35q3 0 20.5 -6.5t19.5 -6.5q27 3 74 0l27 -27q4 -7 5 -23q0 -12 8 -18l34 7q42 -64 47 -154q-1 0 -6.5 4t-6.5 3q5 -10 20 -21q2 -10 0 -33 q-3 -14 -21 -29q-22 -19 -26 -25q1 -10 0 -27q-2 -5 -12 -8q-13 -3 -15 -5q-8 -15 -27 -40q-19 -7 -47 -27q-4 -5 -4 -16q0 -6 -3 -11q8 -4 20 -14q7 -19 27 -60l14 -7q2 -8 -7 -26q6 -6 23.5 -8.5t25 -6.5t12 -20.5t6.5 -18.5q7 1 20 0q10 -4 26 -31q11 -18 21 -36h27 q0 10 7 33q5 9 26.5 29.5t27.5 31.5q2 14 0 20q5 11 13 27q37 0 47 -2q20 -5 33 -25q8 -12 8 -38q0 -39 -14 -63q-4 -7 -23.5 -16.5t-23 -15.5t-1.5 -18t1 -17l-20 -34l-2 6q-3 0 1 -34t7 -39q9 1 21 0q8 -3 44 -60q29 -47 43 -74q-10 -2 -20 -7q-3 -1 -6 -1q-4 0 -8.5 4.5 t-12.5 3.5q-2 0 -11.5 -6t-15.5 -7q-1 1 -13 20q-10 2 -21 -3t-14 -5q-12 0 -29 26q-20 33 -24 36q-16 9 -47 33q-22 -21 -67 -54q-15 -3 -47 -13q-6 -10 -20 -20q-8 -2 -28.5 4t-31.5 3q-8 -3 0 -21q-4 -1 -6 -1q-4 0 -6.5 4.5t-7.5 3.5q-2 0 -19.5 -10t-21.5 -10 q-16 -2 -32 4q-11 5 -21 9q-17 -2 -47 0q-16 12 -41 27q-9 -2 -27 0q-1 9 -6 20q-34 8 -74 21q14 22 10 22q-1 -1 -3 -2v13q-58 48 -67 87q2 16 0 47q-6 12 -7 20l-14 7l1 -8q0 -7 -3 -7zM106 47q0 9 4 9q6 0 6 -5q0 -6 -9 -16q0 -1 -1 12zM106 403q0 9 4 9q6 0 6 -5 q0 -6 -9 -16q0 -1 -1 12zM147 325q0 6 3 6q2 0 4.5 -1t2.5 -4t-9 -9zM187 465q0 26 8 26v-53q-8 0 -8 27zM226 103q0 -14 2 -28l14 -33q-2 -12 0 -34q1 -3 9 -4t11 -3q4 -11 13 -27q8 1 20 0v-13q12 -2 41 -13q57 -29 92 -29q13 0 28 2q56 9 148 80q2 12 0 34l-7 7 q-9 7 -33 40q-12 -16 -14 -14q2 11 0 27q-3 9 -23 22.5t-24 18.5q-1 10 -6 26q-6 9 -24 22t-23 19q-2 2 -27 45q-19 30 -34 35q-7 2 -33 0q-5 0 -54 -27v-13q-38 -36 -51 -56q-25 -38 -25 -84zM338 585q0 -47 37 -91q34 -40 61 -36l14 13q66 27 80 54q-1 10 0 27q6 6 14 13 q4 4 -13 44.5t-21 42.5v7q-5 4 -40 13t-47 7q-10 -8 -27 -20q-31 -19 -32 -20q-18 -14 -22 -27t-4 -27zM356 203v9q-1 5 2 5q7 0 7 -5q0 -4 -9 -9zM382 37q-1 6 0 9q2 5 7 2q3 -1 3 -4q0 -6 -9 -16q0 -1 -1 9zM423 491q0 -1 0 9q0 6 3 6q7 0 7 -5q0 -4 -10 -10zM476 124 q0 6 3 6q7 0 7 -5q0 -4 -9 -10zM529 36q1 9 8 6q2 -1 2 -4q0 -7 -9 -17q0 7 -1 15zM537 3q0 6 3 6q7 0 7 -5q0 -4 -10 -9v8z" />
<glyph unicode="'" horiz-adv-x="234" d="M-9 682v8q-1 5 2 5q6 0 6 -4t-8 -9zM6 715q1 2 9 2t9 -1q0 -1 -1 -5q0 -4 3 -6q-5 2 -11 4q-9 4 -9 6zM26 696q-1 2 1 5t5 4q11 2 11 -1q0 -2 -5 -6t-6 -4q-5 -1 -6 2zM49 651q0 8 3 8q2 0 4 -1t2 -3q0 -5 -8 -14zM73 647q0 51 12 106q11 0 35 5v12q-3 2 -23 -6 q-2 25 -18 59q21 16 30 18q7 2 22 -1q10 -3 19 -5q2 -31 -6 -88h-24v-12l22 -30q3 -7 8 -47q-9 -2 -16.5 3t-13.5 3q-1 -4 0 -17h-17v-6q-14 3 -30 6zM91 676l6 -12v9q1 3 -6 3z" />
<glyph unicode="(" horiz-adv-x="296" d="M0 246q-2 2 6 18q6 -1 8 -1v0q-6 1 -6 3q1 2 4 4q1 12 -3.5 43.5t-2.5 52.5l12 6l-5 10q-3 6 -1 14q9 5 18 12q1 12 -6.5 25.5t-5.5 29.5q0 3 36 54q-3 10 -6 30q1 16 23 70q20 50 31 69l61 78q16 -8 18 -6v30q8 5 18 12q1 -1 30 -6q-3 -15 -12 -42q-8 -4 -18 -12 q4 -6 6 -24l-12 -12q-3 -9 -12 -31h-12q8 0 8 -11q0 -13 -10 -38q-8 -21 -10 -23q-5 -3 -15 -3t-15 -3q-2 -5 0 -18l18 -12q-5 -42 -25 -108l-10 6q-6 3 -14 0q1 -1 6 -18h18v-18h7q2 -8 2 -16q0 -16 -10 -36t-11 -27q-4 -33 6 -126q8 -24 6 -30q0 -1 -8 -11.5t-10 -13.5 q5 -2 25 -12l-19 -36q11 -6 25 -18q1 -3 2 -5q0 -3 -4.5 -6t-3.5 -7q0 -1 9 -6t9 -6q4 -12 3.5 -36.5t2.5 -35.5q8 -12 18 -30l24 -97q-6 -3 -10 -6t-8 -12q32 -1 39 -9q1 -2 15 -45q-13 -5 -42 0v6q-2 1 -28 35.5t-26 36.5q2 9 0 24h-13l-36 55q-3 11 -1 28t1 20 q-13 13 -30 36q2 10 0 30q-11 12 -24 30q-2 7 -5 57q0 6 -1 8.5t-10 11.5t-8 20l6.5 7t5.5 17q-1 7 -18 24zM72 493q2 -4 6 -18q22 7 22 14q0 6 -16 10q3 -1 3 -3t-15 -3zM88 432q0 -6 20 -5q0 1 1 9q-4 2 -7 3q-14 -2 -14 -7zM133 372q0 13 2 13q6 0 6 -4t-8 -9zM140 409 q0 6 5 5q3 -5 6 -12q10 2 15 2q10 0 -21 -20q-2 6 -4 13.5t-1 11.5zM147 364q0 4 6 9t10 5l6 -18q-22 -3 -22 4zM162 151q0 5 3 5q6 0 6 -4t-8 -9q0 1 -1 8zM162 194q-1 6 0.5 9t6.5 1q2 -1 2 -4q0 -5 -8 -14q0 -1 -1 8zM162 230q-1 6 0.5 9t6.5 1q2 -1 2 -4q0 -5 -8 -14 q0 -1 -1 8zM162 272q-1 6 0.5 9t6.5 1q2 -1 2 -4q0 -5 -8 -14q0 -1 -1 8zM169 324q0 39 6 36q2 -1 2 -6q0 -10 -8 -30zM180 79q0 5 3 5q7 0 7 -4t-9 -9zM180 435q0 5 3 5q2 0 4 -1t2 -4t-8 -8zM186 54q0 8 7 5q2 -1 2 -4q0 -5 -8 -14q-1 -4 -1 13zM186 459q0 5 3 5q7 0 7 -5 q0 -3 -9 -8zM204 -11q0 5 3 5q7 0 7 -4t-9 -9zM210 -31q0 9 7 6q2 -1 2 -4q0 -5 -8 -14q-1 -3 -1 12zM211 -80q1 6 2.5 13t9.5 6v-12h6q-2 -1 -7.5 -3t-10.5 -4zM228 596q0 8 7 5q2 -1 2 -4q0 -5 -8 -14q-1 -4 -1 13zM246 636q0 8 3 8q2 0 4 -1t2 -3q0 -6 -8 -15z" />
<glyph unicode=")" horiz-adv-x="341" d="M0 -200q-1 14 6 42q8 4 18 12q0 14 6 42q8 3 18 12q6 10 12 36q3 24 12 78q11 21 24 53q-2 15 0 42l12 6q-2 10 0 30q2 4 9 4t10.5 3t3.5 6q0 4 -11 8q-6 1 -12 3q1 23 5 69q5 42 5 66q0 26 -4 51q8 0 8 4q0 2 -4 5.5t-4 2.5q7 41 6 48q-5 3 -12 6v36h-6q1 14 0 42 q-8 19 -18 47q3 13 6 18v6q-1 2 -12 12q2 15 0 42q-11 10 -24 24q-3 8 -3.5 24.5t-2.5 23.5h-12q-2 6 -0.5 18.5t0.5 17.5l-12 20q-11 20 -11 30t11 10q18 1 24 -9.5l12 -20.5l43 -40q26 -27 35 -50q1 -3 1 -5q0 -3 -4.5 -7.5t-2.5 -11.5q0 -1 8.5 -5.5t9.5 -6.5 q2 -10 6 -24q5 -2 12 -6q-1 -9 -3 -9q-2 1 -3 3l-6 -18l18 -6v-12q0 -11 6 -35q9 -4 18 -12q1 -4 0 -45q0 -25 18 -39q-16 -24 -12 -36q1 -4 12 -9.5t12 -8.5q2 -6 2 -13q0 -9 -4 -24.5t-4 -22.5l12 -18v-12q1 -12 0 -48q-1 -9 -14.5 -34t-15.5 -32q-4 -17 -3 -53.5 t-3 -54.5q-11 -14 -24 -35q0 -13 -6 -42q-3 -10 -18 -28.5t-18 -25.5q1 -9 0 -24q-8 -4 -18 -12l-33 -58q-20 -32 -45 -44v-6q-12 1 -36 0zM132 189q3 -1 6 -3v-9h18q1 2 4 10t4 12l-2 2q-8 7 -24 18q0 -1 -2.5 -12.5t-3.5 -17.5zM250 145q1 16 7 14v-30q-7 0 -7 16z M257 381v8q-1 5 2 5q7 0 7 -5q0 -3 -9 -8zM275 255q1 1 0 8q0 5 3 5q1 0 3.5 -1t2.5 -3q0 -4 -9 -9zM275 339v13q0 8 6 5q2 -1 2 -4q0 -5 -8 -14z" />
<glyph unicode="*" horiz-adv-x="302" d="M7 666q-2 10 2 10q2 0 3 -1q12 -19 12 -25q0 -2 -2 -2q-3 0 -8.5 4t-6.5 14zM8 580v14q12 -6 13 -5t0 14l20.5 11.5t20.5 10.5v14q6 8 14 23q-6 4 -18 13q-1 3 -1 11q1 8 3 8q1 -1 2 -5q21 0 46 5q-9 25 -9 38q0 21 27 43h13l5 -32q16 -4 16 -8q0 -3 -16 -5q1 -32 4 -55 l9 9q3 -3 10 -9q-1 7 0 19q3 7 23 16.5t31 5.5q2 -4 9 -9q-7 -15 -23 -45q-3 2 -5 4q-4 2 -8 0q-4 -7 -14 -18q2 -10 9 -32q7 -1 14 -4q-1 -6 0 -14q2 -1 4 -1q3 0 9 2t10 2q5 0 9 -3q6 -4 0 -18q-29 9 -41 9l-18 -9q-2 0 -12 2t-16 3v-14q0 -4 -4.5 -21.5t-4.5 -26.5 q0 -11 5 -16q-7 -1 -32 -9q-19 42 -14 77q-10 3 -36 10v13q-7 -1 -23 0q11 -20 11 -18q0 -4 -11 -9q-19 -9 -18 -9q-5 4 -5 7q0 2 5 2q-2 0 -2 1q0 2 11 3q-7 7 -18 10zM14 746q-1 4 1.5 9.5t5.5 6.5q0 -8 -4 -19q-3 -1 -3 3zM21 677q-5 0 0 13q4 13 9 17q1 -5 1 -11 q-2 -14 -5 -16.5t-5 -2.5zM44 739q0 -1 0 7q0 4 4 2q2 -1 2 -3t-6 -6zM71 771q0 30 5 27q2 -1 2 -4q0 -8 -7 -23zM76 753q0 11 4 9q2 -1 2 -3q0 -3 -6 -6zM103 766q0 34 5 32q2 -1 2 -5q0 -8 -7 -27zM167 753q-3 15 0 13t5 -7q1 -6 -5 -6zM186 682q0 -3 12 -11q4 5 4 9 q0 6 -13 4q-3 0 -3 -2z" />
<glyph unicode="+" horiz-adv-x="664" d="M129 350q0 11 4 9q6 -3 -4 -9zM129 377q38 8 72 5q14 -1 38.5 2t33.5 3q8 0 14 -1l7 -5t16 -4v9q31 5 32 5q13 4 17 18q1 4 -4 32q5 6 5 13q0 5 -5 5v113h9q1 5 -2 10.5t-3 7.5q7 0 23 2q13 2 18 2h9q1 -6 4 -22l10 -5q1 -9 -3 -18q-7 -12 -7 -13q-1 -8 2 -22t3 -15 q-1 -1 -1 -43q0 -43 1 -61q20 -9 59 -13l4 -14q6 0 7 4.5t2 9.5q26 -7 54 -7q12 0 73 7q1 3 1 -9q0 -6 -6 -5q3 -43 -17 -43q-4 0 -17.5 1.5t-23.5 1.5t-22.5 -4.5t-14.5 -4.5q-14 -3 -43 -2q-48 2 -47 2q-4 -4 -9 -10q-7 -20 -5 -64q2 -52 0 -67h5l-5 -22l5 -9 q-1 -2 -7.5 -12t-6.5 -11l-13 -9q-28 -4 -33 12q-2 21 -3 42q3 49 -5 145q-10 0 -20 1q-2 0 -7 -28v32q-19 4 -50 9q-16 2 -36 -3l-27 -6q-19 -2 -36 2q-24 7 -27 7q-2 2 9 13l4 14q17 2 27 4h-36q0 24 0 18h-22zM174 337h9q-3 1 -2 5t-7 4v-9zM201 337q14 4 14 11q0 4 -4 8 t-5 3zM224 341l26 8q-4 1 -26 6v-14zM272 453q1 12 6 10v-22q-6 0 -6 12zM272 507q1 12 6 10v-22q-6 0 -6 12zM273 219v17q1 12 5 10q2 -1 2 -4q0 -8 -7 -23zM277 296q0 18 5 18v-36q-5 0 -5 18zM277 407q3 1 5 2q2 -1 2 -3t-6 -6q0 -1 -1 7zM278 183q0 29 4 27q2 -1 2 -5 q0 -8 -6 -22zM278 472q0 16 4 14q6 -3 -4 -14zM319 472q0 20 4 18q6 -3 -4 -18zM322 403q1 12 6 10v-22q-6 0 -6 12zM323 187q0 -9 5 86q0 14 -5 -86zM323 432v9q0 7 5 4t-5 -13zM386 409h9q-2 1 -1.5 5t-7.5 4v-9z" />
<glyph unicode="," horiz-adv-x="205" d="M0 103q8 5 19 14q1 -1 0 -14h10q3 -2 3 -3q0 -4 -27 -2v-24q-7 21 -5 29zM38 -11v52q12 2 24 5q4 7 4 21q1 20 1 22q-13 4 -19 9q18 0 57 -5q3 6 14 19q4 -15 10 -52q-18 6 -19 5v-10h14q0 -10 5 -28h-15q-1 -2 -14 -34q-12 1 -33 -4q-1 -1 -15 -29q-6 2 -14 5q3 6 14 19 zM57 17q4 -1 7 -1q7 0 7 5q0 12 -14 15v-19zM62 122v7q-1 2 5 2t6 -2q0 -1 -11 -7zM67 150q0 12 4 10q3 -1 3 -3q0 -3 -7 -7z" />
<glyph unicode="-" d="M275 397q10 6 20 15q23 1 60 0q4 0 26 -7.5t29 -7.5q8 5 30 10q33 -1 80 0v-10q11 -1 41.5 2t43.5 3q2 -4 6 -8.5t17 -24.5q15 -24 15 -38q0 -10 -8 -14q-43 -1 -65 0h-275q1 7 -2 12.5t-3 7.5q7 8 15 20q-9 14 -30 40zM370 452v8t5 2q2 -1 3 -3q0 -3 -8 -7zM455 467 q43 2 65 0q17 -1 -6 -1q-19 -1 -44 0q-26 1 -15 1zM550 397l5 -20q8 2 8.5 8t1.5 12h-15zM595 447q-13 14 0 10q3 0 5 -3t1 -6q-1 -2 -6 -1zM660 407v10q0 7 5 5q2 -1 2 -3q0 -5 -7 -12z" />
<glyph unicode="." horiz-adv-x="370" d="M-24 -70q0 16 42 57v-38q-15 -3 -25 -25q-17 -3 -17 6zM-8 -107q0 14 14 18q6 2 10 2q6 0 6 -4q0 -7 -16 -23q-14 -3 -14 7zM31 -190q18 5 50 13q-10 8 -38 25l23 38q14 24 15 38q0 -2 -7 21t-7 39q0 9 2 15q18 11 38 26q12 -10 12 -26q0 -15 -12 -25q-5 0 18 2 q15 1 19 -2q-26 -18 -26 -23q0 -2 1 -2q29 -10 83.5 -13.5t80.5 -11.5q6 -52 13 -101l-50 -38q-11 -2 -26 -2q-31 0 -94 11q-77 14 -95 16zM94 -76v-26h25q-6 4 -6 9q0 2 1 5.5t1 4.5q0 7 -21 7zM184 6q0 5 11 6q19 2 37 -4q25 -9 26 -9q35 13 38 13v-25l-41 -10 q-24 -5 -35 -3q-5 2 -19 12q-17 13 -17 20z" />
<glyph unicode="/" horiz-adv-x="482" d="M-6 -67q0 14 13 17q7 2 7 -4q0 -7 -7 -17q-4 -1 -7 -1q-6 0 -6 5zM-1 -18q0 9 4 9q6 0 6 -5q0 -6 -9 -16q0 -1 -1 12zM19 37q0 9 4 9q7 0 7 -5q0 -6 -10 -17q0 -1 -1 13zM26 71q0 9 4 9q7 0 7 -5q0 -6 -10 -16q0 -1 -1 12zM34 -173h27q-1 12 -1 26q0 74 35 171q3 6 7 21 h14q-1 12 0 34q9 11 20 27q7 19 11 47q5 33 9 48q1 3 10.5 14.5t10.5 13.5l-14 20h14q5 23 13 54q12 7 28 21q-6 5 -8 30q-1 22 1 24q2 5 13 -7q4 12 6.5 36.5t7.5 38.5q12 11 27 27q6 17 9 47q4 45 5 49q14 5 41 13q-7 17 -21 28l7 13q11 20 16 50q8 48 11 59l14 14 q-2 12 0 34q10 8 20 20h68q0 2 2 -45q2 -28 -2 -43q-9 -4 -20 -14q-3 -8 -1 -27q3 -20 1 -27q-12 -13 -27 -34q-5 -15 -7 -41.5t-7 -40.5q-3 -9 -20.5 -33t-20.5 -35q-2 -9 0 -28t0 -27q-3 -17 -27 -53t-27 -49q-2 -8 2.5 -13.5t4.5 -13.5q-8 -28 -21 -68l-13 -7q2 -9 0 -27 q-18 -15 -21 -20q1 -11 0 -34q-2 -6 -13.5 -27.5t-13.5 -27.5q2 -10 0 -27q-13 -6 -27 -14q-1 -3 -1 -6t5 -13.5t3 -20.5q-10 -9 -21 -21q2 -16 0 -47l-20 -21q-2 -8 0 -24t0 -23q-2 -5 -17 -14t-17 -14q1 -9 0 -20q-9 2 -21 0q1 5 14 14l-7 20q3 1 3 2q0 3 -23 5 q0 -1 -3 -11t-4 -10t-7 -13h-27q1 1 0 20zM67 -11q0 9 4 9q6 0 6 -5q0 -6 -9 -16q0 -1 -1 12zM68 167q0 -1 0 9q0 6 3 6q7 0 7 -5q0 -4 -10 -10zM81 212q0 9 1 14t6 3q3 -1 3 -6q0 -8 -9 -22q0 -2 -1 11zM87 37q0 9 4 9q7 0 7 -5q0 -6 -10 -17q0 -1 -1 13zM94 264q0 6 3 6 q8 0 8 -4t-10 -10zM108 298q0 6 3 6q8 0 8 -4t-10 -10zM115 115q0 6 3 6q8 0 8 -5t-10 -10zM128 149q0 6 3 6q8 0 8 -5q0 -4 -10 -10zM156 215v9q0 6 3 6q2 0 4.5 -1.5t2.5 -3.5q0 -5 -10 -10zM169 471q1 13 8 9q2 -1 2 -5q0 -7 -9 -22q0 9 -1 18zM176 503q0 5 3 5q8 0 8 -4 t-10 -10zM177 140q3 1 10.5 -4t16.5 -3q9 8 9 12q0 3 -9 2q-2 6 -7 27h-13q0 1 -7 -34zM198 523q0 9 13 12v-14q-13 -3 -13 2zM216 410q0 18 8 16v-34q-8 0 -8 18zM217.5 618.5q-0.5 7.5 0.5 9.5q1 4 6 2q3 -1 3 -4q0 -6 -9 -16q0 1 -0.5 8.5zM231 657v9q0 6 3 6q7 0 7 -5 q0 -4 -10 -10zM258 516q0 6 3 6q7 0 7 -5t-9 -10zM259 698h20q13 -1 14 -2q0 -1 -27 0q-25 1 -7 2zM285 591q0 6 3 6q8 0 8 -5q0 -4 -10 -10zM298 657q0 27 8 27v-54q-8 0 -8 27z" />
<glyph unicode="0" horiz-adv-x="712" d="M0 513q0 6 7 20q-4 10 -7 27l13 13q3 13 4 41q1 20 10 33q12 7 26 20q4 6 6.5 20t8 20.5t26 13.5t26.5 12q8 18 27 40q9 3 30 1q22 -3 30 -1q6 3 20 7v13q8 1 15 1q15 0 25.5 -7t14.5 -7q10 0 38 20q7 -4 60 -47q7 -2 17 1q14 3 19 3q9 0 17 -4q3 -1 4 -9.5t3 -10.5 q5 -5 35 -24q23 -15 32 -29q2 -15 13 -40q12 -3 27 -13q8 -17 7 -47q-1 -48 -1 -53q3 -40 1 -117q-2 -81 -1 -110q0 -7 5 -48q4 -35 4 -57q0 -16 -2 -28l-13 -34q-2 -17 6 -47t7 -46q-1 -9 -11.5 -43t-15.5 -44l-66 -80q-10 2 -27 0q-3 -2 -4 -12.5t-3 -13.5l-26 -14 q1 -9 2 -9t4 3v-7q-6 -3 -12 -3q-5 0 -15.5 2.5t-18.5 2.5q-7 0 -14 -2v-7h-33q-1 -1 -7 -13q-10 -2 -19 -2q-21 0 -46 9q-17 7 -35 13q-11 3 -26 3h-5q-17 0 -29 4l-6 13q-6 4 -16.5 4t-18 3.5t-38 34.5t-34.5 38q-2 16 -13 47l-14 6q-9 27 -9 58q0 10 2 45q2 30 1 51 q-7 134 -7 386zM126 389q0 -89 7 -189q-3 -44 0 -133q5 -37 14 -60l13 -7q-4 -19 -7 -40q7 -5 12 -5q3 0 12 3.5t16 1.5q11 -9 27 -20q22 -5 58 -5q38 -1 55 5q8 3 19 15l15 18q8 2 20 7q12 12 27.5 61t15.5 87q0 15 -3 25q-6 7 -14 20q-1 13 6 57l8 57q1 15 1 32 q0 19 -2 55t-2 54q0 25 3 45h-27q32 2 47 0v14q-1 4 -7.5 4.5t-12.5 1.5q-15 80 -40 117q-35 52 -103 52q-29 0 -64 -9q-3 -6 -7 -13l-38.5 -22t-27.5 -31q-21 -53 -21 -198zM212 199q0 9 4 9q6 0 6 -5q0 -6 -9 -16q0 -1 -1 12zM213 7v8q0 6 3 6q7 0 7 -5q0 -4 -10 -9z M219 -14q0 8 4 8q6 0 6 -5q0 -6 -9 -16q0 -1 -1 13zM219 50q0 19 8 17v-34q-8 0 -8 17zM219 236q0 19 8 17v-33q-8 0 -8 16zM226 -38q-1 6 3 6q7 0 7 -5q0 -4 -9 -10zM226 424q-1 9 0 13q2 6 7 3q3 -1 3 -5q0 -8 -9 -22q0 -1 -1 11zM312 322q0 6 3 6q8 0 8 -5q0 -4 -10 -10z M313 147q-1 12 3 38t4 28q0 -75 -6 -75q-1 1 -1 9zM319 360q0 27 8 27v-54q-8 0 -8 27zM320 27q0 17 3 51q4 41 4 42q0 -17 -3 -51q-4 -41 -4 -42zM325 230q-1 54 2 70v-53q-1 -16 -2 -17zM326 -11q0 5 3 5q7 0 7 -5q0 -4 -9 -9zM447 707l6 -14q0 2 1 11q1 3 -7 3zM626 -51 q0 5 3 5q7 0 7 -5q0 -4 -9 -9zM639 -11q0 5 3 5q8 0 8 -5q0 -4 -10 -9zM639 41q1 9 8 6q2 -1 2 -4q0 -5 -9 -16q0 7 -1 14zM640 80v9q0 5 3 5q7 0 7 -5q0 -4 -10 -9zM640 380q0 51 7 47q3 -1 3 -8q0 -12 -10 -39zM647 120q0 13 3 41.5t3 31.5q0 -10 -1.5 -35.5t-2.5 -37.5 q-1 -15 -2 0zM647 300q0 11 3 38t3 29q0 -9 -1.5 -33.5t-2.5 -35.5q-1 -14 -2 2z" />
<glyph unicode="1" horiz-adv-x="432" d="M0 618q0 17 3 51q4 41 4 43v-88q4 -1 10 0q2 1 3 -6q-5 1 -20 0zM62 650q0 27 6 42l148 108q6 1 15 1q16 0 63 -5q44 -4 57 -3q-2 -28 1 -82q3 -69 3 -98q0 -43 -4 -83q-1 -6 -7 -33q-6 -23 -6 -35q0 -14 5 -80q4 -58 2 -89q0 -4 -5 -22t-5 -31q0 -11 3 -21l13 -14 q2 -26 -4 -85q-9 -77 -9 -84q-1 -19 5 -43q8 -27 8 -31q2 -30 -9.5 -78.5t-10.5 -69.5q-14 -1 -53 -9q-32 -6 -42 -5q-1 0 -12 6.5t-15 7.5q0 609 7 797q-6 1 -8.5 6.5t-4.5 6.5q-63 -24 -72 -35q-16 -20 -16 -93q-7 84 -7 74q-17 -3 -40 -13q0 11 -3 43.5t-3 49.5zM101 172 v25q0 18 7 15q3 -1 3 -7q0 -10 -10 -33zM107 238q0 9 4 9q6 0 6 -5q0 -6 -9 -16q0 -1 -1 12zM107 441q0 9 4 9q2 0 4 -1t2 -4q0 -7 -9 -17q0 -1 -1 13zM108 50q0 20 3 59q4 45 4 49q0 -20 -3 -58q-4 -45 -4 -50zM114 269q-1 15 0 35q1 39 1 37v-55q-1 -11 -1 -17zM114 474 q0 9 4 9q6 0 6 -5q0 -6 -9 -16q0 -1 -1 12zM122 800h40l12 -1q-13 -1 -19 -1q-17 1 -31 1.5t-2 0.5zM216 536l7 -13q-1 2 0 10q1 3 -7 3z" />
<glyph unicode="2" horiz-adv-x="732" d="M-5 -105q0 24 5 40l54 61q7 14 27 40q4 4 34 21v20l34 47q7 1 20 7q6 5 11 19q6 18 9 22q12 7 27 20q1 10 7 27q10 3 27 13q3 14 14 34q8 0 20 7q3 12 13 34q13 5 34 20q3 4 3 12.5t4 14.5h13q2 11 7 27q3 4 10 4.5t10 2.5q32 45 54 81q5 21 5 41q0 66 -59 114 q-47 38 -102 38q-17 0 -33 -4l-7 -13q-46 -18 -68 -48q-19 -25 -33 -81q-53 0 -135 7q16 119 90 195q80 83 201 82q49 -1 101 -20q12 -12 34 -27q13 3 33 0q2 -1 -2 -7.5l-4 -6.5q16 -14 47 -47q74 -93 68 -156l-14 -20q6 -23 7 -74q-7 -45 -48 -94l-67 -75q-5 -15 -20 -41 h-14l-54 -60q-7 -20 -20 -48q-13 -5 -34 -20q-10 -24 -34 -61q-9 0 -20 -7q2 -13 0 -40q-7 1 -7 7q0 14 0 13q-8 -1 -20 -7q-6 -11 -9.5 -30t-10.5 -30q-8 -3 -21 -14q34 2 108 -3q87 -6 114 -6q20 0 35 2l14 14q8 1 20 -6.5t13 -7.5h68q7 -5 14 -13q4 -12 4 -27 q0 6 -11 -74q-91 -21 -210 -7q-19 -3 -54 -7q11 1 -20 7q3 0 -12.5 -4t-21.5 -3q-69 7 -243 7q0 12 -2.5 42t-2.5 46zM242 559q0 6 3 6q2 0 5 -1.5t3 -3.5q0 -4 -10 -10zM245 -3q6 -1 12 -1q11 0 169 -7h-176q12 6 6 8q-6 1 -11 0zM256 606q0 6 3 6q8 0 8 -5q0 -4 -10 -10z M395 86q0 18 10 25q-2 -1 -3 -14.5t-5 -13.5q-2 0 -2 3zM426 91h20q13 -1 13 -2q-28 1 -33 2zM500 91h20q13 -1 14 -2q-29 1 -34 2zM573 530q0 27 8 27v-54q-8 0 -8 27zM674 500q0 18 8 16v-34q-8 0 -8 18zM675 574q0 9 1 14t6 3q3 -1 3 -6q0 -8 -9 -22q0 -2 -1 11zM676 30 q0 44 6 40q3 -1 3 -7q0 -11 -9 -33z" />
<glyph unicode="3" horiz-adv-x="750" d="M0 42q15 1 47 6q49 12 81 7q3 -18 6 -20q27 -24 34 -47q-1 -9 0 -20q11 1 27 0q7 -12 20 -27q11 -6 65 -6q56 -1 76 6q4 1 9 13t11 14q11 -2 27 0q-1 11 0 27q2 5 16 18t17 22q6 19 6 42q0 49 -25 97t-55 62q-43 20 -134 20q-1 3 0 10q1 2 -7 4q1 31 7 94q6 6 14 13 q3 1 7 1q18 0 26 -8q51 -1 102.5 35.5t51.5 109.5q0 43 -21.5 80t-58.5 51q-28 11 -69 11q-66 0 -92 -25q-3 -9 -14 -27q-9 -5 -20 -13q2 -12 0 -34q0 -1 -6.5 -3t-6.5 -3l-13 -14q-3 -1 -61 0q-65 1 -65 29q0 15 18 52q7 3 14 7q19 51 41.5 78.5t65.5 55.5q55 35 94 40 q16 2 41 -3.5t46 -3.5q30 8 34 7l13 -13q76 -30 134 -98q69 -80 69 -171q0 -13 -2 -27.5t-14 -54t-19 -52.5q-3 -6 -28 -22.5t-26 -17.5q-4 -5 -3.5 -17t-2.5 -17l49 -56q30 -35 38 -65q4 -14 5 -48q2 -39 -5 -39q0 -4 4 -29t4 -40q0 -10 -2 -18l-13 -7q-24 -62 -29 -72 q-17 -33 -45 -55q14 -1 14 -3q-1 -2 -7 -4q-11 2 -27 0q-15 -19 -54 -47q-16 -6 -39 -8q-26 -2 -41 -6l-14 -13q-50 -8 -114 7q-11 10 -27 20q-12 -2 -33 0q-4 8 -13 20q-13 4 -41 20q-13 12 -27 27q2 7 0 20q-11 6 -26 20q-4 5 -4 16.5t-3 17.5h-14q-4 17 -13 74zM254 37 q0 6 4 6q2 0 4.5 -1.5t2.5 -3.5q0 -4 -10 -10zM282 451q3 0 67 -7q-15 0 -46 3t-21 4zM576 403q0 9 4 9q6 0 6 -5q0 -6 -9 -16q0 -1 -1 12zM589 113q0 18 8 16v-34q-8 0 -8 18zM683 395q0 18 8 16v-34q-8 0 -8 18zM684 164q0 6 3 6q7 0 7 -5q0 -4 -9 -9zM690 75q0 27 8 27 v-54q-8 0 -8 27zM690 134q0 9 4 9q6 0 6 -5q0 -6 -9 -16q0 -1 -1 12zM690 442q1 13 8 9q3 -1 3 -5q0 -8 -10 -22q0 9 -1 18z" />
<glyph unicode="4" horiz-adv-x="732" d="M0 158q0 45 7 41q3 -1 3 -7q0 -11 -10 -34zM41 -45v115q1 1 13 7q1 8 -3 21l-4 13l34 20q4 7 4 21t3 20q11 11 27 33q0 13 7 41q4 8 20.5 24t19.5 22.5t1 17.5q-2 12 -1 17q3 12 20 35.5t21 32.5q4 21 20 67q20 27 47 81q-2 10 0 27q3 8 17 21t17 20t2.5 23t4.5 24 q15 9 34 27q-1 11 0 34q5 19 19.5 46.5t27.5 34.5h7q8 2 24.5 -6t22.5 -8q34 1 88 0q-18 -32 -39 -81q-31 -77 -36 -87q-9 -8 -20 -21q-9 -31 -34 -94l-13 -7q-7 -11 -11 -29q-5 -22 -9 -32l-14 -7q-12 -30 -27 -108q-5 -1 -13 21q-78 -150 -109 -230q8 -1 24.5 -4l16.5 -3 h-41q7 -10 13 -20q10 -14 35 -14l20 14q6 1 12 1q9 0 22.5 -4t19.5 -4v14h7v-14q3 0 26 -6q17 -3 29 -3q10 0 18.5 2t16 13.5t11.5 13.5q0 1 0 -12q0 -9 3 -9q13 0 13 14q0 2 -2 10q-1 7 0 11h13v94h-13q2 2 13 7q-6 69 7 149q11 -1 26 -4t21 -3q17 1 68 14q5 -79 0 -115 q-2 -13 -2 -25q0 -17 7.5 -57t7.5 -74q4 -2 14 -6l7 -14q7 -3 23 -2q26 2 24 2q4 -38 13 -115q-6 -2 -13 -13q-19 -2 -68 -14q0 -30 -5 -72q-7 -52 -8 -63q-21 5 -60 5q-45 0 -62 2q12 92 0 121q-1 4 -9.5 6.5t-10.5 7.5q-142 7 -311 7v-7q-16 2 -46 -1q-26 -2 -35 1 q-2 6 -13 13zM94 390q0 6 3 6q7 0 7 -5q0 -4 -9 -10zM209 624v9q-1 6 3 6q7 0 7 -5q0 -4 -10 -10zM236 678v9q0 6 3 6q7 0 7 -5q0 -4 -10 -10zM331 246q0 3 7 68q0 -77 -6 -77q-1 1 -1 9zM418 329q0 7 3 7q8 0 8 -6q0 -4 -10 -10zM431 253q0 27 8 27v-54q-8 0 -8 27z" />
<glyph unicode="5" horiz-adv-x="731" d="M0 40q6 2 13 13q8 1 23.5 4t17.5 3l27 -13q5 0 21.5 6.5t18.5 6.5q15 -21 34 -54q-2 -8 0 -20q6 -1 20 -7q8 -14 27 -33q32 -15 75 -15q71 0 106 35v20q11 8 27 27q6 15 8 37q1 14 0 38q-1 26 -1 33q4 72 4 73q0 46 -38 95q-8 12 -17.5 24.5t-22.5 15.5q-11 -2 -34 0 q-10 5 -21 9q-17 8 -30 8q-9 0 -16 -3q-4 -10 -13 -21q-7 -3 -20.5 -2.5t-21.5 -4.5t-22 -30.5t-24 -29.5q-18 -7 -41 -7q-41 0 -87 21q3 2 3 4q0 4 -9 9q-3 11 4 26q9 19 9 21q3 24 3 51t-7 96q-6 60 -3 95q7 86 14 142q-3 11 -5 11q-2 -1 -2 -5v14v60q24 0 61.5 -6.5 t46.5 -6.5q12 0 47.5 10t46.5 10q2 0 18 -6t22 -7q-4 0 9 3.5t18 2.5q34 -4 70 -4q19 0 85 3q55 3 94 1q2 -18 0 -47q2 -13 3.5 -33t3.5 -34l-20 -7q24 -11 20 -13q-27 -11 -115 -11q-27 0 -84 1t-83 1q-105 0 -115 -18t-7 -79q2 -73 0 -89q4 -2 14 -21q12 -1 33 0q1 1 7 11 t7 10q20 4 60 13v47q3 -15 7 -47q20 2 37 2q56 0 131 -29v-13q5 -3 16.5 -2.5t17.5 -4.5l-7 -13q63 -49 79 -115q11 -45 9 -168q0 -13 6 -108q-15 -46 -20 -58q-14 -36 -27 -56q-34 -51 -99 -81.5t-139 -30.5q-66 0 -125 25q-7 8 -20 20q-58 39 -85 76q-32 46 -43 119z M249 174q0 -1 0 9q0 6 3 6q7 0 7 -5q0 -4 -10 -10zM255 156q-1 6 3 6q7 0 7 -5q0 -4 -9 -10zM261 571q0 27 8 27v-54q-8 0 -8 27zM355 595q0 19 8 17v-34q-8 0 -8 17zM356 531q-1 6 0 10q0 4 3 4q7 0 7 -5q0 -6 -9 -16q0 1 -1 7zM362 637q0 9 4 9q6 0 6 -5q0 -6 -9 -16 q0 -1 -1 12zM363 161v9q0 5 3 5q7 0 7 -5q0 -4 -10 -9zM457 531h21q13 -1 14 -2q0 -1 -27 0q-25 2 -8 2zM572 242q0 -7 7 74q0 -10 -1.5 -36t-3.5 -38q-1 -16 -2 0zM579 665q11 0 38 -3t29 -3q-14 0 -46 3t-21 3zM632 773h21q13 -1 14 -2q0 -1 -27 0q-26 1 -8 2zM665 395 q0 9 4 9q6 0 6 -5q0 -6 -9 -16q0 -1 -1 12zM665 740q0 26 8 26v-53q-8 0 -8 27zM672 189q-1 13 0.5 20.5t6.5 5.5q3 -1 3 -7q0 -11 -9 -34q0 -2 -1 15zM672 257q0 6 3 6q7 0 7 -5t-9 -10zM672.5 358q-0.5 7 0.5 10q1 4 6 1q3 -1 3 -4q0 -6 -9 -16q0 2 -0.5 9z" />
<glyph unicode="6" horiz-adv-x="704" d="M-3 95q0 31 23 120q-1 15 7 41q12 4 27 13q5 9 5 25t2 23t13.5 18.5t13.5 15.5q5 10 7.5 24.5t6.5 23.5q6 2 14 6q0 14 6 41l14 7q2 6 3 22q1 5 4 12q12 10 27 27q6 12 9.5 37t10.5 38q15 12 34 34q-1 10 0 27q8 12 21 34h20q-7 5 -7 16q0 19 22 58l26 42q43 -4 123 -20 q-3 -21 -14 -62q-16 -40 -81 -161q-53 -99 -75 -172h54l7 -14q13 -2 32.5 1t26.5 3q14 0 29 -4q9 -9 21 -20q13 1 40 -7v-13q19 -11 26 -22q7 -17 15 -33q12 -11 27 -34q3 -7 1 -20q-2 -16 -1 -21q1 -6 13 -34q9 -23 8 -40q0 -4 -7 -19.5t-7 -28.5q2 -10 5 -19q4 -19 2 -29 q-9 -13 -20 -34q-1 -3 -1 -6t4 -8t3 -13q0 -3 -10 -14t-10 -13q2 -10 0 -27q-11 -7 -27 -21q-3 -9 -7 -13q17 0 17 -4q0 -5 -11 -5q-5 0 -14 4l-12 5q2 -10 0 -28q-2 -4 -10 -4t-11 -2q-25 -20 -75 -48q-28 -8 -72 -8q-69 0 -118 15q-10 -2 -27 0q-5 8 -14 20q-68 52 -92 88 q-31 47 -44 137q-3 23 -3 43zM125 96q0 -39 18 -85q6 -2 13 -7q1 -3 8 -29q5 -20 13 -25q4 -4 14 -4t13 -3q1 -9 7 -21q5 -2 15 -2q24 0 64.5 8t56.5 15q31 14 54 66.5t23 107.5q0 16 -2 30l-14 7q0 13 -7 41q-4 7 -25 28.5t-29 25.5q-18 10 -43 10q-23 -1 -45 -3 q-8 0 -18.5 4.5t-16.5 2.5q-2 -10 -6 -21q-19 -10 -37 -21q-24 -13 -31 -26q-5 -9 -5 -27q0 -21 -2 -28l-14 -13q-4 -14 -4 -31zM218 65q0 13 3 42.5t3 32.5q0 -10 -1.5 -36t-2.5 -39q-1 -16 -2 0zM237 8q1 14 8 10q2 -1 2 -5q0 -7 -9 -23q0 9 -1 18zM320 79q0 52 7 48 q3 -1 3 -8q0 -13 -10 -40zM326 61q0 5 3 5q8 0 8 -5q0 -4 -10 -9zM332 166q0 9 4 9q7 0 7 -5q0 -6 -10 -16q0 -1 -1 12zM360 455q0 6 3 6q7 0 7 -5t-9 -10zM550 621q1 13 8 9q3 -1 3 -5q0 -8 -10 -22q0 9 -1 18zM577 -62q0 6 3 6q8 0 8 -5q0 -4 -10 -10zM618 -14q-1 6 3 6 q8 0 8 -5q0 -4 -10 -10zM632.5 203.5q-0.5 7.5 0.5 9.5q1 4 6 2q3 -1 3 -4q0 -6 -9 -16q0 1 -0.5 8.5zM639 99v9q0 6 3 6q7 0 7 -5q0 -4 -10 -10zM639 167v9q0 6 3 6q7 0 7 -5q0 -4 -10 -10zM645 78q0 9 4 9q7 0 7 -6t-10 -16q0 -1 -1 13z" />
<glyph unicode="7" horiz-adv-x="668" d="M0 766q20 9 54 20q11 1 26 -3.5t21 -2.5q3 0 8.5 9.5t12.5 10.5q3 1 38 2q36 0 43 -2l13 -14q64 -3 88 0l20 14q32 4 63 4q66 0 133 -18l7 14q5 1 8.5 -4t11.5 -3q1 -21 9 -64q6 -38 5 -57l-14 -27q4 -12 7 -27h-13l-34 -82l-31 -98q-22 -63 -44 -84q-2 -1 3.5 -7 t3.5 -13h-13q-1 -23 -14 -68q-9 -4 -20 -13q2 -12 0 -34q0 -1 -10 -13t-10 -14q-1 -4 0 -13.5t0 -13.5q-3 0 -8 3t-7 3q-8 0 -8 -13q0 -5 4.5 -11t4.5 -9l-13 -7q-4 -10 -4 -24v-3q0 -12 -3 -20q-11 -12 -27 -34q-3 -6 -1 -20q2 -15 1 -21q-16 -24 -34 -54q1 -10 0 -27 q-3 -11 -21 -50.5t-26 -50.5l-14 -20q-18 -8 -71 -8q-68 1 -71 1q-2 49 0 54q3 6 17 17.5t17 16.5q-1 10 0 27q2 6 13.5 17.5t13.5 16.5q6 16 9.5 47t10.5 47q9 4 21 14q6 12 7 30.5t6 30.5l27 40q-1 10 0 27l14 7q4 12 6 33t7 34q10 12 21 27q-2 10 0 28q13 15 33 47 q8 18 14 50.5t13 50.5q6 15 37 73q25 47 31 76q-8 10 -8 19t8 15q-3 1 -11 7t-9 6q-16 4 -27 -7q-12 -2 -28.5 2.5t-19.5 4.5q-74 0 -169 -13q-1 -36 7 -68q-2 -11 -4 -11q-2 1 -3 4v-54l-20 -13q-14 -4 -47 6q-25 -5 -14 -6h-40q-7 97 -7 263zM182 489v26q0 18 7 15 q3 -1 3 -7q0 -11 -10 -34zM188 468q0 9 4 9q2 0 4 -1t2 -4q0 -7 -9 -17q0 -1 -1 13zM188 570q0 27 8 27v-54q-8 0 -8 27zM282 426q0 18 9 16v-34q-9 0 -9 18zM297 273q12 0 12 10q0 11 -12 10v-20zM378 -76q0 5 3 5q7 0 7 -5q0 -4 -10 -9v9zM405 -9q0 6 3 6q7 0 7 -5 q0 -4 -10 -10v9zM420 375q0 -6 12 -7q-1 2 0 6.5t0 5.5q-1 2 -6 1q-6 -1 -6 -6zM425.5 31.5q-0.5 7.5 0.5 9.5q1 4 6 2q3 -1 3 -4q0 -6 -9 -16q0 1 -0.5 8.5zM486 185v9q-1 6 3 6q7 0 7 -5q0 -4 -10 -10zM500 638l7 -14q-1 2 0 11q1 3 -7 3zM519 281q0 13 8 19q4 3 4 -2 q0 -4 -2 -13.5t-2 -11.5q-8 0 -8 8zM546 346q0 9 4 9q7 0 7 -5q0 -6 -10 -16q0 -1 -1 12zM607 594q0 19 8 17v-34q-8 0 -8 17zM614 522q0 9 4 9q6 0 6 -5q0 -6 -9 -17q0 -1 -1 13zM614 559q0 7 3 7q8 0 8 -6q0 -4 -10 -10z" />
<glyph unicode="8" horiz-adv-x="747" d="M0 75q3 11 5 11q1 -1 2 -5q0 -2 -3 44q-1 28 3 43q12 10 26 26q3 5 1 17t-1 17q9 4 20 13l23 31.5t30 28.5q0 11 -6 33q-4 7 -20 17t-19.5 15.5t-22 49t-18.5 45.5q-4 21 -4 41q0 36 14 80l23 72h20q10 1 14 6q-4 15 0 40q10 2 26 7q3 2 12.5 19.5t14.5 20.5q1 1 60 33 q8 2 11.5 -3t8.5 -4q2 6 6 20q16 3 33.5 -5.5t26.5 -7.5q8 10 27 20q4 0 14.5 -6.5t11.5 -6.5q20 0 60 -7q10 -11 27 -27q7 2 20 0q4 -1 4.5 -9.5t2.5 -10.5q52 -44 62 -55q35 -36 44 -71q-1 -11 0 -33l13 -14q10 -38 7 -79q-2 -19 -18.5 -57.5t-28.5 -56.5q-17 -11 -40 -40 q2 -10 0 -33l32 -21q21 -14 27.5 -24t8.5 -26q2 -19 6 -29l20 -20q9 -25 9 -66q0 -85 -23 -140q-11 -12 -26 -33l-14 -27q16 1 16 -3q0 -1 -2.5 -3.5t-12.5 -0.5q-12 2 -14 1q-6 -2 -14 -19.5t-13.5 -21t-22.5 -6.5t-23 -7q-8 -11 -27 -26q-12 1 -33 0q-23 -9 -60 -20 q-14 -2 -28 -2q-75 0 -152 41q-72 37 -99 81q-1 9 -7 26q-11 9 -27 33q-6 18 -8 46q-4 42 -5 48zM53 580l20 -6q-7 4 -11 12.5t-9 7.5v-14zM136 90q0 -63 24 -75q1 -1 1 -2l-5.5 -4t-2.5 -8q8 -12 30 -22l37 -18q5 -9 13 -20q34 -15 85 -15q13 0 21 2q5 9 14 20q6 4 16.5 4 t16.5 3t11.5 16.5t8.5 16.5q14 9 33 27q20 39 20 78q0 87 -80 128l-34 20q-25 13 -39 13l-13 -13q-19 2 -53 0q-2 -1 -44 -30t-43 -30q-17 -29 -17 -91zM146 500q0 -21 7 -39l20 -7q-1 -8 0 -20q1 -7 20.5 -28.5t26.5 -24.5q6 2 20 0l18.5 -14t27.5 -6l13 13l71 16 q31 10 49 37q4 14 20 40q-4 5 -6 20l12 32q10 25 8 35l-27 6q-4 4 -4 16.5t-3 17.5q-13 25 -48.5 43t-76.5 18q-11 0 -21 -1q-44 -6 -85 -52q-42 -49 -42 -102zM225 82q0 26 8 26v-53q-8 0 -8 27zM225 143q0 6 3 6q8 0 8 -5q0 -4 -10 -10zM232 43q0 6 3 6q8 0 8 -5 q0 -4 -10 -9zM261 508q2 0 5.5 -1t12.5 -11.5t2 -10.5q-3 0 -8 2q-20 21 -12 21zM325 120q0 9 4 9q6 0 6 -5q0 -6 -9 -16q0 -1 -1 12zM332 90q0 6 3 6q7 0 7 -5q0 -4 -9 -10zM339 148v17q0 12 7 9q3 -1 3 -5q0 -7 -10 -21zM339 427q0 -1 0 9q0 6 3 6q7 0 7 -5q0 -4 -10 -10z M658 203q0 6 4 6q2 0 4.5 -1.5t2.5 -3.5q0 -4 -10 -10zM671 170q0 5 3 5q8 0 8 -5q0 -4 -10 -9zM671 397v34q1 38 1 36v-53q-1 -11 -1 -17zM684 78q-1 14 0 34q1 38 1 36v-53q-1 -11 -1 -17z" />
<glyph unicode="9" horiz-adv-x="669" d="M-1 353q0 9 4 9q6 0 6 -5q0 -6 -9 -16q0 -1 -1 12zM7 462q0 -1 0 9q0 6 3 6q7 0 7 -5q0 -4 -10 -10zM12 506q0 19 8 17v-34q-8 0 -8 17zM44 488q0 21 10 50q13 33 14 39q-3 21 0 61q9 5 20 13q1 10 7 27q20 34 82.5 75t106.5 47q23 3 50 3q82 0 119 -23q6 -11 20 -27 q23 -8 54 -27q2 -3 14 -48q3 -2 13.5 -2.5t13.5 -3.5q-1 -1 0 -21q-25 4 -7 -6q2 -1 13 -7q-7 -33 -6 -34h20q-8 -35 -7 -40q1 -4 13 -11.5t14 -9.5l-14 -22q-8 -14 -6 -25l27 -14q-1 -25 -14 -87q0 -1 -6.5 -3.5t-6.5 -3.5q-9 -32 -34 -102q-3 -7 -17 -20.5t-17 -19.5 q-6 -12 -10.5 -37t-9.5 -37q-6 -2 -14 -7q-42 -114 -74 -162l-13 -7q-7 -25 -27 -74q-19 -21 -48 -61q-3 -6 -7 -30q-4 -19 -13 -24q-13 -8 -40 -9q-19 -1 -53 0q-41 2 -49 2q18 59 47 114l55 95q-2 7 0 21q11 11 27 34q-1 9 0 27q14 18 33 47q5 20 21 67q-5 0 -40 -5 q-23 -3 -35 -1q-26 3 -87 33.5t-75 47.5q-11 13 -19 35l-15 39q-13 15 -27 41q-1 9 6.5 27t7.5 27l-14 13q-3 13 -3 26zM101 -112q5 0 61 -7q-13 0 -43 3.5t-18 3.5zM169 199q31 1 40 0l12 -1q0 -1 -19 -1q-17 0 -31 1t-2 1zM186 452q0 -17 3 -30l14 -7q1 -10 6 -27 q16 -25 51.5 -42.5t75.5 -17.5q22 0 42 6q47 13 73 58q22 41 22 97q0 31 -7 61q1 15 -7 47q-8 15 -28 24l-39 17q-1 6 -7 13q-42 18 -94 7l-7 -13q-6 -3 -17.5 -0.5t-16.5 0.5q-5 -9 -14 -21q-23 -18 -27 -27q0 -1 -6 -47q23 -1 33 -7h-40q0 -5 -6 -41q-4 -30 -4 -50z M310 350q0 6 3 6q8 0 8 -5t-10 -10zM317 478q-1 6 0 9q2 5 7 2q3 -1 3 -4q0 -6 -9 -16q0 -1 -1 9zM324 388q-1 12 3 38.5t4 28.5q0 -76 -6 -76q-1 1 -1 9zM411 491q0 6 3 6q8 0 8 -5q0 -4 -10 -10z" />
<glyph unicode=":" horiz-adv-x="243" d="M3 -165q-5 0 24 8q-1 6 -8.5 10t-8 7t-0.5 6q0 6 3.5 10t5.5 7v47q23 1 52 8t51 8q1 3 -1 9q-1 4 0 6q2 2 9 1q3 -16 8 -40q10 2 6.5 8t1.5 8q14 6 14 -26q0 -18 -6 -29q-4 -7 -24 -10t-24 -6t-5 -16.5t-3 -15.5h24q5 -3 24 -8v-16q-20 -2 -72 -8l8 24q-8 2 -17 -3.5 t-9 -9.5q1 -3 3 -3q-26 0 -40 -8q-6 13 -16 32zM24 293q0 17 11 17q11 1 13 -5t4.5 -8.5t5.5 -2.5q7 0 7 8t1 8q7 2 11 -6.5t5 -8.5q9 -2 35 5l37 10q-3 -6 -0.5 -20t0.5 -19q-9 -10 -24 -32q-7 2 -9 -2q-1 -3 0 -11q1 -9 1 -11q7 1 32 8q20 3 20 -5q0 -9 -13 -11 q-6 -1 -13 -1q-11 0 -27 4.5t-23 4.5v-23q31 -8 32 -8q23 16 16 16q10 3 16 3q7 0 7 -5q0 -8 -13.5 -18.5t-25.5 -11.5q-6 0 -79 24v95h-24q-3 2 -3 6zM58 -2q-1 11 0 15q2 7 8 4q3 -2 3 -6q0 -9 -10 -25q0 -2 -1 12zM106 33q21 1 24 0q15 -1 16 -2h-30q-30 1 -10 2zM161 -4 q-1 7 3 7q8 0 8 -6q0 -5 -11 -11v10z" />
<glyph unicode=";" horiz-adv-x="373" d="M11 -166q0 20 7 76.5t7 77.5h19v13q6 2 11 2q8 0 20.5 -4.5t18.5 -4.5q3 0 7 1q2 6 12 12q3 -7 7 -19q-4 -1 -13 -6q-8 5 -10 5q-2 -1 -2 -2t1 -4.5t1 -5.5q0 -4 -3 -6q10 -4 23 -6.5t22 -5.5q-1 -10 -7 -45v-31q-3 -7 -18 -8.5t-20 -4.5q-9 -6 -23 -25t-27 -26v-12 q-6 3 -10.5 -0.5l-8.5 -6.5q-6 7 -13 19q-1 7 -1 17zM23 243q2 47 2 43v13q9 5 63 6q48 1 48 -13q0 -3 -6 -20t-4 -30q10 -8 19 -13q-4 -20 -7 -39q-6 -13 -37 -11q-14 1 -18 9.5t-8.5 10t-9.5 1.5q-7 0 -20 -4t-20 -5q-4 24 -2 52zM50 236l6 -13v10q1 3 -6 3zM69 255l6 -13 q0 1 1 10q0 3 -7 3zM220 27q0 25 7 25v-51q-7 0 -7 26zM268 58q0 7 21 7q6 0 6 -3t-3.5 -9.5t-3.5 -9.5t3 -4q-6 4 -12 7q-11 7 -11 12zM291 267q13 -2 13 -10q0 -3 -7 -2q-23 15 -6 12zM303 -11q0 9 7 6q2 -1 2 -4q0 -5 -9 -15v13zM309 230q0 9 7 6q3 -1 3 -4q0 -5 -9 -15 q0 7 -1 13zM310 7v9q-1 5 2 5q7 0 7 -5q0 -4 -9 -9z" />
<glyph unicode="&#x3c;" horiz-adv-x="393" d="M13 351q-14 21 0 39h6q6 7 15 15q14 1 42 9q1 4 3 9h9l9 9q8 1 24 6q14 10 42 24h12q5 5 15 12q8 -1 24 0q5 1 -3 9q10 2 30 9l3 6q4 -1 12 0q5 6 15 12h12q5 4 15 9q1 0 9 -3h18v-8q-1 -6 -3 -4q3 -8 0 -21q-6 -1 -21 -6l-6 -9q-12 -3 -33 -12l-3 -6q-5 1 -15 0l-3 -6 q-5 0 -15 -3q-4 -2 -12.5 -8t-11.5 -7q-11 -2 -36 -9l-9 -9q-4 1 -12 0q-6 -5 -15 -11t-26 -12t-25 -10v-12q11 -10 15 -12q8 0 24 -3q1 -3 3 -6q1 1 2.5 1.5t3.5 1.5q6 -9 9 -9q2 0 2.5 2t3.5 1q2 -4 6 -9q7 0 24 -3q-4 -4 -3 -6q9 -1 30 -6q2 -4 7 -8t15.5 -5.5t16.5 -4.5 q2 -4 6 -9q6 1 18 0q2 0 10 -5.5t11 -6.5q14 -4 45 -18q0 -6 -6 -39q-25 7 -75 24l-9 9q-13 5 -42 15l-3 6q-5 -1 -12 0q-8 8 -24 18q-5 -1 -15 0q-3 7 -9 15q-7 4 -23 4t-22 2q-7 6 -21 15h-12q-6 2 -23 11.5t-19 12.5z" />
<glyph unicode="=" horiz-adv-x="704" d="M30 197l19 19.5t22 11.5q11 1 18.5 -4.5l7.5 -5.5q7 -1 14 -1q11 0 32.5 4t31.5 4q15 0 26 -7q1 -6 3 -12q3 -11 12 -14q12 -4 14 6q-2 5 -3 9q2 1 2 3t-13 2l5 11q16 -1 32 -1q3 -1 25 -20q-4 -7 -7 -7q-2 0 -3 2v-36q-6 -1 -16 -11h-15q-4 8 -10 16q-4 1 -7 -4.5 t-4 -5.5q-4 -2 -8 -2q-6 0 -14.5 4t-13.5 3l-10 -11h-124q-6 14 -16 47zM51 388l26 31q8 -1 20 0q1 7 5 16q3 1 10 0q7 -2 7 -4l-1 -1q3 3 4 3t1 -2q0 -5 -10 -27q6 -1 15 0v5q6 1 5 7q-1 5 -5 8h36l6.5 -5.5t9.5 -4.5q2 5 5 16q21 5 57 10q19 1 53 -4q38 -6 51 -6 q-9 -19 -6 -21q4 3 16 21h21l6 -10.5t9 -5.5h5q-1 -6 0 -15q2 3 26 10h21q5 9 15 21q11 -1 31 0q1 -1 11 -21q6 2 15 0v21q19 5 31 5q23 0 23 -23q0 -13 -7 -39q-8 -1 -40.5 -9t-47.5 -8q-6 0 -10.5 1t-13.5 11.5t-23 9.5v-10q-4 -1 -15 -6q-3 0 -24 5.5t-23 5.5 q-9 0 -14.5 -5.5l-5.5 -5.5q-1 0 -37 6q3 -5 5 -11q-26 4 -51 5q5 3 4 14q-1 9 -4 12q-4 -1 -26 -5q2 -1 10 -15q-7 -2 -17 -2q-18 0 -50 7q-40 9 -47 10v10q-13 -28 -24 -28q-3 0 -12 1q-12 1 -20 2l-6 15zM164 176q11 -1 11 14q0 14 -11 12q5 -4 0 -26zM221 383 q10 -2 10 2q0 7 -10 8v-10zM263 140l31 3t5 2h-31q5 0 -5 -5zM287 161q0 1 7 15v31q3 1 31 5q31 1 26 0l11 3q8 2 4 3h16q0 -6 5 -16l16 15.5t21 8.5q7 0 15 -3q4 -6 15 -16q0 -5 0 13q0 6 6 8t6 1l-4 -4q0 -1 2 -2h11q-15 -3 -15 -14q0 -3 7 -3q3 0 7.5 1t10.5 16 q15 6 83 0q-6 -28 -5 -31q7 -1 8.5 4.5l1.5 5.5q5 1 7 -4t3 -6q3 1 5 0q-2 -4 1 -5h-26q-1 -11 -5 -31h-52q13 -11 10 -11q-17 4 -62 5l-7 -3.5t-14 -1.5q-10 10 -31 21v-10h-56q-1 -1 -6 -11q-21 -1 -26 10q-5 8 -15 6q-3 -7 -6 -7q-6 0 -6 7zM313 347q0 9 7.5 10t12.5 1 q9 0 9 -3q0 -6 -22 -18q-7 0 -7 10zM393 307q0 11 9 14q6 2 6 -2t-6 -13q-4 -2 -6 -2q-3 0 -3 3zM408 383h10q-3 2 -2 6t-8 4v-10zM423 362h16q7 -1 10 -1h-20q-20 1 -6 1zM428 306q0 -2 0 11q0 7 5 4q2 -1 2 -3q0 -4 -7 -12zM485 342v8q-1 2 5 2q7 0 7 -2q0 -4 -12 -8z M511 311h31v7q0 2 5 3q7 -13 0 -15t-22 1.5t-14 3.5zM532 342q10 -3 10 -13q0 -4 -5 -3q-17 20 -5 16zM568 145h31q6 -1 9 -1h-27q-28 1 -13 1zM656 181q0 -2 0 9q0 4 5 2q2 -1 2 -3q0 -4 -7 -8zM656 316q0 -2 0 11q0 7 5 4q2 -1 2 -3q0 -4 -7 -12z" />
<glyph unicode="&#x3e;" horiz-adv-x="381" d="M10 488q0 9 2 9l1 -1l3 9q-1 0 5 -6q8 5 7.5 6t1.5 2.5t3 2.5l-6 3q0 10 3 9q3 -6 11 -15q5 1 14 -2q1 -1 3 -15q15 9 23 9q6 -5 14 -11q10 -2 31 -9q2 -3 6 -8q7 0 20 -3q6 -6 19 -14q7 0 23 -3q4 -4 11 -12q6 -1 17 -5q2 -4 6 -9q9 0 25 -3q5 -6 15 -14q5 1 14 0 q7 -2 25 -17q-5 -20 -5 -36q-8 -2 -29 -9q-7 -6 -20 -14q-8 0 -28 -6q-1 0 -2.5 -3.5t-3.5 -4.5q-11 -3 -34 -12q-7 -5 -22 -14q-7 1 -23 -3q3 0 -5 -8q-11 -3 -34 -11q-6 -5 -17 -12q-5 1 -15 0v-5q-8 -1 -25 -6q-3 -5 -9 -11l-22 -6q-4 28 0 34q25 12 28 11q1 -4 3 -3 q2 2 2 7q1 5 -2 5q6 5 14 11q17 2 48 11l20 17h14q3 4 6 9q2 1 6 0.5t5 -0.5q6 5 17 11q6 -1 17 0q1 1 3.5 5l2.5 4q7 0 20 3q1 1 1.5 4.5l0.5 3.5q2 -2 9 -3q2 1 8 12q3 -1 9 0v11q-20 10 -68 31q-9 2 -25 8l-6 6q1 1 1.5 3t1.5 3q-12 1 -31 3v11q-5 2 -11 -0.5t-9 -2.5 q-5 4 -12 9q-1 1 -5 0.5t-6 -0.5q-1 0 -31 14q-10 5 -34 20zM98 312q0 13 3 11q3 -1 -3 -11zM123 346q1 2 6 6l-3 -9q-5 2 -3 3zM251 355l2 -9q0 9 -2 9zM276 420q0 7 3 5q4 -2 -3 -5zM324 425v6q0 4 3 3q4 -2 -3 -9z" />
<glyph unicode="?" horiz-adv-x="592" d="M0 396q0 -1 0 9q0 6 3 6q2 0 4.5 -1.5t2.5 -3.5q0 -5 -10 -10zM3 539q-2 19 4 35q6 3 14 14q5 -3 11 -6t16 -1q-8 7 -27 14q3 21 20 68h21q1 3 1 5q0 5 -5.5 9l-9.5 7q16 20 48 48q8 4 24 6t24 7q4 2 7 13.5t7 14.5q9 -1 27 0q4 6 14 13h13q1 -13 7 -41h-34 q-3 -12 -7 -41q-3 1 -5 1q-3 0 -2 -6v-9q15 1 41 -6q3 -10 7 -21l-38 -20q-24 -15 -30 -28q-7 -16 -10 -54l-4 -56q-77 7 -130 7q0 -3 -4 27zM13 427q0 3 8 3q9 0 9 -2q0 -3 -6 -6.5t-10 -5.5q0 1 -1 11zM33 494q0 6 3 6q8 0 8 -5q0 -4 -10 -10zM102 400q0 9 1.5 14t6.5 2 q2 -1 2 -5q0 -7 -9 -22q0 -2 -1 11zM109 439q-1 6 3 6q7 0 7 -5q0 -4 -9 -10zM142 -132q0 28 9 28v-55q-9 0 -9 27zM143 30q0 9 1.5 14.5t6.5 2.5q2 -1 2 -5q0 -8 -9 -23q0 -3 -1 11zM144 74q0 -1 0 9q0 6 3 6q7 0 7 -5q0 -4 -10 -10zM150 66q2 2 8 1t6 -5q0 -7 -13 -9 q1 3 0 8q-1 4 -1 5zM157 129q-1 6 0 10q0 4 3 4q7 0 7 -5q0 -6 -9 -16q0 1 -1 7zM178 5q11 0 35.5 -3t26.5 -3q-13 0 -43.5 3t-18.5 3zM179 494q0 8 13 11v-13q-5 -1 -8 -1q-5 0 -5 3zM185 -77q26 13 34 14q13 2 41 -2q33 -5 48 -5q23 -45 23 -95q0 -31 -16 -35 q-8 -2 -16 -2q-10 0 -23 4q-17 4 -23 5q2 0 2 -1q0 -6 -22 -6q-9 1 -22 12q-16 13 -19 15q0 10 6 44q6 39 7 45q-7 1 -20 7zM192 547q9 28 13 27v-14q19 -8 19 -11v-1q-3 -2 -32 -1zM199 101h20v14l-20 7q7 26 9.5 54t10.5 56l14 13q-1 8 0 21q5 6 24 13.5t24 13.5 q-1 8 0 21q2 5 16.5 14t17.5 13q1 2 -7 14h14q6 21 20 55q17 11 42 34q-1 13 6 34q9 1 21 7q2 0 -7 34q9 19 9 30t-9 11q-2 5 0 17.5t0 17.5l-75 75l-48 7v13q-4 1 -17 -8q-16 -11 -17 -12q1 75 -7 75q40 4 40 16q0 6 -20 12q3 17 7 17q3 0 7 -4q1 3 -1 10q0 3 8 4 q20 2 31 -10q13 -16 17 -17t7 -1q6 0 15 4t12 3q-1 -12 7 -27q4 -2 7 -2t7.5 5t12.5 4l48 -34q-1 -4 0.5 -14t-0.5 -14q-6 -2 -13 -13q32 7 34 7q12 0 41 -7q0 -16 7 -48q12 -5 27 -21q4 -15 3 -44q-3 -48 -3 -45l-14 -7q-2 -13 3 -28.5t4 -26.5q-1 -9 -15 -28 q-17 -23 -19 -26q-3 -7 -3 -17.5t-4 -17.5q-7 -14 -29 -35q-25 -24 -30.5 -31.5t-70.5 -104.5q-12 -11 -27 -34q-3 -14 -2 -39q1 -28 8 -30q2 0 2 -5q0 -13 -15 -56h-117q-11 30 -13 61zM246 21q-1 6 3 6q7 0 7 -5q0 -4 -9 -10zM288 751q0 -9 13 -13q4 9 4 14q0 9 -10 7 q-7 -2 -7 -8zM300 418q0 6 3 6q8 0 8 -5q0 -4 -10 -9zM307 388q0 9 4 9q7 0 7 -5q0 -6 -10 -17q0 -1 -1 13zM335 515q-1 7 0 9q2 4 7 2q6 -5 6 -13t-12 -8q0 2 -1 10zM383 487q-1 6 3 6q7 0 7 -5q0 -4 -9 -10zM432 601l6 -13q0 2 1 10q1 3 -7 3z" />
<glyph unicode="A" horiz-adv-x="862" d="M0 -187q1 23 13 68q7 1 21 13q1 0 33 -13q-30 25 -30 51q0 12 3 29l14 13q-1 18 6 54q10 4 21 14q4 11 3.5 34t2.5 33q2 6 16.5 40.5t17.5 39.5l13 7q3 9 3.5 27t3.5 27q18 25 40 60q-1 11 0 34q5 17 22 48q21 35 25 46q-1 10 0 26q12 18 27 47q-1 10 0 27q12 10 27 27 q2 6 1 20q-2 15 -1 20q3 12 18 32.5t15 21.5q4 10 4 30t3 30l27 47q0 7 7 21q17 13 33 13q4 0 12 -6.5l8 -6.5q16 -5 68 0q12 -47 40 -148l27 -47q2 -19 13 -60q9 -8 20 -21q7 -18 10 -46q4 -31 10 -48q17 -31 41 -87q-2 -11 0 -33q12 -14 26 -41q4 -9 4 -24t3 -23 q1 -1 10.5 -10t9.5 -10q4 -11 4 -33.5t3 -33.5l13 -7q5 -10 7.5 -29.5t6.5 -30.5q10 -9 20 -20q8 -23 15 -57q7 -40 12 -57h40q-31 -11 -31 -19q0 -7 18 -15q1 -11 6 -27t5.5 -36.5t1.5 -23.5q-92 0 -141 7l-34 117q-28 88 -46 97q-33 15 -148 7q-186 -13 -235 -7l-74 -181 h-27q-3 -2 -5 -13t-8 -14q-23 -10 -94 0zM108 -188q0 13 13 15q9 -18 0 -20q-13 -3 -13 5zM262 156q63 -9 135 -9t147 9q-8 70 -21 114l-13 13q2 12 0 34q-9 8 -20 20q-3 10 -3 28v8q-1 19 -4 31q-9 8 -20 20q-6 14 -7.5 37.5t-5.5 36.5q-1 2 -10.5 10.5t-9.5 9.5 q-5 10 -5.5 25.5t-1.5 21.5h-27q-2 -16 -13 -47l-14 -7q-5 -15 -7 -40.5t-6 -39.5q-8 -26 -33.5 -78t-33.5 -75.5t-27 -121.5zM276 -68q0 19 13 22q7 2 7 -5q0 -11 -7 -21q-5 -2 -8 -2q-5 0 -5 6zM301 254q1 13 8 9q2 -1 2 -5q0 -7 -9 -22q0 9 -1 18zM321 10q0 6 3 6 q8 0 8 -5q0 -4 -10 -10zM321 299q0 5 3 5q8 0 8 -4t-10 -10zM335 326q-1 6 0 9q2 5 7 2q3 -1 3 -4q0 -6 -9 -16q0 -1 -1 9zM349 357v9q0 5 3 5q7 0 7 -5q0 -4 -10 -9zM368 419q0 6 3 6q8 0 8 -4t-10 -10zM396 203v9q0 5 3 5q7 0 7 -5q0 -4 -10 -9zM396 478v9q0 5 3 5 q7 0 7 -5q0 -4 -10 -9zM415 536q1 13 8 9q2 -1 2 -5q0 -7 -9 -22q0 9 -1 18zM435 338q1 9 8 6q2 -1 2 -4q0 -7 -9 -17q0 7 -1 15zM576 638q0 9 4 9q2 0 4 -1t2 -4q0 -6 -9 -16q0 -1 -1 12zM604 545v9q0 5 3 5q7 0 7 -5q0 -4 -10 -9zM616 517q0 9 4 9q7 0 7 -5q0 -6 -10 -16 q0 -1 -1 12zM637 466q0 6 3 6q7 0 7 -5q0 -4 -9 -9zM657 406q-1 6 3 6q7 0 7 -5q0 -4 -9 -10zM677 346q0 5 3 5q8 0 8 -4t-10 -10zM684 319q-1 6 2 6q2 0 5 -1.5t3 -3.5q0 -4 -9 -10q0 1 -1 9zM704 265q-1 6 3 6q7 0 7 -5q0 -4 -9 -10zM724 211q0 6 3 6q8 0 8 -5 q0 -4 -10 -9zM731 184q0 6 3 6q7 0 7 -5q0 -4 -9 -9z" />
<glyph unicode="B" horiz-adv-x="786" d="M-1 25q0 6 3 6q8 0 8 -5q0 -4 -10 -10zM-1 528q0 9 4 9q6 0 6 -5q0 -6 -9 -16q0 -1 -1 12zM0 -85q0 43 7 40q3 -1 3 -7q0 -10 -10 -33zM0 104q0 45 7 41q3 -1 3 -7q0 -11 -10 -34zM0 165q0 50 7 47q3 -1 3 -7q0 -13 -10 -40zM0 280q0 17 3 52l4 42q0 -17 -3 -51zM0 442 q0 44 7 40q3 -1 3 -7q0 -10 -10 -33zM6 400q0 9 4 9q6 0 6 -5q0 -6 -9 -16q0 -1 -1 12zM7 43q0 52 7 48q3 -1 3 -8q0 -13 -10 -40zM7 226q0 44 7 40q2 -1 2 -6q0 -11 -9 -34zM14 -99q0 4 6.5 12t6.5 9q3 11 7 101q1 28 -6 76q-8 53 -8 79q0 7 7 38.5t7 36.5q2 34 -2 88 q-6 64 -6 89q0 16 1 32q10 123 7 156q-6 78 -6 89q0 48 13 66q7 10 141 27q14 2 38 -2q15 -3 30 -5q185 -9 243 -7q6 -12 20 -36.5l21 -37.5q67 12 73 12q21 0 29 -16.5t6 -62.5q35 -13 38 -14.5t1 -12.5q-3 -18 1 -41q7 -3 14 -7q0 -77 -1 -90q-3 -48 -19 -72 q-11 -7 -27 -20q0 -7 -7 -20q-4 -4 -13.5 -4t-13.5 -3t-4.5 -10.5t-2.5 -9.5q-7 -1 -20 -7q-2 -10 0 -27l20 -7v-20q25 -10 61 -27v-34q2 -4 13.5 -9t13.5 -11q3 -9 1 -27q-2 -20 -1 -27l13 -14q5 -17 5 -33q0 -47 -32 -75q-3 -2 8 -8q7 -3 13 -6q-2 -20 -14 -60 q-6 -3 -13 -7q-1 -10 -7 -27q-15 -24 -66.5 -59t-82.5 -42q-41 -10 -89 -10q-16 0 -56 2q-35 2 -57 1q-12 0 -59 -4q-40 -4 -56 -3q-34 3 -68 5q-32 2 -61 -5q-2 5 -1 21t-5 20h-27q-2 5 -21 13q-4 49 -6 47zM169 -45q27 -13 81 -27l41 14q19 0 56.5 -4.5t54.5 -4.5 q13 0 24 2l13 14q11 1 23 0q16 -2 19 -2q12 0 26 8q4 3 7 13.5t6 13.5q13 5 34 21q25 36 25 95q0 47 -18 80q-12 7 -27 21v13q-14 11 -66 26t-76 15q2 0 -54 -14q-30 -2 -76 2q-56 5 -80 5q-5 -11 -13 -27h20q-2 -7 -7 -7q-15 0 -13 0q4 -32 4 -77q0 -28 -3 -96 q-2 -57 -1 -84zM173 509q0 -69 9 -135q14 0 59 -1h71q190 0 202 35q3 9 1 27q-2 21 -1 27q0 -1 2.5 -20l3.5 -27q36 68 61 108q-12 20 -34 68q-10 30 -20 40q-4 3 -68.5 25.5t-66.5 21.5q-1 0 -7 -10t-7 -10q-6 -2 -14 -2q-12 0 -32 4.5t-21 4.5q-59 5 -129 -14 q-9 -73 -9 -142zM196 -18q32 1 40 0q12 -1 13 -2q0 -1 -19 0q-18 0 -32 1t-2 1zM230 536q10 3 20 0q13 -1 14 -2q-12 0 -26 1q-26 1 -8 1zM323 599q0 6 3 6q8 0 8 -5q0 -4 -10 -9zM371 606q0 6 3 6q7 0 7 -5t-9 -10zM404 464q0 6 3 6q8 0 8 -5q0 -4 -10 -10zM405 395v8 q0 6 3 6q7 0 7 -5q0 -4 -10 -9zM425 94q-1 9 0 14q2 6 7 3q3 -1 3 -5q0 -8 -9 -22q0 -2 -1 10zM453 746q4 -2 13 -7q-1 7 -2.5 14.5t-10.5 5.5v-13zM492 214q0 6 3 6q8 0 8 -5q0 -4 -10 -10zM500 476q0 44 7 40q3 -2 3 -7q0 -11 -10 -33zM513 5q0 5 3 5q7 0 7 -5q0 -4 -9 -9 zM513 155q0 9 1 14t6 3q3 -1 3 -5q0 -7 -9 -22q0 -2 -1 10zM526 120q-1 6 3 6q8 0 8 -5q0 -4 -10 -10zM547 692l7 -14l1 11q0 3 -8 3z" />
<glyph unicode="C" horiz-adv-x="738" d="M-1 237q0 31 7 79q7 56 8 73t-4.5 45t-5.5 41q0 12 3 24q13 11 27 27q2 6 2 13q0 6 -2.5 19t-2.5 20q0 9 3 17h7l7 27q12 4 27 14q5 5 6 17.5t8 16.5q9 0 21 7v13q18 3 41 14q3 5 2.5 14.5t4.5 13.5q15 14 52 30q15 6 30 11h55l6 20q10 -1 28 0v-34q9 0 20 -7l7 21 q-20 10 -20 20q0 6 13 7q6 0 19.5 -7t15.5 -7q8 0 13.5 7t6.5 7q22 -9 48 -21q-1 -20 0 -20q9 -2 14 9t27 11q7 0 51 -25.5t45 -28.5q-2 -9 0 -21q9 -1 27 -7q7 -5 21 -29q17 -27 21 -32q8 0 20 -7q5 -7 5 -21t2 -20q0 -2 10 -14t10 -14q-1 -13 0 -41q-57 -19 -143 -7 q0 20 -7 55h-14q-8 3 -18 24.5t-16 23.5q-6 3 -17.5 0.5t-16.5 -0.5q-7 3 -20.5 17.5t-20.5 16.5q-18 5 -43 5q-44 0 -94 -13q-46 -12 -62 -26q-1 -8 -7 -20q-7 0 -21 -7q-5 -6 -7 -17.5t-6 -17.5q-13 -10 -28 -27q-3 -11 -1 -34q2 -25 1 -34l-13 -35q-2 -11 -2 -23 q0 -15 6 -58q5 -38 3 -63q-10 -135 0 -191q4 -24 14 -36.5l20 -25.5l32 -48q22 -28 43 -34q14 2 41 0q1 0 24 -9q17 -6 31 -6q7 0 14 1l20 14q8 1 14.5 -3.5t12.5 -4.5q3 0 8 1l47 27q12 7 45.5 43t37.5 46v14q12 5 30 5q12 0 30.5 -2.5t21.5 -2.5h48q2 -14 0 -41 q-13 -14 -28 -41q4 -9 0 -34q-5 -12 -55 -62.5t-61 -54.5q-14 0 -41 -7q-5 -9 -14 -20q-46 -19 -132 -19q-62 0 -94 12q-1 0 -3.5 6.5t-3.5 7.5q-11 3 -25 3h-9q-17 0 -27 4l-62 41v13l-53 44q-31 28 -43 52q1 10 0 28q-16 29 -34 75q-2 13 3 33.5t4 34.5q-7 30 -14 69 q-1 13 -1 26zM151 656q12 -3 12 2q0 10 -12 12v-14zM198 280q-1 6 0 10q0 4 3 4q7 0 7 -5q0 -6 -9 -16q0 1 -1 7zM199 88q0 17 3 55t3 47q0 -17 -3 -55t-3 -47zM204 66q0 9 4 9q7 0 7 -5q0 -6 -10 -17q0 -1 -1 13zM204 232q0 27 8 27v-55q-8 0 -8 28zM204 319q0 9 4 9 q7 0 7 -5q0 -6 -10 -16q0 -1 -1 12zM211 32q0 9 4 9q7 0 7 -6t-10 -16q0 -1 -1 13zM211 354q0 9 4 9q7 0 7 -6t-10 -16q0 -1 -1 13zM335 583q0 8 7 5q11 -5 11 -23q0 -7 -5 -7q-2 0 -6 2q-7 14 -7 23zM336 478h41l12 -1q-13 -1 -19 -1q-17 1 -31.5 1.5t-2.5 0.5zM506 408 q0 9 4 9q6 0 6 -5q0 -6 -9 -16q0 -1 -1 12zM534 375q-1 0 69 -7q-14 0 -47 3.5t-22 3.5zM622 401q1 13 8 9q3 -1 3 -5q0 -8 -10 -23q0 9 -1 19z" />
<glyph unicode="D" horiz-adv-x="889" d="M-1 -170q1 13 8 9q2 -1 2 -5q0 -7 -9 -21q0 9 -1 17zM0 -29q0 17 3 50q4 41 4 42q0 -17 -3 -50q-4 -41 -4 -42zM0 -95q0 43 7 40q2 -1 2 -7q0 -10 -9 -33zM6 91q0 13 1 20t6 5q3 -1 3 -7q0 -11 -9 -33q0 -3 -1 15zM6 341q-1 6 3 6q7 0 7 -5q0 -4 -9 -9zM6 374q0 6 3 6 q7 0 7 -5q0 -4 -9 -9zM6 514q-1 9 0.5 14t6.5 2q2 -1 2 -5q0 -7 -8 -21q0 -2 -1 10zM7 188q0 21 3 61q3 48 3 51q0 -19 -3 -60t-3 -52zM7 405q0 21 3 21q5 0 5 -5q0 -6 -8 -16zM20 451q1 3 0 7.5t0 5.5t6 0q6 -1 6 -5q0 -6 -12 -8zM103 540q0 1 2 3h20q6 25 8 64q2 49 5 68 q8 0 20 7q-10 7 -26 13v13q-3 8 -4 33q-2 31 4 46q0 1 9.5 6.5t9.5 6.5q17 -5 34 -9.5t35 -4.5q10 0 23 1l39 8q26 6 47 5q5 0 32 -10l27 -10q2 7 7 20q23 0 69.5 -3.5t61.5 -3.5q21 11 33 7q7 -2 43.5 -33.5t42.5 -32.5q2 0 10.5 4.5t14.5 4.5q4 0 8.5 -2.5t9.5 -17.5 q6 -18 9 -22q6 -7 23 -14t23 -12q47 -40 73 -178q0 -21 -7 -39q13 -42 13 -158q-11 0 -11 -3q1 -2 6.5 -4.5t6.5 -31.5q2 -25 -2 -40l-13 -20q-2 -10 -2 -22q0 -11 2.5 -34t2.5 -34q0 -16 -3 -28h-6q-7 -29 -27 -79q-2 -4 -9.5 -7t-9.5 -6q-1 -10 -7 -27q-17 -27 -77 -69 t-94 -49q-11 1 -33 0q-10 -9 -26 -20q-12 -2 -23 -2q-14 0 -45 6q-27 5 -44 3q-4 0 -24.5 -10t-28.5 -10q-3 6 -6 13q-7 0 -87 3q-46 2 -78 -3l-6 20q-11 2 -12 -11q-1 -2 -2 -2q-5 -1 -6 1q-1 1 0 5.5t0 6.5l-33 -7q-1 16 0 47q1 6 10.5 21.5t9.5 24.5q0 1 -10 13t-10 13 q-8 32 -8 86q0 40 8 144q5 70 -7 178q6 -3 14 -27v139q-3 20 -7 59q-22 -1 -22 3zM104 -23q0 27 8 27v-53q-8 0 -8 26zM111 301q0 9 7 6q3 -1 3 -5q0 -5 -9 -15q0 7 -1 14zM112 103q0 19 3 57q3 47 3 48q0 -20 -3 -57zM112 228q0 42 6 39q3 -1 3 -7q0 -11 -9 -32zM112 379 q0 43 6 39q3 -1 3 -7q0 -10 -9 -32zM118 -200h40q11 -1 12 -1q-13 -1 -19 -1q-16 1 -30 1.5t-3 0.5zM261 168q0 -38 5 -112q5 -68 4 -92q62 -12 122 -12q43 0 82 6l26 13q8 0 15 -4.5t18 -2.5q11 10 26 20q7 2 20 -2l13 -4v19l26 33h14q16 21 32 46q17 44 17 114 q0 18 -1.5 59t-1.5 64q-3 0 -2 1q0 2 8 6q0 -4 2 -4q1 0 5 10q-7 0 -8 7q1 6 1 13q-1 14 0 79q1 47 -6 79q-4 18 -35.5 67.5t-43.5 57.5q-7 4 -19 5q-15 0 -21 2q-11 9 -26 19q-23 5 -54 3q-41 -3 -45 -3q-45 2 -138 20q-31 -40 -31 -68q0 -20 11 -57h20q2 -2 2 -3 q0 -3 -10 -3q-6 -1 -12 -1q-3 -37 -13 -118q8 0 8 -10q0 -14 -8 -29q9 -55 0 -172q-2 -21 -2 -46zM283 438h20q13 -1 13 -2q-12 0 -25 1q-26 1 -8 1zM348 450q0 9 4 9q5 0 5 -5q0 -6 -8 -16zM420 23q0 8 4 8q6 0 6 -5t-9 -15q0 -1 -1 12zM426 298q0 17 8 15v-33q-8 0 -8 18z M428 70q0 -16 6 98q0 -16 -3 -53t-3 -45zM433 205q1 13 8 9q2 -1 2 -5q0 -7 -9 -21q0 9 -1 17zM434 254v9q0 5 3 5q7 0 7 -5q0 -4 -10 -9zM519.5 367.5q-0.5 7.5 0.5 9.5q1 4 6 2q3 -1 3 -4q0 -6 -9 -16q0 1 -0.5 8.5zM526 11q0 6 7 65q0 -74 -6 -74q-1 2 -1 9zM526 326v18 q0 12 7 9q2 -1 2 -5q0 -8 -9 -22zM539 129v14q0 9 7 6q2 -1 2 -4q0 -6 -9 -16zM545 178q-1 14 0 34q1 37 1 35v-52q-1 -11 -1 -17zM566 761l6 -14q0 1 1 10q0 4 -7 4zM572 668l7 -13q-1 2 0 10q1 3 -7 3z" />
<glyph unicode="E" horiz-adv-x="651" d="M0 639l20 47q-9 3 -20 13q-3 20 7 94q7 0 24 -3.5t23 -2.5q9 1 19 7t14 6q9 -1 19 -10t15 -10q14 -2 32.5 9t20.5 11q19 3 42 -4q28 -9 32 -9q15 -1 31 -1q29 0 80 5.5t77 5.5q42 0 81 -10h40q36 6 67 6q11 -73 -7 -141q-20 -2 -42 -2q-3 0 -119 9q-14 1 -38 -2 q-14 -3 -29 -5q-33 -2 -80 -2h-57q-56 0 -91 -4q0 -4 -6.5 -27t-6.5 -27q-5 -44 -5 -84q0 -57 11 -131q10 -2 35 -10q17 -5 25 -5q22 0 28 55v-53q24 -2 69 2q52 4 72 4t63.5 -4.5t65.5 -4.5q21 0 38 3l14 -114l-14 -14q-23 -8 -62 -8q-24 0 -79 4.5t-80 3.5q-8 0 -34 -6 q-5 0 -14.5 7.5t-18.5 5.5l-14 -13q-15 0 -31.5 5.5t-24.5 5.5q-10 0 -24 -5q-7 -8 -20 -20q8 -62 6 -94q-1 -9 -9 -56q-7 -43 -7 -68q0 -32 10 -50q11 -6 26 -20q73 8 134 8q55 0 75 -8l6 -14q7 -1 7.5 4t2.5 5q1 -1 4 -2q1 -9 6 -20q9 -1 21 0l6 33q37 2 87 0 q4 -1 7.5 -10.5t26.5 -9.5l7 20q22 -3 67 -6q-1 -2 -20 -21q0 -2 7 -15.5t6 -17.5q0 -1 -20 -7q-6 -40 13 -60q-4 -1 -19.5 -5.5t-24.5 -4.5t-16 3q-1 0 -4.5 7t-8.5 6q-3 -6 -7 -13q2 0 -30 -2q-20 -1 -30 2q-6 2 -6 6q0 2 1.5 5.5t1.5 4.5q0 6 -18 4v-13q-6 -1 -26 -7 q-12 -2 -29 -2q-16 0 -50.5 2.5t-51.5 2.5q-21 0 -37 -3q-1 1 -7 13q-10 0 -14 -6t-6 -7q-22 -6 -67 -6q-75 0 -161 13q-4 33 -4 75q0 30 3 90t3 90q0 25 -2 47q-14 188 0 369q2 27 -3.5 83t-3.5 78zM37 756q0 -7 10 -23q-2 1 1 10t3 12q0 8 -11 5q-3 -1 -3 -4zM154 538v9 q0 6 3 6q7 0 7 -5q0 -4 -10 -10zM240 55q0 27 8 27v-54q-8 0 -8 27zM241 442q-1 9 0.5 14t6.5 2q3 -2 3 -6q0 -7 -9 -21q0 -1 -1 11zM263 479q6 -1 12 -1q15 0 141 -7h-148q12 6 6 8q-5 1 -11 0zM342 579q47 3 50 5q-6 1 -43 1q5 0 -7 -6zM383 156q16 1 47 -3l40 -4 q-10 0 -34.5 1.5t-42 3.5t-10.5 2zM423 592q4 0 60 -7q-13 0 -42.5 3.5t-17.5 3.5zM436 485h20q13 -1 14 -2q0 -1 -26 0q-25 1 -8 2zM497 -86q3 -2 10 -13.5t10 -13.5q4 -3 4 3q0 21 -11 24h-13zM556 186q0 19 8 17v-34q-8 0 -8 17zM596 493q0 6 3 6q8 0 8 -5q0 -4 -10 -9z M604 511q0 44 7 41q2 -1 2 -7q0 -11 -9 -34z" />
<glyph unicode="F" horiz-adv-x="635" d="M-1 145q0 8 4 8q5 0 5 -5q0 -6 -8 -15zM6 190v24q0 17 7 14q2 -1 2 -6q0 -10 -9 -32zM12 173q0 5 3 5q6 0 6 -4t-8 -9zM12 772q-1 9 0.5 13.5t6.5 1.5q2 -1 2 -5q0 -7 -8 -20q0 -1 -1 10zM13 291q0 47 6 44q2 -2 2 -8q0 -11 -8 -36zM13 353q0 37 6 133q0 -24 -3 -70 q-3 -55 -3 -63zM13 561q0 47 6 44q2 -1 2 -7q0 -12 -8 -37zM18 701q0 6 3 6q7 0 7 -5q0 -4 -9 -9zM18 744q0 9 7 6q3 -1 3 -4q0 -5 -9 -15q0 7 -1 13zM19 536v8q-1 5 2 5q2 0 4.5 -1t2.5 -3q0 -4 -9 -9zM38 89h19q12 -1 13 -2q-12 0 -25 1q-24 1 -7 1zM82 794q29 1 37 0 l11 -1q0 -1 -17 -1q-16 0 -28.5 1t-2.5 1zM84 -34q0 13 4 36q5 27 6 37q0 -3 -3.5 11t-2.5 20q1 5 8 52q5 36 5 55q0 12 -4.5 53t-4.5 64q0 16 2 28l13 31q1 9 -6 34t-7 29q-3 38 -2 85q2 79 2 85q1 41 0 50q2 32 0 82l7 7q10 1 20 1q17 0 49 -5q29 -4 50 -3l32 13 q26 4 88 -6q5 -1 10.5 2.5t1.5 3.5q12 0 44 -4q28 -4 38 -2q1 0 8 6t11 6q40 2 94 -6l25 -13q6 1 11.5 10t7.5 9q8 2 16 -5t9 -7q12 -2 23 1q15 5 21 5q2 -5 -3 -11.5t-3 -7.5q21 -14 23 -25l2 -32h-31q30 -20 31 -25v-12q-109 -28 -314 -19l-13 12q-8 2 -49 0 q-45 -1 -58 -6q-3 -5 -12 -13q0 -50 -7 -106q16 -3 16 -5q0 -1 -3 -2q-21 -5 -13 -44q6 -5 13 -25q1 -15 -13 -57q0 -6 7 -37q25 0 69 -5q35 -4 56 -2q3 6 7 13q28 4 82 0l12 -13q19 -1 63.5 7t62.5 6v-13q5 -1 7.5 4t11.5 3q4 -5 12 -13q-2 -15 -6 -100q-61 0 -101 6 q-5 1 -10.5 -2.5t-1.5 -3.5q-13 2 -23 2q-14 0 -36.5 -4.5t-41.5 -4.5q-17 0 -68.5 3.5t-75.5 3.5q-11 -15 -26 -45q-6 -30 -6 -70q0 -28 4 -86t4 -87q0 -71 -20 -115q-8 1 -13 7t-6 6q-12 2 -49 -0.5t-52 0.5q-8 90 0 94q6 -2 19 0v12h-13q-1 7 -5.5 19.5t-4.5 27.5z M145 800q10 0 32 -3t24 -3q-11 0 -39 3t-17 3zM327 800h19q12 -1 13 -2q-28 1 -32 2zM340 479h18q12 -1 13 -2q-12 0 -24 1q-24 1 -7 1zM408 438q0 6 1 10l12 12q-1 -18 -6 -63q0 1 -3.5 16.5t-3.5 24.5zM419 790q0 3 28 10q2 -7 6 -19q-34 8 -34 9z" />
<glyph unicode="G" horiz-adv-x="853" d="M-1 259q0 19 8 17v-33q-8 0 -8 16zM-1 348q0 8 4 8q6 0 6 -5q0 -6 -9 -16q0 -1 -1 13zM0 110q0 19 3 57q4 44 4 49q0 -19 -3 -57q-4 -44 -4 -49zM6 81q0 9 1 13.5t6 2.5q3 -1 3 -6q0 -7 -9 -21q0 -2 -1 11zM6 378q0 6 1 9.5t6 1.5q3 -1 3 -5q0 -5 -9 -15q0 -1 -1 9z M6 426q0 9 1 13.5t6 2.5q3 -1 3 -6q0 -7 -9 -21q0 -2 -1 11zM32 463q0 6 3 6q8 0 8 -4t-10 -10zM90 348q1 1 3 1q7 -1 7 6v14q15 127 13 166q12 3 40 13v13q-10 4 -18 8t-8 10q0 5 6 22q3 8 20 18t20.5 15.5t12.5 36.5q6 23 20 29q7 3 23 3t23 4q4 2 -13 13q56 49 86 53 q15 2 28.5 -5.5t18.5 -7.5q17 13 39 27l7 -7h13q3 2 4 10.5t10 9.5q16 2 32 -4q11 -5 21 -9q18 2 53 0q29 -5 86 -47q14 -17 46 -46q15 -3 40 -20q-1 -10 0 -27q1 -2 10 -6.5t10 -6.5q25 -34 33 -66q-1 -11 0 -33q-14 -2 -33 -7q-1 -1 -3.5 -12.5t-22.5 -14.5l-27 14 q-8 0 -15 -4.5t-18 -2.5q-14 3 -43 49q-32 50 -42 56.5t-23 8.5q-19 3 -25 5q-45 15 -88 15q-126 0 -177 -107q-11 -22 -20.5 -97.5t-6.5 -115.5q0 -3 7.5 -28.5t6.5 -44.5l-14 -20v-13q-3 -31 0 -53l14 -13q2 -8 0 -26.5t0 -26.5q12 -16 26 -40q-1 -15 0 -47q45 -9 53 -20 q3 -14 13 -33q18 -8 60 0q29 -7 56 -7q66 0 123 47q68 57 68 173q0 15 -1 33q-27 9 -48 9q-17 0 -58 -9q0 -12 -3.5 -40.5t-3.5 -32.5v61q-3 15 -17 18q-28 4 -56 7v13q1 43 0 73v20q31 16 86 13q0 -7 7 -19q14 8 14 11q0 1 -1 2q5 2 13 20q8 0 19.5 3t14.5 3q9 -1 38 -15 q26 -12 41 -11q15 10 33 20q20 3 67 0q1 -4 0 -10q-1 -2 6 -4q-2 -11 -4.5 -17t-8 -8.5t-5.5 -4.5q0 -5 18 -9q0 -12 -6 -93q8 -4 8 -38q0 -25 -2 -42q-3 -24 -22.5 -79.5t-30.5 -72.5q-16 -12 -40 -40q0 -10 -6 -27l-67 -40q-4 -9 -13 -20q-11 -5 -30 -7t-30 -6 q-2 -1 -10 -10.5t-9 -9.5q-38 -11 -75 -11q-55 0 -151 38q-20 3 -60 20q-10 15 -33 40l-36 23q-24 15 -27 31q2 10 -3 32q-14 12 -34 40q-12 34 -13 90v89q2 46 -6 132q-10 10 -10 13zM272 236v9q0 5 3 5q7 0 7 -5q0 -4 -10 -9zM272 528q19 0 40 -7q-15 2 -32 4q-21 3 -8 3z M411 97v24q0 18 7 15q3 -1 3 -7q0 -10 -10 -32zM417 167q1 13 8 9q2 -1 2 -5q0 -7 -9 -21q0 9 -1 17zM510 62q0 9 4 9q6 0 6 -5q0 -6 -9 -16q0 -1 -1 12zM510 483q-1 6 3 6q8 0 8 -4t-10 -10zM517 457q0 6 3 6q7 0 7 -5q0 -4 -9 -10zM523 112q0 6 4 6q2 0 4.5 -1.5t2.5 -3.5 q0 -4 -10 -10z" />
<glyph unicode="H" horiz-adv-x="746" d="M0 -41q9 114 9 218q0 105 -9 222q-3 33 5 97q9 68 8 94l-13 25q-2 24 3 63q6 45 6 66q0 19 -3 37q5 6 13 13q9 3 47.5 5t41.5 1q5 -1 8 -12t4.5 -12t10.5 -4t9 -4q0 -4 -6 -24q-3 -13 0 -27q3 -5 7 -11q5 -9 5 -21q0 -6 -6 -30t-6 -27q0 -6 4 -14t2 -18q0 -1 -9 -9 t-10 -10q-1 -18 0 -19h13q0 -9 3 -20.5t3 -17.5q0 -1 -6.5 -12t-6.5 -14l13 -12q8 -28 13 -90q57 -2 115 -6q1 0 6 -9.5t6 -9.5q5 -1 22 8.5t23 10.5q18 3 44 -1q13 -3 26 -5q41 4 115 6q9 20 19 51q2 17 -3 48q-5 35 -5 48q0 22 8 38q8 4 8 8q0 3 -2 4q-16 11 -16 71 q0 20 3 31q1 4 14 16t12 29l-26 45q15 5 39 12q29 9 49 9q8 0 14 -2q2 -1 6.5 -9.5t6.5 -9.5q7 0 19 -7q1 -1 -3 -10t-4 -15q0 -4 1 -7l19 -6q-7 -21 -11 -112q-3 -84 -8 -86q9 -6 19 -19q2 -8 -7 -25q-2 -19 7 -89q-19 -10 -13 -64q6 -22 13 -51q1 -15 1 -31 q0 -29 -7 -86.5t-7 -92.5q0 2 3 24.5t3 32.5q-2 1 -2 5q0 7 9 21v-102q-1 -8 -7 -89q0 -2 -7 -21.5t-5 -36.5h12v-44q-6 -2 -6 -4q1 -5 0 -9q-2 0 -51.5 -7t-56.5 -6q-8 1 -22.5 18.5t-15.5 26.5q0 1 12 32q2 9 2 19q0 12 -4 34.5t-4 35.5q0 7 6 76q5 65 5 103q0 58 -11 76 q-1 2 -32 19q-10 1 -24 -7q-20 -12 -21 -12q10 1 -15 1t-35 -1q4 0 -9.5 3t-16.5 3q-35 -9 -51 -6q-13 6 -44 12q-17 0 -52 -5q-43 -6 -57 -7v-19q-1 -8 -6 -13q0 6 -7 32q0 -3 -6 -14t-6 -12q-2 -28 -2 -63q0 -36 3.5 -112.5t3.5 -113.5q0 -50 -5 -87l-29 -8q-20 -6 -35 -6 q-10 0 -19 2q-15 2 -32 6q-13 7 -15 24l-4 33q8 2 8 8q0 3 -3.5 10t-3.5 10q0 7 12 10v13h-13zM152 -30q0 17 7 15v-32q-8 0 -7 17zM158 86q0 8 4 8q6 0 6 -5t-9 -15q0 -1 -1 12zM158 452q0 5 3 5q7 0 7 -4t-9 -10zM159 112q0 20 3 58q4 45 4 50q0 -20 -3 -58q-4 -44 -4 -50 zM159 501v8q0 5 3 5q6 0 6 -4t-9 -9zM165 477q0 7 1 10t6 1q3 -1 3 -4q0 -5 -9 -15q0 -1 -1 8zM185 532q12 0 57 -6q-12 0 -40 3t-17 3zM254 -10q0 8 4 8q5 0 5 -5q0 -6 -8 -15zM255 475v9q-1 5 2 5q7 0 7 -5q0 -4 -9 -9zM261 23q0 5 7 64q0 -72 -6 -72q-1 1 -1 8zM280 118 q10 2 19 0q13 -1 13 -2q-12 0 -24 1q-25 1 -8 1zM287 220q10 0 32.5 -3t24.5 -3q-12 0 -40 3t-17 3zM312 297l6 -13q0 1 1 10q0 3 -7 3zM452 214h19q13 -1 13 -2q-27 1 -32 2zM580 -200h19q12 -1 13 -2q-28 1 -32 2zM655.5 -177q-0.5 9 0.5 12q1 6 6 3q2 -1 2 -5 q0 -7 -8 -20q0 1 -0.5 10zM662 -39q0 6 3 6q7 0 7 -4q0 -5 -10 -10q0 -1 0 8z" />
<glyph unicode="I" horiz-adv-x="288" d="M-1 165q1 13 8 9q2 -1 2 -5q0 -7 -9 -22q0 9 -1 18zM-1 504q-1 14 0 34q1 39 1 38v-55q-1 -11 -1 -17zM0 -71q0 51 7 48q3 -1 3 -8q0 -13 -10 -40zM0 195q0 44 7 40q3 -1 3 -7q0 -10 -10 -33zM0 473v9q0 6 3 6q7 0 7 -5q0 -4 -10 -10zM6 261q0 9 4 9q6 0 6 -5 q0 -6 -9 -16q0 -1 -1 12zM6 452q0 9 4 9q6 0 6 -5q0 -6 -9 -17q0 -1 -1 13zM7 -10q0 45 7 41q3 -1 3 -7q0 -11 -10 -34zM7 65q0 8 7 68q0 -77 -6 -77q-1 2 -1 9zM34 -84h27q3 32 -1 84l-6 86q-2 36 3 96q5 69 5 100q0 21 -1 42q0 4 -5 36q-5 29 -5 47q0 15 3 26l14 13 q2 10 2 21q0 22 -11 70t-11 77q0 25 6 50q4 15 16.5 21.5l24.5 12.5v20q-5 1 -27 6q-6 2 -6 6q0 2 2.5 15t3.5 28q4 2 7.5 -3.5t12.5 -3.5q4 1 20 16.5t28 17.5q16 3 39 -2.5t29 -17.5q7 -15 6 -100q-1 -78 -6 -118l-14 -34q0 -11 7 -18.5t7 -8.5q2 -12 -2 -46 q-5 -41 -5 -50q5 -39 7 -122q-2 -28 0.5 -92.5t-0.5 -97.5q0 -4 -9 -75q-6 -54 -5 -75l14 -41q2 -12 2 -23q0 -30 -16 -79q-73 -10 -136 7q0 56 7 102q-10 1 -27 7z" />
<glyph unicode="J" horiz-adv-x="654" d="M0 -59q5 2 13 7q1 1 7 13q13 -2 34 0q7 13 20 27q9 2 11 0q1 -1 0 -7q-1 -5 2 -7q2 2 6.5 -1l7.5 -5q4 9 20 27q1 -12 7 -27q29 -23 114 -23q46 0 67 9q21 21 47 34v13q10 3 27 14q4 5 6.5 20t6.5 20l13 7q1 7 1 18q0 13 -4 57q-4 40 -3 59q5 77 5 208q-1 152 1 208 q-6 -5 -6 40q0 80 6 94h21v20h26q-4 33 0 34q5 2 12 2q36 0 82 -22q-9 -63 -6 -108q8 0 8 -6q0 -4 -4 -10t-4 -4q-1 -4 -0.5 -7.5t-6.5 -5.5q0 -4 3 -18.5t4 -8.5q-1 -1 -7 -33q1 -12 9 -82q7 -56 4 -86l-13 -14v-13q-4 -39 0 -74l13 -13q2 -6 2 -16q0 -18 -7.5 -56.5 t-7.5 -48.5q0 -14 2.5 -45t2.5 -47q0 -27 -5 -49q-9 -10 -20 -27q2 -15 0 -40q-2 -5 -16.5 -14.5t-17.5 -12.5l-41 -56q-25 -31 -53 -45q-43 -21 -76 -21q-6 0 -9.5 1t-7.5 8t-14 6q-13 -1 -13 -7q0 -4 5.5 -12t5.5 -11q0 -7 -33 -7q-35 0 -78.5 10t-61.5 20q-55 32 -60 40 q1 13 -7 34l-33 13q-2 10 -7 27zM309 1h20q13 -1 14 -2q-13 0 -26 1q-26 1 -8 1zM322 -126v-14h14q-4 2 -3 8t-11 6zM443 760l7 -14q-1 2 0 11q1 3 -7 3zM549 30q0 6 3 6q8 0 8 -5q0 -4 -10 -10zM569 293q0 19 8 17v-33q-8 0 -8 16zM570 203v8q0 6 3 6q7 0 7 -5q0 -4 -10 -9 zM570 511v9q0 6 3 6q7 0 7 -5q0 -4 -10 -10zM576 258q0 6 3 6q8 0 8 -5q0 -4 -10 -9zM577 350v26q0 18 7 15q3 -1 3 -7q0 -11 -10 -34zM583 624q0 9 4 9q6 0 6 -5q0 -6 -9 -16q0 -1 -1 12z" />
<glyph unicode="K" horiz-adv-x="808" d="M-3 7q0 22 3 41l13 27q3 18 3 42q0 12 -9 113q-1 14 3 41t4 35q0 6 -1 11q-9 5 -9 9q0 2 3 4q2 43 6 40v128v20q0 -1 -4 15t-2 25q0 2 20 21q1 6 -6.5 22t-7.5 18v53q1 1 14 7q-1 5 -10.5 14t-9.5 13q-3 13 1 28t12 19q-8 14 -7 20q27 0 59 10q28 8 56 17q11 -5 26 -13 q0 -38 -3 -115q-1 -10 -3 -20q0 -2 -10 -26q-7 -18 -4 -34l20 -7q2 -11 3 -46q0 -35 -2 -35q0 1 -1 7q6 -6 7 -13q-11 -69 -11 -115q0 -49 11 -86h34q14 29 16 31q11 17 24 22q10 -1 27 0l6 14q-6 23 0 33q6 11 47 20q3 5 2 20q-2 25 -2 21q22 20 22 12q0 -3 -1 -6 q8 -1 13.5 -7t6.5 -6q7 -1 7 7q0 9 -7.5 19.5t-13.5 7.5q7 7 13 14t61 80v13q16 8 33 17.5t21 22.5q-2 11 0 27q15 4 33 13q4 16 14 41q4 5 16.5 7t16.5 6q20 52 20 54h34l13 -27h14q3 8 7 20q-21 6 -21 10v1q4 5 51 5q39 0 64 -2q-3 -4 -1 -10q2 -8 1 -11q-4 -9 -26.5 -21 t-26.5 -18t-4 -17q-1 -7 -4 -11q-14 -5 -33 -20q-2 -3 3 -7l5 -4l-2 -2q-12 -6 -22 -31q-13 -30 -18 -36t-17.5 -11t-16.5 -9q-8 -7 -14.5 -24t-11.5 -23l-61 -60q-43 -43 -47 -68q-4 -24 9 -38q17 -19 18 -22q2 -6 -0.5 -20t0.5 -21q12 -4 27 -20q-1 -8 0 -20q17 -7 40 -27 q4 -9 3 -29.5t4 -30.5q12 -4 27 -14q10 -13 19 -42l14 -45q-8 1 -8 -2q0 -2 2 -5h26q3 -16 14 -40q10 -3 20 -7q6 -11 10 -40t10 -40h7q10 -5 16 -17q10 -22 11 -23q11 11 13 6q4 -7 4 -20.5t3 -19.5q8 -3 20 -13l20 -54q-36 -4 -91 -4q-69 0 -77 11l-13 40q-1 4 7 27 q-44 31 -81 97l-60 118q-21 22 -44 61q1 8 -3 26q-9 4 -20 13q-5 9 -12 33q-5 20 -14 27.5t-21 8t-21 5.5q-11 -9 -56.5 -60.5t-50.5 -53.5q-8 2 -20 0q-4 -4 -4 -12q0 -11 -3 -15.5t-18 -10.5q-21 -9 -22 -9v-13l13 -7q0 -179 -13 -181q3 -7 13 -27q3 -16 0 -37l-6 -30 q-21 -2 -51 -9q-26 -6 -40 -6q-20 0 -44 8v13l-6 14q8 0 8 17q0 18 -8 16q0 27 -5 75.5t-5 71.5zM47 679q1 0 9.5 -9.5t12 -10.5t6.5 -1q7 -1 9 0q2 2 -10 8l-6 4q-15 7 -21 9zM140 611q0 9 4 9q6 0 6 -5q0 -6 -9 -16q0 -1 -1 12zM147 641q0 6 3 6q7 0 7 -5q0 -4 -9 -10z M180 570q0 4 8 2q12 -3 12 -12q0 -4 -5 -4q-2 0 -7 2q-8 8 -8 12zM234 520q0 7 3 7q8 0 8 -6q0 -4 -10 -10zM247 -62q1 13 8 10q3 -2 3 -5q0 -8 -10 -22q0 9 -1 17zM248 1v26q0 18 7 15q3 -1 3 -7q0 -11 -10 -34zM248 68v26q0 18 7 15q3 -1 3 -7q0 -11 -10 -34zM254 457 q0 8 4 8q6 0 6 -5q0 -6 -9 -16q0 -1 -1 13zM254 641q0 6 4 6q2 0 4.5 -1.5t2.5 -3.5q0 -4 -10 -10zM469 342q0 9 4 9q6 0 6 -5q0 -6 -9 -16q0 -1 -1 12zM489 301q1 13 8 9q2 -1 2 -5q0 -7 -9 -22q0 9 -1 18zM543 198q-1 7 0 10q2 4 7 1q3 -1 3 -4q0 -6 -9 -16zM650 601 q0 5 3 5q8 0 8 -4t-10 -10z" />
<glyph unicode="L" horiz-adv-x="798" d="M0 458q0 27 8 27v-54q-8 0 -8 27zM1 359q-1 7 0 10q2 4 7 1q3 -1 3 -4q0 -6 -9 -16zM1 628q-1 6 0 9q2 5 7 2q3 -1 3 -4q0 -6 -9 -16q0 -1 -1 9zM3 37q0 15 5 11q8 -6 8 -45q0 -18 -8 -15q-5 32 -5 49zM7 507q0 6 3 6q2 0 5 -1.5t3 -3.5q0 -4 -10 -10zM8 545v25 q0 18 7 15q3 -1 3 -7q0 -10 -10 -33zM13 343q0 3 9 1q3 -1 5.5 -5t1.5 -7t-7 -2q-9 9 -9 13zM44 202q0 9 11 7q23 -4 23 -21q0 -6 -11 -6q-5 0 -12 1q-11 2 -11 19zM58 276q0 7 11 7q2 0 2 -2q0 -5 -9 -18q-4 9 -4 13zM69 -32q8 -5 8 -19q0 -8 -8 -8q-6 31 0 27zM93 436 q1 1 3 2l13 33q-3 -1 -3 -7q0 -10 10 -33q-23 2 -23 5zM95 487q-1 6 0 9q2 5 7 2q3 -1 3 -4q0 -6 -9 -16q0 -1 -1 9zM108 87q0 9 4 9q6 0 6 -5q0 -6 -9 -16q0 -1 -1 12zM108 242q0 9 4 9q2 0 4 -1t2 -4q0 -6 -9 -16q0 -1 -1 12zM108 577q0 9 4 9q6 0 6 -5q0 -6 -9 -16 q0 -1 -1 12zM115 341q-1 13 0 33q1 38 1 37v-54q-1 -11 -1 -16zM115 520q0 6 3 6q7 0 7 -5t-9 -10zM115 634q-1 6 3 6q7 0 7 -5q0 -4 -9 -9zM116 277q0 43 6 40q3 -2 3 -8q0 -11 -9 -32zM136 1h20q13 -1 14 -2q-13 0 -26 1q-26 1 -8 1zM168 554q0 9 1 18q14 114 14 127 q-1 16 -8 32t-7 21q0 11 22 28q16 12 33 20h40q1 -1 7 -13q4 -1 47 -7q-9 -92 -9 -105q0 -35 9 -76q-7 -2 -9 -7t-4 -7q-12 8 -14 7q6 -28 14 -81q-4 0 -11 -3l-3 -10q4 -1 7 -1q5 0 6 8t7 6l7 -20q1 -13 -4 -45q-4 -36 -4 -54q0 -12 1 -22l14 -13q5 -20 0 -60 q-3 -20 -13 -67q-11 -51 -14 -54q2 -3 11 -14.5t9 -12.5q3 -10 -5.5 -31.5t-7.5 -22.5h13v-60q0 -3 -4.5 -25.5t-4.5 -36.5q0 -11 2 -19q9 -6 20 -20q19 0 61 -8q38 -6 47 -5q3 6 7 13h20v14q6 1 7 -1q0 -1 -1 -5q-1 -5 0 -8q8 -1 16 3t11 4q17 -1 19 -17q1 -8 1 -17h14 q-8 -22 -7 -26q13 0 27 6q2 4 2 9q0 8 -4.5 19.5t-4.5 12.5q17 -2 61 0q5 4 11 7q9 7 22 6q3 -6 7 -13q23 -1 62 -4q32 -3 52 -3q6 17 20 13q5 -1 5 -8t-5 -19l-7 -13q12 -14 14 -13q-7 -6 -20 -14q3 -6 6 -13h27v-27q-10 -10 -27 -20q-8 -2 -21 -2q-16 0 -53.5 4t-52.5 4 q-20 0 -72.5 -7.5t-80.5 -7.5q-15 0 -28 2q-21 5 -61 13q1 1 4.5 7.5t2.5 6.5q-8 1 -25 -9q-20 -11 -22 -11q-28 -5 -81 -5q-67 1 -70 16q1 9 -3 22q-3 3 -13.5 3.5t-13.5 3.5q-10 8 -11 29q-3 37 -3 38q6 2 24 4q11 1 23 10q2 8 7 20h-20q2 1 2 2q0 4 -22 4q5 -2 5 -14 q0 -11 -5 -12q-7 -2 -8 3l-1 5q-2 0 -5 -2v20q14 0 4 44t10 44v13l-14 13q-6 26 0 101q0 1 8 49q7 44 6 45l-14 14v53l21 7q1 -1 4 -7.5t9 -6.5v61q-7 3 -14 1q-7 -3 -13 -1q1 12 4 36.5t3 30.5q0 12 -7.5 47t-7.5 56zM223 203q2 -5 7 -20q45 7 45 8q0 -3 -38 18q3 -1 4 -2 q0 -3 -18 -4zM243 283q12 0 12 10t-12 10v-20zM257 -113l6 -13q0 2 1 10q1 3 -7 3zM330 -140q15 -3 21 -6q-3 3 -3 6q0 2 1 5.5t1 4.5q0 4 -13 4zM408 -53q0 9 10 7q7 -1 7 -7q0 -9 -14 -13q-3 8 -3 13zM647 -119q0 -5 12 -7q-1 2 0 6.5t0 5.5q-1 2 -6 1q-6 -1 -6 -6z M693 -140q17 0 27 -6q-5 4 -5 9q0 3 1.5 7t1.5 5q0 6 -18 6q-3 -8 -7 -21z" />
<glyph unicode="M" horiz-adv-x="950" d="M0 136q0 6 10 66q6 44 4 76q-1 11 -6 42q-4 26 -4 42t3 31l13 21q2 20 -2 53q-5 39 -5 55q0 10 1 20q0 4 9 29q6 21 4 32l-20 21q-2 13 5 24q8 15 8 16q4 24 -6 109q19 -3 39 -7q23 -3 35 0q4 1 10.5 13.5t9.5 13.5q14 -1 41 0q-4 0 -4 -1q0 -2 11 -6q2 -5 2 -10 q0 -6 -4 -16t-5 -14q20 -17 23 -20q8 -8 18 -28q17 -28 40 -81q-1 -12 0 -34q2 -5 14.5 -14t13.5 -13q-2 -10 0 -27q-4 -2 -13 -4q-4 -1 -8 -10q8 1 14 1q40 0 40 -43q0 -16 -6 -39q11 -7 23 -13q13 -9 13 -18q0 -10 -16 -23q19 -11 41 -34q-2 -10 0 -27q12 -7 27 -20 q5 -12 5.5 -46.5t0.5 -35.5q10 -2 21 -7q2 -3 7 -23q4 -14 13 -17q14 2 41 0q10 8 20 20q4 9 4 27t3 27q11 14 27 41q-1 10 0 27q13 11 27 27q4 9 4 25t3 23q20 26 47 67q4 9 4 24.5t3 23.5q1 1 7.5 3.5t6.5 3.5q-2 11 0 27l27 6q4 12 3 38t4 37h6q4 2 8 17.5t7 17.5t16 0 t17 -1q3 6 13 13q-2 3 -5 8t-3 9q0 2 2 4q6 3 13 7l-2 1q0 -1 29 -1q23 -20 24 -20l17 33q-13 -2 -34 0q-6 3 -6 11q0 10 6 23q-7 5 -18 5q-19 0 -23 -12l7 -27h-13q3 48 7 57q2 2 40 38q17 -2 47 -7q0 -9 7 -20q3 -1 6 -1t11 5t17 3q11 -9 27 -21q-5 -13 -20 -47 q-5 1 -12 7t-8 6q-4 1 -8 1q-7 0 -15.5 -3.5t-10.5 -3.5q4 -3 5 -11q0 -13 1 -16q25 -2 61 -14q-8 -73 -9 -75q-6 -12 -52 -27v-27q30 -14 61 -34q2 -6 2 -15q0 -12 -4 -31t-4 -21h-21q2 -9 0 -21q11 -5 27 -13v-75h-13q-4 -4 0 -20q17 -11 17 -141q0 -67 -4 -117 q0 -6 -7 -54q-7 -42 -6 -54q1 -11 7 -18t6 -9q3 -13 3 -28q0 -20 -6 -47q-10 -38 -10 -40q-40 -11 -57 -11q-16 0 -25 15q-15 23 -33 36l-21 7q-3 9 7 20q2 11 2 21q0 11 -3 27.5t-3 24.5q0 11 4 22q9 0 9 3q0 2 -2 4l-14 14q2 7 7 40q12 7 14 7q6 0 -21 20q1 1 0 21 q0 -4 -1 -4q-2 0 -5 10q2 44 6 109q0 7 8 44q6 34 6 44q-8 36 -20 102q-12 -6 -28 -21q-5 -9 -6 -30t-7 -31q-2 -4 -14 14q-8 -10 -20 -27q-6 -14 -13.5 -47.5t-13.5 -47.5q-14 -17 -34 -48q-3 -10 -3 -30.5t-4 -30.5h-13q-4 -22 -21 -67q-9 -5 -20 -14q1 -9 0 -20 q-5 -3 -47 -7q15 -10 27 -14v-13q-74 -7 -78 -7q-45 0 -58 20q-6 10 -11 43q-6 37 -9 46q-13 14 -27 40q-1 9 4 18.5t3 15.5q-2 3 -28 7q-16 54 -52 131q-44 93 -56 126h-14q-1 -2 -7 -10.5t-6 -9.5q-13 -49 -7 -176q0 -4 3.5 -13.5t3.5 -6.5q-4 -11 -6 -11q-1 1 -1 4v-17 q0 -7 7 -10q-2 -20 0 -61q-15 -27 -14 -34q7 -3 14 -7q0 -165 -14 -217h-20q-37 -24 -60 -24q-21 0 -62 24v20q3 11 5 43q2 26 3 47q-1 3 -1 5q7 24 7 48q0 17 -9 67q-8 44 -5 82zM43 562q1 -2 2 -2q3 0 9 3q19 21 12 21q-2 0 -4.5 -1t-10.5 -9.5t-8 -11.5zM75 624l33 -27 q-1 5 -6 13q-9 4 -27 14zM100 -160q0 -4 22 -9q-3 2 -3 6q1 5 0 6q-2 3 -11 1q-8 -1 -8 -4zM182 289q0 3 8 3q9 0 9 -3t-16 -11zM224 441l6 -20q3 -2 7 -2q9 0 9 7q0 10 -22 15zM224 563l6 -21q1 -5 1 14q0 7 -7 7zM312 -81h40q12 -1 13 -1q-14 -1 -19 -1q-17 1 -31.5 1.5 t-2.5 0.5zM380 -60q3 0 6 -1q8 -2 8 -10q0 -5 -8 -3q-14 14 -6 14zM419 231q1 10 8 7q2 -1 2 -4q0 -7 -9 -17q0 7 -1 14zM461 305q0 -1 0 9q0 6 3 6q7 0 7 -5q0 -4 -10 -10zM500 392q0 9 4 9q7 0 7 -5q0 -6 -10 -16q0 -1 -1 12zM535 129q8 -3 12 -3q6 0 6 4q0 15 -18 19 q1 -5 0 -20zM549 509q5 37 7 27q3 -12 6 -34q-6 3 -13 7zM561 -35q0 9 4 9q7 0 7 -5q0 -6 -10 -16q0 -1 -1 12zM568 -165q1 12 8 9q7 -13 14 -20l-21 -7q0 9 -1 18zM638 -60q3 0 7.5 -1t25.5 -6q0 -7 1 -15q-1 -9 -8 -6v14q-4 1 -10 -0.5t-10 0.5q-13 14 -6 14zM640 80 q0 4 4 2q15 -10 15 -25q0 -4 -2 -4t-5 1.5t-7.5 11t-4.5 14.5zM663 208q1 13 8 9q2 -1 2 -5q0 -7 -9 -22q0 9 -1 18zM670 127q1 13 8 9q3 -1 3 -5q0 -8 -10 -22q0 9 -1 18zM670 -164q0 9 4 9q6 0 6 -5q0 -6 -9 -16q0 -1 -1 12zM671 224q0 51 7 47q3 -1 3 -7q0 -13 -10 -40z M676 -124q0 18 8 16v-34q-8 0 -8 18zM677 158q0 6 3 6q7 0 7 -5t-9 -10zM717 -170q0 8 8 8q17 0 17 -16q0 -15 -17 -11q-8 0 -8 19zM813 -20l7 -27q4 0 20 7l-6 20h-21zM820 163q1 -15 7 -34q2 -2 5 -2q7 0 15 9q-9 11 -20 27h-7z" />
<glyph unicode="N" horiz-adv-x="926" d="M-2 -75q0 13 2 24q10 12 20 33l-13 14q-1 4 -1 8q0 6 4.5 17t3.5 22l-14 7v68q7 94 7 317q0 8 3 79q1 41 -3 70q1 20 0 54q4 2 6 1v-1q0 1 1 7q1 7 -7 27q4 2 12 24.5t8 29.5l-13 6q-5 11 -5 27q-1 21 -2 27q2 0 13.5 3.5t20.5 3.5q1 0 19 -6.5t21 -6.5q8 10 27 20 q31 2 47 -14q-1 -11 0 -27q10 -1 21 -6q3 -7 2.5 -20.5t3.5 -20.5q10 -4 21 -13q-2 -12 0 -34q16 -36 54 -54h7q-2 -10 0 -27q13 -2 27 -7q4 -8 3.5 -26.5t2.5 -27.5q1 0 21 -16.5t20 -17.5q6 -19 27 -54q2 -2 -3 -6.5t-5 -8.5q0 -3 1.5 -6t9.5 -5t10 -8h14q0 -2 0 17 q0 7 7 10q0 -3 -1 -29q-1 -19 0 -29q2 -15 7 -23q12 -4 27 -13q3 -6 3 -20t3.5 -20t20.5 -16t21 -19q6 -14 0 -40v-14h20q45 -83 74 -94q8 2 21 0q13 19 27 47q0 4 -7 12q-3 4 -7 8q-5 21 -3 61q4 49 3 61q3 66 0 203q-1 11 -4 28t-3 25q0 23 21 41q-25 33 -21 34q8 1 34 54 q-31 25 -31 58q0 14 4 43q3 1 13 0q5 0 7 7h48q28 0 47 -7q1 0 5 -6t8 -7q2 -13 1 -58q-1 -37 6 -57q0 -1 7 -4.5t7 -8.5q0 5 -12.5 -17.5t-8.5 -50.5q7 -3 14 -7q-1 -43 -7 -148v-61q-1 -1 -13 -7v-13q7 -3 7 -7q-1 -12 -1 -14q8 2 8 -16t-8 -18q9 -31 9 -55q0 -17 -9 -73 q3 -17 7 -47q0 2 -1 2q-3 0 -6 -22h14q-3 -16 -14 -61q-7 3 -11 3q-6 0 -6 -6q0 -18 17 -24q0 -10 2 -42.5t2 -49.5q0 -52 -17 -57q-5 -1 -5 -3q0 -5 25 -10q-3 -2 -6 -21q-3 -15 -21 -20q-11 -3 -29 -3q-57 0 -86 17q-13 8 -13 18q0 7 9.5 20t10.5 16q-32 6 -67 33 q-2 57 -7 54q3 -2 3 -4q0 -4 -17 -2q-2 6 -6 13h-7v20l-27 41q-34 45 -95.5 136t-93.5 134q0 -11 -3.5 -37.5t-3.5 -29.5q0 106 -34 155q-11 7 -27 20q-1 9 -7 27q-3 6 -20.5 16.5t-19.5 17.5v14q-9 2 -21 6q-3 -100 -13 -297q-10 3 -10 -8q0 -5 2 -15t2 -13t-1 -4 q8 0 8 -27t-8 -27l14 -55l-21 -6q-1 -2 0 -21q7 1 8 0q0 -1 -1 -5q-1 -5 0 -8q7 -18 7 -33q0 -7 -4.5 -31t-2.5 -44q0 -3 8 -21.5t8 -32.5q0 -7 -2 -14q-6 -3 -14 -13q-5 1 -63 2q-40 2 -58 11q7 20 7 22v1q0 -1 -1 -2q-1 7 -3 6q-6 -1 -10 0q-1 11 -6 40q-3 24 -3 38z M95 746h40q-2 1 -2 2q0 5 9 18h-47v-20zM216 482h14q-4 2 -3 8t-11 6v-14zM283 122q0 9 1.5 14t6.5 2q2 -1 2 -5q0 -7 -9 -22q0 -2 -1 11zM290 81q-1 9 0 13q2 6 7 3q3 -1 3 -5q0 -8 -9 -22q0 -1 -1 11zM290 207q0 6 3 6q7 0 7 -5q0 -4 -9 -9zM290 599q-1 6 3 6q7 0 7 -5 q0 -4 -9 -9zM297 50v9q0 6 3 6q2 0 4.5 -1.5t2.5 -3.5q0 -5 -10 -10zM358 368l7 -14q-1 2 0 10q1 4 -7 4zM384 459q0 19 8 17v-34q-8 0 -8 17zM385 104q0 -1 0 9q0 6 3 6q7 0 7 -5q0 -4 -10 -10zM390 516q0 27 9 27v-54q-9 0 -9 27zM391 782q-1 6 3 6q8 0 8 -5q0 -4 -10 -10 zM398 61q-1 9 0 13q2 6 7 3q3 -1 3 -5q0 -8 -9 -22q0 -1 -1 11zM432 699v9q0 5 3 5q7 0 7 -5q0 -4 -10 -9zM506 603q0 9 4 9q6 0 6 -5q0 -6 -9 -16q0 -1 -1 12zM533 370q-1 6 3 6q8 0 8 -5q0 -4 -10 -10zM553 518q0 6 3 6q8 0 8 -5q0 -4 -10 -10zM742 778q0 9 4 9q6 0 6 -5 q0 -6 -9 -16q0 -1 -1 12zM750 341q0 3 7 67q0 -76 -6 -76q-1 1 -1 9zM843 656q0 18 8 16v-34q-8 0 -8 18zM844 250q-1 9 0 13q2 6 7 3q3 -1 3 -5q0 -8 -9 -22q0 -1 -1 11zM850 92q0 6 3 6q8 0 8 -4t-10 -10zM850 298q1 13 8 9q3 -1 3 -5q0 -8 -10 -22q0 9 -1 18zM850 346 q0 9 4 9q7 0 7 -5q0 -6 -10 -16q0 -1 -1 12zM850 620q0 6 3 6q2 0 5 -1.5t3 -3.5q0 -4 -10 -10zM851 476q0 19 3 55q4 42 4 46q0 -19 -3 -55q-4 -42 -4 -46zM857 377q0 6 3 6q8 0 8 -5t-10 -10z" />
<glyph unicode="O" horiz-adv-x="846" d="M0 267q4 2 13 6q-3 42 0 127q13 1 34 7q-2 10 2 17t4 9q-7 -2 -7 3q0 16 1 11q-4 -2 -4 2q0 17 30 24v7q-19 -3 -60 -13q0 14 7 40q9 3 20 13q3 11 -7 60v20q4 3 16 1q14 -2 18 -1q10 9 26 20q0 7 2.5 30.5t4.5 22.5v14q3 2 6 2t7.5 -2.5t6.5 -2.5q4 0 7 3q2 14 13 33 q2 1 5 1q4 0 9 -4t6 -4q30 30 60 47v13q14 4 44 2q27 -3 43 5h6l7 -20h20q-4 2 7 13q-3 1 -20 6q-13 3 -13 6q0 4 13 8q19 7 26 7q27 2 50 -8l37 -19v-13q9 -3 23.5 5.5t26.5 8.5q5 0 10.5 -1t11.5 -13t9.5 -14t14.5 -2.5t17 -3.5l-4 -14q-1 -3 4 -6v-7q12 1 34 0l60 -53 q-2 -6 -7 -13l-31 -12l6 -7.5t12 -20.5q8 4 20 6v14q4 1 7 1q5 0 10.5 -4.5t8.5 -3.5q9 -22 20 -60q2 -20 -3 -51q-5 -36 -5 -48q0 -11 2 -21q10 -13 20 -33q1 -13 -3.5 -34t-4.5 -32q0 -7 1 -14q6 -3 13 -7q-1 -11 -1 -21q0 -11 2 -29t2 -28q0 -14 -3 -29q-10 -14 -20 -33 q-2 -19 6 -38q8 -22 8 -35q0 -15 -9.5 -48.5t-17.5 -45.5l-6.5 -2.5t-6.5 -3.5q-4 -9 -4 -24.5t-3 -22.5q-6 -13 -24 -26q-26 -18 -29 -21q-8 -15 -27 -40q-22 -19 -51 -29q-8 -3 -62 -17l-14 -14q-83 -18 -127 -18q-24 0 -39 5q-5 2 -9 13.5t-5 13.5q-15 1 -60 0 q-7 15 -20 33q-16 -3 -46 0q-7 11 -20 27q-45 37 -54 49q-12 15 -33 71q-12 18 -27 53q-2 9 -2 20q0 16 5 47q5 28 4 40q-7 31 -20 100zM127 173h13l13 -33q4 -14 6 -46t8 -46.5t27 -33.5l33 -27q-3 -13 -7 -27q24 1 53 0q1 0 7 -20q60 -7 85 -7q32 0 55 7q10 12 27 27 q11 -2 33 0q2 1 34 35.5t33 37.5q-1 12 0 33q0 1 13 7q0 28 4.5 69t4.5 61q0 19 -2 37q8 0 8 7q0 5 -4 13t-4 6q2 27 0 53t0 47l13 14l-7 106q0 1 -9.5 10t-10.5 10q-33 77 -74 108q-49 38 -132 32l-14 -13q-7 -1 -32 0q-19 1 -34 -7q-4 -9 -14 -20h-33q-9 -20 -33 -60 q-9 -4 -20 -13q-16 -36 -27 -227q-1 -10 1.5 -23.5t2.5 -16.5q0 -12 -11 -20q17 -35 17 -40q0 -8 -23 -40zM178 673q0 -9 15 -13q6 -2 14 0v27q-21 0 -27 6q2 -4 0 -10q-2 -8 -2 -10zM239 295q0 6 3 6q8 0 8 -5q0 -4 -10 -9zM247 327q0 50 6 46q3 -1 3 -8q0 -13 -9 -38z M253 240v9q0 5 3 5q7 0 7 -5q0 -4 -10 -9zM253 475q0 6 7 5q30 -2 30 -16q0 -8 -12 -8q-8 0 -16.5 4t-8.5 15zM259 135q0 6 3 6q8 0 8 -5q0 -4 -10 -9zM266 529q0 5 3 5q7 0 7 -5q0 -4 -9 -9zM279 89q-1 6 3 6q8 0 8 -5q0 -4 -10 -10zM313 587v8q0 6 3 6q7 0 7 -5 q0 -4 -10 -9zM346 335q-1 6 3 6q7 0 7 -5q0 -4 -9 -9zM353 353q0 18 3 52q4 40 4 42q0 -17 -3 -51q-4 -41 -4 -43zM359 469q-1 6 3 6q8 0 8 -5q0 -4 -10 -10zM365 171q0 18 8 16v-34q-8 0 -8 18zM419 82q0 7 3 7q8 0 8 -6q0 -4 -10 -10zM659 669q-1 6 3 6q8 0 8 -5 q0 -4 -10 -10zM727 607v8q-1 6 2 6q7 0 7 -5q0 -4 -9 -9zM752 99q0 9 4 9q6 0 6 -5q0 -6 -9 -16q0 -1 -1 12zM766.5 495.5q-0.5 7.5 0.5 9.5q1 4 6 2q3 -1 3 -4q0 -6 -9 -16q0 1 -0.5 8.5zM766.5 548.5q-0.5 7.5 0.5 9.5q1 4 6 2q3 -1 3 -4q0 -6 -9 -16q0 1 -0.5 8.5z M772 149q0 6 3 6q2 0 5 -1.5t3 -3.5q0 -4 -10 -10zM773 227v8q0 6 3 6q7 0 7 -5q0 -4 -10 -9zM773 467v8q0 6 3 6q7 0 7 -5q0 -4 -10 -9zM773 520v9q-1 5 3 5q7 0 7 -4t-10 -10zM779 194q0 26 8 26v-53q-8 0 -8 27zM779 372q0 9 4 9q6 0 6 -5q0 -6 -9 -16q0 -1 -1 12z M785 338q0 17 8 15v-33q-8 0 -8 18z" />
<glyph unicode="P" horiz-adv-x="821" d="M-1 11q0 9 4 9q6 0 6 -5q0 -6 -9 -16q0 -1 -1 12zM-1 455q1 13 8 9q2 -1 2 -5q0 -7 -9 -22q0 9 -1 18zM0 53q0 -5 7 76q0 -84 -6 -84q-1 1 -1 8zM0 225v9q0 5 3 5q7 0 7 -5q0 -4 -10 -9zM0 499v9q0 5 3 5q7 0 7 -5q0 -4 -10 -9zM5 576q0 19 9 46q7 1 27 7q4 2 4 -2 l-11 -26q-21 1 -20 0q-3 -6 -1 -20q3 -15 1 -21q-9 0 -9 16zM6 261q0 6 3 6q8 0 8 -5q0 -4 -10 -10zM7 163q0 52 7 48q3 -1 3 -8q0 -13 -10 -40zM13 420q0 3 8 3q9 0 9 -3q0 -5 -16 -10zM13 549q-1 6 3 6q8 0 8 -5q0 -4 -10 -10zM60 -18q0 1 2 3h20q7 11 14 27 q1 11 -6.5 50.5t-7.5 45.5q-1 21 4 45q6 29 17 31q1 0 1 2q0 4 -8 18q-10 -6 -10 40q0 35 5.5 74t11.5 44l7 6q-8 8 -28 14q15 84 15 219q0 62 -8 69l14 14q-8 1 -8 4q0 2 21 9q0 -9 7 -20q3 -1 13 0q10 2 10 5q0 1 -2 2h27v95h14v14q19 1 19 -7q0 -3 -5 -11.5t-5 -11.5 q0 -5 11 -4q12 1 49 20q34 18 61 14q32 -5 24 -22q-9 -20 3 -26q3 -1 38 2.5t38 4.5q5 10 14 21q9 2 14 -6t6 -8q33 9 69 20q2 1 1.5 9.5t4.5 11.5q2 -3 7 -34q17 5 17 13q0 4 -3 7q4 2 19.5 -7t28.5 -6q8 6 20 13q-5 -27 -5 -32q0 -27 33 -29q7 0 7 4.5t7 2.5l6 -14 q-10 8 -10 -2q0 -7 4 -19q29 -7 75 -27q4 -9 14 -21h6q9 -15 6 -37q-4 -25 1 -38q13 -5 28 -14q3 -21 7 -55q-17 -6 -21 -13q-5 -19 -6.5 -51.5t-7.5 -51.5q-2 -6 -41 -68q-17 -27 -35 -41q-10 -8 -47 -28q-21 -17 -62 -41q-11 -3 -24 -3q-9 0 -26.5 2t-24.5 1l-14 -14 q-10 -2 -23 -2q-17 0 -46 4.5t-33 4.5q-40 2 -144 -14q-7 -5 -14 -13q-3 -11 -6 -114q-2 -98 -1 -112l14 -28q0 -11 -7 -18.5t-7 -8.5q2 -37 0 -96q-30 0 -69 3q-50 3 -68 4v171q-22 -1 -22 4zM61 672q0 6 3 6q7 0 7 -5t-9 -10zM68 416v9q0 6 3 6q7 0 7 -5t-10 -10zM78 744 q0 12 11 8q3 -1 10 -10.5t7 -15.5q0 -4 -5 -4q-4 0 -12 3q-11 4 -11 19zM102 776q0 3 8 3q9 0 9 -3q0 -5 -16 -10zM116 348q15 4 48 7q1 10 7 20q12 -23 21 -20v13q11 -2 12 2q1 1 -1 9q-1 7 2 10q8 0 -41 2q-31 2 -41 -2l-7 -14v-27zM120 624q0 -10 6 -10q2 0 4.5 1.5 t4.5 11t2 16.5q-1 8 -7 6q-10 -4 -10 -25zM123 725q1 2 0 10q-1 3 7 3q9 0 9 -3q0 -6 -16 -10zM199 629q3 -3 10 -1t10 1q18 -7 14 -69q0 -6 -5 -51q-4 -37 -4 -59q0 -16 2 -27l8 -12q7 -11 6 -15q-13 -8 -28 -21q3 -6 0 -20l28 -28l23.5 3l31.5 4q14 -14 20 -13q3 6 7 13 q23 0 69 -7t64 -7q10 0 18 1q3 0 14 9.5t13 10.5q16 -2 48 0q25 8 53 39q24 28 35.5 57t11.5 60q0 22 -8.5 67.5t-9.5 71.5q-18 4 -36 7q-24 6 -32 13q-4 4 -4 17t-3 17q-68 -13 -100 -13q-30 0 -51 7q3 8 7 20q5 -2 6 -2t0 3q-2 5 1 6q-4 1 -28 9q-19 7 -30 7 q-6 0 -11.5 -2.5t-3.5 -12.5l4 -22q-9 1 -10.5 6t-2.5 8q-5 1 -24 -5q-12 -5 -24 -9l-7 -20q7 -1 20 -7h-68q-2 4 -4 17q-1 4 -10 10q2 -12 0 -34l-20 -7v-20zM417 596q0 6 3 6q8 0 8 -5q0 -4 -10 -9zM432 499q0 12 3 39t3 29q0 -10 -1.5 -34.5t-2.5 -36.5q-1 -14 -2 3z M520 458q-1 6 0 10q0 4 3 4q7 0 7 -5q0 -6 -9 -16q0 1 -1 7zM521 738l6 -20q4 -1 7 -1q6 0 6 4q0 13 -19 17zM527 499v9q0 5 3 5q7 0 7 -5q0 -4 -10 -9zM540 559q0 9 4 9q7 0 7 -5q0 -6 -10 -16q0 -1 -1 12zM603 718q0 -1 4 -7t3 -7h13q14 -5 14 9q0 11 -21 12q3 -2 4 -4 q0 -3 -17 -3zM637 608q19 -13 14 -13h20q-2 1 2 12q2 8 5 15q-11 2 -27 7z" />
<glyph unicode="Q" horiz-adv-x="850" d="M0 115v148q4 67 13 195l-13 6q3 28 13 94q3 18 34 68q10 5 20 13q-2 8 0 20q15 9 40 27v20q22 6 54 20q0 9 7 20q4 2 14 0.5t13 -0.5q2 -9 13 -27q-3 4 7 14q4 11 -7 20q7 9 20 20q10 -1 27 0l7 14q29 10 74 13q42 2 100 -20l7 -14q3 0 11 4t16 3l33 -20q12 2 34 0 l33 -40q6 -4 17.5 -4t17 -3t38.5 -51t35 -56q-2 -11 0 -34q0 -1 10 -6.5t10 -6.5q2 -12 -2.5 -30.5t-4.5 -23.5l14 -7q-4 -30 -4 -66t6 -107.5t6 -106.5q0 -26 -2 -49l-13 -26q2 -25 0 -74q-7 -23 -20 -74q11 2 20 -7q-4 4 -7 4q-7 0 -6 -24q21 -12 53 -40q0 -8 7 -20 q11 2 27 0q4 -3 7 -17t6 -17q-34 -32 -53 -67q-22 0 -61 7q-6 3 -11.5 16.5t-9 16.5t-33.5 18.5t-33 15.5q-19 0 -50 -23q-38 -28 -44 -31q-60 -26 -147 -26q-85 0 -142 26q-11 11 -33 27q-19 3 -54 20v14q-2 7 -18 17q-19 12 -22 16q-18 22 -43 75q-29 63 -24 86 q0 1 10.5 10t10.5 14q0 3 -28 16zM134 176q0 -12 8 -60.5t12 -60.5t21.5 -38t25.5 -29q6 2 20 0q3 -2 4 -10.5t3 -9.5q6 -4 17 -4t17 -3q11 -12 33 -27q11 -3 23 -3q19 0 44 7l34 10q12 -2 34 0q17 9 17 25q0 18 -22 43q-18 20 -36 32q-10 0 -27 7q-6 5 -7.5 16.5t-5.5 17.5 q33 28 67 60v13q8 -1 20 0q49 -24 54 -40v-13q9 -7 27.5 -11.5t26.5 -8.5q9 17 20 47q2 11 -7 73q14 7 14 89q0 67 -8.5 144t-18.5 96q-5 10 -24.5 23.5t-22.5 17.5q-2 1 2 7l4 6q-71 53 -100 54q-5 0 -8.5 -4.5t-11.5 -2.5v13h-41l-13 -13q-10 -3 -33 -3t-32.5 -3.5 t-22.5 -15.5q-17 -16 -20 -18q-66 -47 -73 -124q-4 -92 -7 -185q0 1 -4.5 -15t-2.5 -25l14 -20q1 -10 -6.5 -30t-7.5 -24zM228 236v29q0 21 7 18q3 -1 3 -7q0 -13 -10 -40zM234 202q0 8 4 8q6 0 6 -5q0 -6 -9 -16q0 -1 -1 13zM234 401q0 19 8 16v-33q-8 0 -8 17zM234 446 q0 6 3 6q8 0 8 -5q0 -4 -10 -9zM240 491q0 27 8 27v-54q-8 0 -8 27zM241 117q0 6 3 6q7 0 7 -5q0 -4 -9 -9zM335 287q-1 9 0 13q2 6 7 3q3 -1 3 -5q0 -8 -9 -21q0 -2 -1 10zM335 393q-1 6 0 9q2 5 7 2q3 -1 3 -4q0 -6 -9 -16q0 -1 -1 9zM341 240q0 19 8 16v-33q-8 0 -8 17z M341 426q0 6 3 6q8 0 8 -5q0 -4 -10 -10zM349 471q0 -1 0 9q0 6 3 6q7 0 7 -5q0 -4 -10 -10zM751 84q0 6 3 6q7 0 7 -5q0 -4 -9 -10zM751 533q0 6 3 6q7 0 7 -5q0 -4 -9 -9zM764 497q0 9 4 9q6 0 6 -5q0 -6 -9 -16q0 -1 -1 12zM765 391v25q0 18 7 15q3 -1 3 -7 q0 -11 -10 -33zM771 259q0 6 3 6q8 0 8 -5t-10 -10zM771 453q0 6 3 6q8 0 8 -5q0 -4 -10 -10zM778 227q-1 9 0 13q2 6 7 3q3 -1 3 -5q0 -8 -9 -22q0 -1 -1 11zM778 287q-1 9 0 13q2 6 7 3q3 -1 3 -5q0 -8 -9 -21q0 -2 -1 10z" />
<glyph unicode="R" horiz-adv-x="799" d="M0 -47q-4 71 7 120q6 10 13 27q2 30 -6 93q-9 69 -9 101q0 21 2 39q0 1 8 26q6 21 5 28q-9 7 -20 26q-3 29 7 93q6 43 13 87q2 20 -5.5 44.5t-7.5 29.5q-1 20 5 57q8 51 8 56q5 2 12 7.5t8 5.5q6 2 12 2q9 0 20.5 -7t14.5 -8q-10 0 13 7q10 -4 27 -7l13 13q16 4 37 4 t66 -6q40 -6 57 -4q3 0 23 6.5t24 6.5l13 -13q11 -3 37 0t36 0l14 -14q12 -2 49 -4q27 -1 44 -9q7 -12 20 -27q9 1 27 0q12 -4 26 -29l20 -37h14q-1 -9 0 -27q2 -6 16 -19.5t17 -20.5q10 -28 10 -58q0 -29 -17 -95q-2 -7 -7 -46q-4 -26 -13 -41q-13 -9 -33 -27 q-11 -20 -40 -53q-25 -12 -73 -40l24 -71.5t9 -75.5q8 -2 13 2t7 5q2 -5 10 -7.5t10 -5.5l13 -54l-9 1q-5 1 -5 -3q0 -10 7 -10q3 0 8 3.5t6 2.5t19.5 -31.5t20.5 -35.5q4 -21 20 -60l13 -7q3 -14 -7 -41q-12 -35 -13 -39q15 2 34 0q-5 -1 -9 -7t-5 -6q-8 -2 -60 5 q-61 8 -66 8q1 10 0 27q-13 12 -27 33q-1 7 4 14t5 12q0 3 -2 8.5t-16.5 10.5t-18 10t-3.5 15.5t-2 16.5q-11 12 -27 33q-6 12 -8 27q-3 20 -5 27q5 1 20 20q-37 9 -58.5 50.5l-41.5 82.5h-14q0 9 -6 20q-12 6 -53 6h-57q-10 0 -17 1q0 -10 -0.5 -19t-6.5 -15v34h-40 q-9 -6 -20 -20q-4 -14 -2 -40q3 -32 2 -40q-1 -105 -13 -307q-9 -1 -15.5 4t-17.5 3v-14q-22 -7 -38 -6h-36q-9 7 -20 20q-1 5 -1 9q0 6 4.5 20t3.5 24q-10 29 -20 73zM149 588q0 -19 4 -55q3 -32 2 -83q-2 -87 -2 -90q25 -6 60 -13q0 17 3 51q4 40 4 42v-93q-2 0 34 2 q21 1 33 -2q7 -6 20 -14l6 14h14q-4 3 -6 4v0q6 -3 19 -11q5 4 11 8q10 6 22 5q4 0 17 -7t23 -6q9 10 20 20q10 -1 27 0q7 9 20 20q51 30 64 64q9 22 9 89h-20q6 5 20 7l-16 50q-12 33 -24 37q-8 -2 -20 0q-4 14 -20 33q-20 7 -39 7q-15 0 -45 -7t-49 -7q-15 0 -56 9t-65 9 q-17 0 -32 -4q-38 -9 -38 -79zM212 606q0 8 4 8q6 0 6 -5q0 -6 -9 -16q0 -1 -1 13zM213 540v9q-1 5 3 5q7 0 7 -4t-10 -10zM219 579q0 9 4 9q6 0 6 -5q0 -6 -9 -16q0 -1 -1 12zM220 0q0 17 3 51q4 40 4 42q0 -17 -3 -51q-4 -40 -4 -42zM220 467q0 7 7 66q0 -75 -6 -75 q-1 1 -1 9zM226 -43q2 6 7 3q3 -1 3 -5q0 -8 -9 -22q0 -1 -1 11q-1 9 0 13zM226.5 -98q-0.5 7 0.5 10q1 4 6 1q3 -1 3 -4q0 -6 -9 -16q0 2 -0.5 9zM319 26q0 8 4 8q6 0 6 -5q0 -6 -9 -16q0 -1 -1 13zM326.5 448.5q-0.5 7.5 0.5 9.5q1 4 6 2q3 -1 3 -4q0 -6 -9 -16 q0 1 -0.5 8.5zM327 -73q0 50 6 46q3 -1 3 -8q0 -13 -9 -38zM327 140q0 43 6 40q3 -1 3 -7q0 -11 -9 -33zM327 480q0 43 6 40q3 -1 3 -7q0 -11 -9 -33zM332 50v34q1 37 1 36v-53q-1 -11 -1 -17zM453 120h14q5 3 16 21t11 25q0 2 -2 2t-5 -1q-29 -19 -34 -27q3 -7 0 -20z M559 131q1 3 8 9q4 2 13 7q3 1 5 1q0 -1 1 -3q-2 -4 1 -5l-12 -5t-15 -5q-1 0 -1 1zM599 209q0 5 3 5q8 0 8 -4t-10 -10zM626 115q-1 6 3 6q7 0 7 -5q0 -4 -9 -9zM666 55q0 6 3 6q7 0 7 -5q0 -4 -9 -9zM697 -113q1 1 23 0q0 10 0.5 19t6.5 14q-2 -1 -2 -5q0 -7 4 -21l4 -14 q-14 2 -25.5 4t-10.5 3zM700 0v9q0 5 3 5q7 0 7 -5q0 -4 -10 -9zM726 369q0 5 3 5q7 0 7 -5q0 -4 -9 -9zM732 455q0 6 3 6q8 0 8 -5q0 -4 -10 -9zM733 407v8q0 6 3 6q7 0 7 -5q0 -4 -10 -9z" />
<glyph unicode="S" horiz-adv-x="824" d="M0 -72l33 56q26 40 41 44q8 2 14 2q16 0 29.5 -15t24.5 -15t32 -5q4 -13 14 -27q13 -6 38.5 -5.5t35.5 -1.5q18 -13 47 -27q8 -1 17 6.5t10 7.5q12 2 30.5 -6t22.5 -8q30 -1 108 40q6 -2 20 0q5 2 32 29.5t28 31.5q6 19 6 41q0 36 -13 66q-23 52 -91 66q-72 7 -143 15 l-14 13q-14 -2 -40 0q-26 6 -87 36q-66 31 -74 45q0 10 -7 27q-13 8 -33 26q-18 29 -24 88l-10 100q7 3 13 7q36 134 101 175q3 1 81 47q14 2 18.5 -7t14.5 -7q5 10 14 20q14 6 60 7q48 1 113 -10.5t108 -29.5q6 -3 9 -11t6 -9.5t8 -1.5q6 0 14 4t10 4q10 -1 31 -20l30 -27 q-2 -5 -14 -33q-4 -9 -14 -19t-12 -15l6 -20q-10 -9 -27 -27q-50 20 -167 54l-20 13q-22 3 -44 3q-85 0 -140 -36q-61 -40 -61 -112q0 -14 3 -29q4 -27 39 -57q32 -29 62 -37q36 -10 101 -14q71 -6 107 -13q18 -4 60 -20l7 -14q14 1 40 -6q4 -12 13 -27q12 0 34 -7l54 -87 q4 -11 4 -27v-10q0 -13 2 -23l14 -7q-10 -93 -15 -115q-12 -59 -39 -100q-6 -9 -25 -26t-29 -21q-11 0 -33 -7q-4 -9 -14 -20q-11 -7 -28 -8q-22 -2 -32 -5q-19 -12 -47 -27q-11 -2 -28 2.5t-19 4.5q-109 -1 -138 1q-71 4 -124.5 26t-153.5 94zM74 -19v-13q20 0 20 6 q0 7 -20 7zM260 424q0 27 8 27v-54q-8 0 -8 27zM281 25q0 8 8 10t8 -1q0 -4 -8 -13q-8 -1 -8 4zM368 461q0 19 8 17v-34q-8 0 -8 17zM765 55v9q0 5 3 5q7 0 7 -5q0 -4 -10 -9zM765 162q0 -1 0 9q0 6 3 6q7 0 7 -5q0 -4 -10 -10zM771 84q0 6 4 6q2 0 4.5 -1.5t2.5 -3.5 q0 -4 -10 -10zM778 138q-1 6 2 6q2 0 5 -1.5t3 -3.5q0 -4 -9 -10z" />
<glyph unicode="T" horiz-adv-x="728" d="M0 679q4 49 0 87q4 11 6 11q1 0 1 -4l6 20q8 -1 35 -5q22 -4 35 -4t24 3q6 6 21 13q10 1 21 1q25 0 76.5 -7t69.5 -7q3 0 15 4t20 4q7 0 12 -2l14 -20q10 -1 29.5 12.5t23.5 14.5q14 2 29.5 -5.5t17.5 -7.5q14 -2 54 2q47 6 59 6q10 0 15 -2q10 -13 27 -27q5 -2 11 -2 q5 0 14.5 1.5t13.5 1.5q19 0 28 -27q2 -6 -7 -74q-97 -14 -113 -14q-30 0 -61 7q-4 1 -17 11t-17 9v-13q-19 -8 -36.5 -17t-23.5 -30q-2 -5 20 -14h-20q5 -30 13 -87q-22 -11 -20 -13q27 -20 20 -101q-1 -7 -8 -44q-6 -30 -5 -50l13 -20v-13q0 -13 -1 -26q1 -48 1 -55 q-1 -9 -8.5 -41.5t-7.5 -51.5q0 -15 3 -28l13 -13q6 -59 -7 -128q0 -2 -8 -17q-7 -11 -5 -23l13 -7q10 -15 10 -29q0 -23 -30 -45l-13 -13h-47q2 0 -13 3t-21 4q2 -2 3 -4q0 -3 -16 -3q-9 13 -7 13h-7q0 33 7 141q0 -2 -7 81q-3 35 1 95l6 86q2 34 -1 99q-4 77 -4 104 q0 46 5 79h-20v7h20q-4 25 -3.5 76.5t-3.5 77.5q-87 10 -194 7q-10 -3 -19 -5q-19 -5 -28 -2q-10 9 -27 20zM160 576q1 13 8 9q3 -1 3 -5q0 -8 -10 -22q0 9 -1 18zM161 525v9q0 5 3 5q7 0 7 -5q0 -4 -10 -9zM475 434q0 19 8 17v-34q-8 0 -8 17zM476 79q0 15 1 23.5t6 6.5 q3 -1 3 -8q0 -13 -9 -39q0 -4 -1 17zM476 250q-1 6 0 10q0 4 3 4q7 0 7 -5q0 -6 -9 -16q0 1 -1 7zM476 299q0 5 3 5q7 0 7 -5q0 -4 -9 -9zM482 131q0 6 3 6q8 0 8 -5q0 -4 -10 -10zM482 172q0 19 8 17v-33q-8 0 -8 16zM482 344q0 26 8 26v-53q-8 0 -8 27zM489 -111q0 6 3 6 q8 0 8 -5q0 -4 -10 -9zM557 511q32 1 40 0q11 -1 12 -2q0 -1 -19 0q-17 0 -30.5 1t-2.5 1zM677 527q0 6 4 6q2 0 4.5 -1.5t2.5 -3.5q0 -4 -10 -10zM677 567q0 6 3 6q8 0 8 -5q0 -4 -10 -10z" />
<glyph unicode="U" horiz-adv-x="852" d="M0 260q-2 31 5 81q8 57 8 72t-6.5 59t-6.5 55q0 7 7 40q0 -1 -1 -2q-1 0 1 29v19l8 57q6 35 12 30q-3 7 -7 13q-14 26 -7 74h74q7 -12 20 -27q16 1 40 0v-20h-14q-2 -9 4 -16q10 -10 10 -11q-3 -6 -7 -13q-1 3 -2 3q-2 0 -5 -16q13 -3 13 -35q0 -39 -13 -52q-2 -2 -2 -6 q0 -16 11 -16q2 0 5 2q9 -17 9 -26q0 -5 -3 -7l-6 -4q1 -4 0 -10q-11 0 -11 -21q0 4 11 -65q-4 -15 -7 -40q0 -2 6.5 -23.5t6.5 -23.5q3 -34 -7 -79q-12 -55 -13 -68q-2 -27 13.5 -101.5t26.5 -91.5q2 -4 13.5 -7t13.5 -6q5 -14 20 -34q18 -4 47 -13q8 -10 20 -20h53 q0 -9 7 -20q8 1 20 0q5 11 20 27q9 4 27 4t26 2q23 7 50 34q25 24 37 46q10 18 24.5 71.5t15.5 75.5q0 9 -20 73q-1 12 5 50q8 45 8 50q4 57 -7 127q3 -3 5 -3t1.5 4.5t0.5 5.5q1 34 0 100q0 5 -8 39q-7 29 -5 41q10 12 20 26q1 6 1 13q0 13 -5 42q-4 25 -3 32q10 9 20 20 q16 -2 87 0q1 -27 2 -34q3 -21 11 -33q10 -4 20 -13v-13q8 2 20 0q-8 -7 -27 -14q-2 -42 2 -86q4 -62 5 -80q2 -69 0 -100l-13 -27q-1 -14 6 -29.5t7 -17.5q1 -14 -4 -65.5t-3 -74.5q8 -64 7 -80q-1 -17 -15 -48q-16 -38 -18 -45q2 -11 0 -33l-14 -7q-3 -9 -1 -21 q2 -11 1 -12h-20q1 -12 0 -27q-10 -4 -26 -13q-4 -16 -14 -34q-8 1 -20 0q-2 -9 -6 -20q-7 2 -20 0q-7 -12 -20 -26q-6 -3 -17 -0.5t-17 0.5q-6 -10 -13 -20q-4 -1 -9.5 7t-10.5 6q-4 -2 -11.5 -16.5t-14 -16t-11.5 -1.5q-6 0 -19 4t-24 3q-3 -6 -7 -13q-76 0 -126 13 l-14 14q-3 1 -12.5 0t-13.5 0t-47 28.5t-47 31.5q-2 12 -13 33q-13 5 -33 20q-14 16 -32 56q-16 37 -22 64q-5 22 -5 44q0 12 3 41t2 48q-6 29 -13 67zM97 -30q0 -6 10 -17q6 10 6 16q0 8 -13 4q-3 -1 -3 -3zM107 580h13q-4 4 -1.5 12t-11.5 8v-20zM245 314q0 26 8 26v-53 q-8 0 -8 27zM246.5 382q-0.5 7 0.5 10q1 4 6 1q3 -1 3 -4q0 -6 -9 -16q0 2 -0.5 9zM246.5 568.5q-0.5 7.5 0.5 9.5q1 4 6 2q3 -1 3 -4q0 -6 -9 -16q0 1 -0.5 8.5zM246.5 655.5q-0.5 7.5 0.5 9.5q1 4 6 2q3 -1 3 -4q0 -6 -9 -16q0 1 -0.5 8.5zM252 166q0 8 4 8q6 0 6 -5 q0 -6 -9 -16q0 -1 -1 13zM253 233v25q0 18 7 15q3 -1 3 -7q0 -10 -10 -33zM259 122q0 6 4 6q2 0 4.5 -1.5t2.5 -3.5q0 -4 -10 -10zM259 619q0 9 4 9q6 0 6 -5q0 -6 -9 -16q0 -1 -1 12zM279 75q0 6 3 6q8 0 8 -5q0 -4 -10 -9zM352 212q0 9 4 9q6 0 6 -5q0 -6 -9 -16 q0 -1 -1 12zM352 266q0 8 4 8q6 0 6 -5q0 -6 -9 -16q0 -1 -1 13zM352 416q0 19 8 17v-33q-8 0 -8 16zM353 453q0 -1 0 9q0 6 3 6q7 0 7 -5q0 -4 -10 -10zM353 560v9q-1 5 3 5q7 0 7 -4t-10 -10zM359 184q1 13 8 9q2 -1 2 -5q0 -7 -9 -21q0 9 -1 17zM359 299q0 9 4 9 q6 0 6 -5q0 -6 -9 -16q0 -1 -1 12zM359 343q0 19 8 17v-33q-8 0 -8 16zM359 516q0 6 3 6q8 0 8 -5t-10 -10zM626 360q0 -10 14 -13q0 7 1 14q-1 8 -8 6q-7 -1 -7 -7zM627 760q19 3 19 13q0 8 -13 7zM759 112q0 9 4 9q6 0 6 -5q0 -6 -9 -16q0 -1 -1 12zM759 679q0 9 4 9 q6 0 6 -5q0 -6 -9 -16q0 -1 -1 12zM772 386q0 8 4 8q6 0 6 -5q0 -6 -9 -16q0 -1 -1 13zM772 452q0 9 4 9q6 0 6 -5q0 -6 -9 -16q0 -1 -1 12zM772 516q0 19 8 17v-33q-8 0 -8 16zM772 596q0 19 8 17v-33q-8 0 -8 16zM779 482q0 6 4 6q2 0 4.5 -1.5t2.5 -3.5q0 -4 -10 -10z M780 173q0 18 7 154q0 -28 -3 -81q-4 -59 -4 -73z" />
<glyph unicode="V" horiz-adv-x="882" d="M0 781v13q61 -8 136 0l7 -20q0 3 2 3q4 0 4 -11q0 -14 -13 -24q12 -3 26 -13q2 -7 -3 -15.5t-3 -17.5q9 -5 19 -13q9 -15 13 -40q5 -37 7 -44l13 -13q12 -46 13 -72q0 -6 -4.5 -12.5t-2.5 -13.5q10 -2 20 -6q6 -15 7 -36.5t6 -35.5q19 -42 45 -123q-2 -18 0 -52 q9 -4 20 -13q5 -10 5 -32q-1 -25 1 -33q13 -23 33 -65q9 2 19 7q4 7 4.5 20t2.5 19q14 21 32 58q-1 10 0 26q12 11 26 26q-3 22 0 71q3 14 19.5 40.5t19.5 37.5q2 8 0 23.5t0 22.5q12 13 26 32q4 11 10 68q5 46 16 56q1 1 19 6q-9 8 -9 23q0 19 16 53q19 39 19 41 q-2 15 0 39l20 13q17 16 23 16q1 0 7.5 -3t13.5 -3q9 0 21 3q6 6 19 13q48 6 48 -34q0 -8 -2 -18q-1 -6 -13 -17.5t-13 -14.5q-5 -11 -6 -30t-7 -29l-13 -6q-3 -8 -0.5 -26t0.5 -26q-9 -8 -20 -20q-2 -8 0 -26t0 -26q0 -2 -9 -13t-10 -13q0 -12 -7 -39q-9 -7 -19 -19 q2 -15 0 -46q-9 -10 -20 -26q1 -10 0 -32q-3 -11 -20 -41t-19 -43q2 -10 0 -26q-12 -12 -26 -33q-2 -23 -13 -71l-6 -7q6 4 7 -9q1 -11 -1 -17h-19q-10 -47 -39 -124q-29 -80 -39 -123q-5 -1 -32 -5q-22 -4 -35 -4t-24 3l-6 13q-8 1 -20 13q-12 25 -19 68q-8 58 -13 75 l-13 6q-4 9 -4 23.5t-3 22.5q-14 23 -32 65q2 11 0 32q-15 24 -33 65q2 16 0 46q-9 8 -19 19q1 10 0 26q-3 14 -18 39q-18 28 -21 39q0 16 -7 52q-9 12 -19 32q-1 8 3 19.5t3 13.5q-12 11 -26 32q-4 15 0 33l7 13q-11 4 -26 19q-5 15 -5 50v21q-1 15 -2.5 20t-12.5 14 t-13 12q-6 13 -19 59zM169 300q13 -4 13 5q0 13 -13 14v-19zM311 382q-1 8 0.5 13t6.5 2q2 -1 2 -5q0 -7 -8 -21q0 -1 -1 11zM356 237q0 6 3 6q8 0 8 -5q0 -4 -10 -9zM376 185q0 6 3 6q7 0 7 -5q0 -4 -9 -9zM382 492q1 13 8 9q2 -1 2 -5q0 -7 -9 -21q0 9 -1 17zM408 416 q0 8 4 8q6 0 6 -5t-9 -15q0 -1 -1 12zM493 -152q0 5 3 5q7 0 7 -5q0 -4 -9 -9zM499.5 -185q-0.5 7 0.5 10q1 4 6 1q3 -1 3 -4q0 -6 -9 -16q0 2 -0.5 9zM519 34q0 -1 0 12q0 8 4 8q5 0 5 -5t-9 -15zM565 3q-1 6 2 6q7 0 7 -5q0 -4 -9 -9v8zM590 68q0 6 3 6q7 0 7 -5 q0 -4 -9 -9zM597 -188q0 8 4 8q5 0 5 -5t-9 -15q0 -1 0 12zM610 -153q0 6 3 6q7 0 7 -5q0 -4 -10 -9v8zM623 -112q0 13 7 9q2 -1 2 -5q0 -7 -9 -21v17zM630 665q0 -6 13 -8q-1 2 0 6.5t0 5.5q-1 2 -7 1t-6 -5zM635 -75q0 6 3 6q8 0 8 -5q0 -4 -10 -9zM636 216v17q0 12 7 9 q2 -1 2 -5q0 -7 -9 -21zM649 -29q0 5 3 5q7 0 7 -5q0 -4 -10 -9v9zM655 288q0 9 7 6q2 -2 2 -5q0 -5 -8 -15q-1 -4 -1 14zM661 -3q0 5 3 5q8 0 8 -4t-10 -10zM661 319q0 8 4 8q6 0 6 -5q0 -6 -9 -16q0 -1 -1 13zM668 341q0 5 3 5q2 0 4.5 -1t2.5 -4t-9 -9zM675 27v17 q0 13 7 9q2 -1 2 -5q0 -7 -9 -21zM687 386q0 6 3 6q8 0 8 -5q0 -4 -10 -9zM695 86v8q-1 6 2 6q7 0 7 -5q0 -4 -9 -9zM700 442q0 8 4 8q6 0 6 -5t-9 -15q0 -1 -1 12zM707 473q-1 8 0.5 13t6.5 2q2 -1 2 -5q0 -7 -8 -21q0 -1 -1 11zM740 222v17q0 13 7 9q2 -1 2 -5 q0 -7 -9 -21zM771 337q0 17 8 15v-33q-8 0 -8 18zM784 389q0 17 8 15v-33q-8 0 -8 18zM804 448q0 9 4 9q6 0 6 -5q0 -6 -9 -16q0 -1 -1 12zM824 499q-1 8 0.5 13t6.5 2q2 -1 2 -5q0 -7 -8 -21q0 -1 -1 11z" />
<glyph unicode="W" horiz-adv-x="1189" d="M-1 552q0 6 3 6q8 0 8 -5q0 -4 -10 -10zM6 525q0 6 3 6q8 0 8 -5q0 -4 -10 -10zM13 496q-1 6 0 10q0 4 3 4q7 0 7 -5q0 -6 -9 -16q0 1 -1 7zM19 474q0 9 4 9q6 0 6 -5q0 -6 -9 -16q0 -1 -1 12zM20 759q-2 12 7 41q50 -7 128 0q10 -10 21 -27q2 -10 -3 -20.5t-4 -20.5 l13 -6q7 -19 14 -88q-1 -36 7 -108l13 -7q5 -13 16 -66q10 -49 11 -62q1 -7 -3.5 -11.5t-3.5 -9.5q12 -19 28 -54q-2 -21 0 -61q12 -20 27 -54q6 -38 20 -108q12 4 27 14q-1 10 0 27q12 17 27 47q5 17 6.5 44t6.5 44q10 11 21 27q-2 16 0 47q9 5 20 14q9 20 9 59q1 46 4 62 q12 17 27 48q-1 20 7 61l14 6q1 6 -3.5 8t-4.5 7q0 2 1 6l13 13q4 13 4 34t3 34q10 28 27 87q12 1 51.5 7t50.5 7q23 -93 54 -189q3 -21 13 -61l14 -7q2 -12 -3 -34t-4 -27q0 -1 16 -28t18 -32q20 -60 20 -115v-14q10 -4 20 -13q5 -11 5 -30q1 -26 2 -31q9 21 14 20 q-4 -2 -4 -14q0 -47 24 -121q5 4 19 5q11 1 15 9q8 14 9 44q1 38 4 50q11 24 27 68q3 30 14 101q10 24 20 61q-2 19 0 54q9 8 20 20q5 16 4.5 48t2.5 47q14 30 34 81q1 2 8 48q5 35 12 40q8 -5 27 -7q11 10 27 20q9 2 18 2l56 -9q2 -5 0 -9q0 -1 7 -4q-4 -41 -20 -128 q-9 -15 -20 -41q2 -11 0 -34q-10 -12 -21 -27q1 -16 0 -47q-12 -23 -27 -61q-5 -20 -7 -52q-2 -36 -6 -56q-3 -15 -20.5 -52t-20.5 -49.5t-3 -39.5t-4 -41q-9 -14 -20 -34q-4 -15 -6 -42q-1 -23 -7 -39q0 -1 -6.5 -3.5t-7.5 -3.5q-4 -14 -4 -37.5t-3 -36.5q-12 -26 -27 -68 q3 -21 0 -61q-8 -6 -20 -20q-34 -2 -57 -2t-51 2q-26 78 -61 230q-12 24 -27 61q-1 20 -7 60l-13 14q-6 23 -10 64.5t-10 63.5q-9 13 -21 34q2 14 0 41q-9 10 -20 27q-3 11 -4 46q-1 29 -9 41q-3 4 -13.5 8t-13.5 6l-21 -27q2 -14 0 -41l-20 -20q7 -4 6 -20q0 -16 -6 -20 q7 -2 7 -10q0 -18 0 -17q-5 -1 -14 20q2 -14 0 -41q-9 -7 -20 -20q-7 -18 -10 -59q-2 -44 -4 -49l-13 -7q-7 -18 -9 -46q-2 -34 -5 -48q-12 -20 -27 -55q-3 -11 -3 -26v-12q0 -16 -3 -29l-14 -14q2 -12 0 -33l-13 -7q2 -14 0 -41q-10 -26 -27 -74q-13 2 -27 2 q-12 0 -34.5 -2.5t-34.5 -2.5q-16 0 -33 3q6 9 7 34l-20 20q-1 9 3.5 16t2.5 18l-13 13q-4 13 -4 34t-3 34q-9 16 -20 40q-6 24 -6.5 69.5t-7.5 72.5q0 2 -10 7.5t-10 6.5q-8 18 -8 46q-1 33 -5 48l-14 14q-13 50 -27 115q0 7 4 11.5t3 8.5l-14 14q-14 54 -27 135h-47 q18 4 41 7q-6 18 -8 43.5t-6 43.5l-13 14q-16 58 -21 94zM26 430q0 6 3 6q8 0 8 -5q0 -4 -10 -9zM40 390q0 6 3 6q7 0 7 -5q0 -4 -9 -10zM53 339q0 9 4 9q6 0 6 -5q0 -6 -9 -16q0 -1 -1 12zM67 289q-1 6 2 6q2 0 5 -1.5t3 -4.5t-9 -9zM73 262q0 6 3 6q2 0 5 -1.5t3 -3.5 q0 -4 -10 -10zM87 197q0 9 4 9q6 0 6 -5q0 -6 -9 -16q0 -1 -1 12zM107 137q0 9 4 9q2 0 4 -1t2 -4q0 -7 -9 -17q0 -1 -1 13zM141 -19q0 9 4 9q6 0 6 -5q0 -6 -9 -16q0 -1 -1 12zM161 -86q0 9 4 9q2 0 4 -1t2 -4q0 -7 -9 -17q0 -1 -1 13zM168 -117q0 6 3 6q8 0 8 -5 q0 -4 -10 -10zM296 203q1 13 8 9q2 -1 2 -5q0 -7 -9 -22q0 9 -1 18zM310 241q0 6 3 6q8 0 8 -5q0 -4 -10 -10zM323 290q0 19 8 17v-34q-8 0 -8 17zM344 390q-1 6 0 9q2 5 7 2q3 -1 3 -4q0 -6 -9 -16q0 -1 -1 9zM364 478q0 5 3 5q8 0 8 -4t-10 -10zM492 150q0 9 4 9q6 0 6 -5 q0 -6 -9 -16q0 -1 -1 12zM499 123q0 9 4 9q6 0 6 -5q0 -6 -9 -16q0 -1 -1 12zM506 96q0 9 4 9q6 0 6 -5q0 -6 -9 -16q0 -1 -1 12zM513 66q0 5 3 5q7 0 7 -5q0 -4 -9 -9zM519 39q0 6 3 6q2 0 5 -1.5t3 -3.5q0 -4 -10 -10zM533 5q0 5 3 5q8 0 8 -4t-10 -10zM540 -14q0 4 3 4 q7 0 7 -5q0 -6 -9 -16q0 1 -1 7t0 10zM540 294q-1 6 0 9q0 5 3 5q7 0 7 -6t-9 -16q0 1 -1 8zM546 -49q0 5 3 5q8 0 8 -4t-10 -10zM560 -97q0 6 3 6q8 0 8 -5q0 -4 -10 -9zM560 241q0 6 3 6q8 0 8 -5q0 -4 -10 -10zM566 203q0 18 8 16v-34q-8 0 -8 18zM567 -122q0 4 3 4 q7 0 7 -5q0 -6 -9 -16q0 1 -1 7t0 10zM588 131q0 -1 0 9q0 6 3 6q7 0 7 -5q0 -4 -10 -10zM600 95q1 13 8 9q3 -1 3 -5q0 -8 -10 -22q0 9 -1 18zM641 59q0 7 3 7q8 0 8 -6q0 -4 -10 -10zM642 -193h20q13 -1 14 -2q0 -1 -26 0q-25 1 -8 2zM648 100q-1 6 0 9q2 5 7 2q3 -1 3 -4 q0 -6 -9 -16q0 -1 -1 9zM689 -154q0 18 7 15q3 -1 3 -7q0 -11 -10 -34v26zM715 -39q0 9 4 9q6 0 6 -5q0 -6 -9 -16q0 -1 -1 12zM729 471q-1 6 3 6q7 0 7 -5q0 -4 -9 -10zM743 516v9q0 6 3 6q7 0 7 -5q0 -4 -10 -10zM790 261q0 6 3 6q7 0 7 -5q0 -4 -9 -9zM803 315q0 6 3 6 q8 0 8 -4t-10 -10zM810 336q0 6 4 6q2 0 4.5 -1.5t2.5 -3.5q0 -5 -10 -10zM811 570h20q13 -1 14 -2q-13 0 -26 1q-26 1 -8 1zM830 414q0 9 4 9q2 0 4 -1t2 -4q0 -7 -9 -17q0 -1 -1 13zM844 466q-1 9 0 13q2 6 7 3q3 -1 3 -5q0 -8 -9 -22q0 -1 -1 11zM850 507q1 13 8 9 q3 -1 3 -5q0 -8 -10 -22q0 9 -1 18zM857 542q0 9 4 9q6 0 6 -5q0 -6 -9 -16q0 -1 -1 12z" />
<glyph unicode="X" horiz-adv-x="835" d="M0 -173q1 4 13.5 11t13.5 10q6 12 13 42q6 27 14 39q14 8 34 27q5 8 7.5 25t6.5 23q2 3 10.5 7t9.5 7q11 17 24.5 51.5t23.5 50.5q14 12 34 34q0 11 7 34q11 6 27 20q51 76 48 109q-1 12 -20 35t-21 33q1 8 0 20q-13 9 -34 28q-3 3 -1 10t1 10q-9 9 -21 20q0 12 -6 34 q-16 10 -34 28q-3 6 -0.5 20.5t0.5 20.5q-2 5 -16.5 25.5t-17.5 21.5h-14q-5 7 -7.5 20t-7 22.5t-23 30t-23.5 29.5q-7 20 -27 61q56 5 83 5q50 0 73 -11q17 -8 23 -32q8 -37 11 -43q7 -13 33.5 -37t34.5 -38q6 -18 21 -54h6q-2 -12 0 -35q8 -1 21 -6q4 -4 4 -16.5t2.5 -17 t14 -11t13.5 -10.5q-2 -6 0 -20q17 -1 47 7l34 81q10 9 21 21q-2 9 0 20q8 0 20 7q5 18 21 54q11 10 27 28q5 10 6.5 26.5t6.5 27.5q15 12 34 34v14q11 8 20 8q4 0 12.5 -2.5t14.5 -2.5q7 0 15 3q1 1 4.5 7.5t8.5 6.5q14 0 46.5 -7t48.5 -7q-16 -42 -40 -81l-14 -7 q2 -6 0 -20q-9 -5 -20 -14q-13 -30 -48 -88q-9 -5 -20 -14q1 -7 0 -21l-34 -61q-17 -16 -41 -47q0 -12 -7 -34l-39 -47q-25 -33 -22 -62q1 -13 33 -54q38 -48 42 -55l20 -54h14q-2 -10 0 -28q12 -7 27 -20q8 -12 17 -37.5t17 -37.5q14 -11 34 -34q3 -5 3 -17t4 -17l13 -7 q1 -6 -4 -12.5t-5 -9.5q0 -2 2.5 -6t16 -6.5t19 -7t19 -37t20.5 -36.5l1 -1q0 -1 -4 -5.5t-4 -7.5q-70 -9 -95 0q-2 1 -20 20q-5 1 -9 -6t-5 -7q-9 1 -27 0q-12 15 -19 36q-9 28 -15 39q-17 17 -41 47q-7 12 -14 34.5t-13 33.5q-18 21 -54 89q-7 3 -14 7q-8 18 -27 54 q-11 0 -34 -7q-6 -3 -33 -42t-28 -46q-1 -6 3.5 -12t2.5 -9h-20q-9 -7 -20 -20q-6 -12 -8 -30q-2 -1 -40 -11q2 -77 -27 -116q-8 -4 -21 -13q0 -8 -7 -21q-23 -20 -76 -20q-30 0 -73 7q1 4 1 7t-4.5 5.5t-3.5 7.5zM231 800h21q13 -1 14 -1q-30 0 -35 1zM286 195l7 -14 q-1 2 0 10q1 4 -7 4zM319 614q0 9 1.5 14t6.5 2q2 -1 2 -5q0 -7 -9 -22q0 -3 -1 11zM434 618q0 6 3 6q8 0 8 -5q0 -4 -10 -9zM639 276v9q0 6 3 6q7 0 7 -5q0 -4 -10 -10zM782 45v9q0 6 3 6q2 0 4.5 -1.5t2.5 -3.5q0 -5 -10 -10z" />
<glyph unicode="Y" horiz-adv-x="720" d="M0 793l41 7q18 2 52 -2q38 -4 50 -12v-13q4 -13 23 -38q20 -28 24 -37q6 -14 10.5 -34t10.5 -34q11 -11 27 -34q0 -13 7 -41q16 -20 41 -61q4 -10 5.5 -30t7.5 -31q3 -5 17 -13.5t17 -14.5l14 -40h20q9 23 28 61q2 3 10.5 6.5t9.5 6.5q5 10 7 27.5t7 27.5q9 7 20 20 q-2 10 0 27q10 9 20 21q4 22 21 61q15 3 34 14q-5 10 -7 34q2 11 16 29q16 22 18 25q5 11 7.5 28t6.5 27q5 1 46 8q34 7 49 7q9 0 13 -2q13 -6 18.5 -27t9.5 -41q-14 -5 -14 -7q0 -13 -7 -40q-11 -7 -27 -21q1 -6 0 -20q-11 -12 -27 -34q-3 -18 -14 -48q-11 -6 -27 -20 q-4 -17 -14 -48q-13 -17 -34 -48v-20q-2 -11 -18 -32q-20 -24 -22 -29q-8 -22 -28 -68q-25 -31 -54 -82q-5 -22 -8 -60q-2 -38 1 -55l14 -21q2 -26 -7 -150q-1 -10 -7 -115q-25 2 -81 13q-6 -9 -14 -20q-6 2 -20 0l13 34q-3 1 -6 1q-6 0 -12 -4.5t-9 -3.5q-7 3 -7 48 q0 1 7 27t7 27q4 82 -7 232q2 24 0 68q-2 9 -20 28.5t-21 25.5q-9 18 -18 48.5t-16 46.5l-14 7q-12 20 -22 49l-18 53q0 1 -6.5 3.5t-7.5 3.5q2 11 0 27q-3 6 -20.5 16.5t-20 16.5t-1.5 20q0 10 -6 15l-6 7v14l-14 27l-20 34q-1 6 -7 20q-3 5 -14 34l-13 7q-7 16 -7 34z M298 557q0 6 3 6q8 0 8 -5q0 -4 -10 -10zM353 680q-1 6 3 6q8 0 8 -5q0 -4 -10 -10zM441 10q0 9 4 9q2 0 4 -1t2 -4q0 -7 -9 -17q0 -1 -1 13zM441 131q1 13 8 9q3 -1 3 -5q0 -8 -10 -22q0 9 -1 18zM449 59q0 44 7 40q3 -1 3 -7q0 -10 -10 -33zM449 167q0 3 7 68 q0 -77 -6 -77q-1 2 -1 9zM455 -17q0 8 8 7q10 -2 10 -16q0 -15 -10 -11q-8 3 -8 20zM543 203q0 6 3 6q8 0 8 -5q0 -4 -10 -9zM544 11v26q0 18 7 15q3 -1 3 -7q0 -11 -10 -34zM550 -7q-1 6 3 6q8 0 8 -5q0 -4 -10 -10zM551 65q0 22 3 63q4 47 4 53q0 -21 -3 -62 q-4 -48 -4 -54zM761 693q0 6 3 6q8 0 8 -5q0 -4 -10 -10z" />
<glyph unicode="Z" horiz-adv-x="735" d="M0 -147q1 9 1 47q-1 30 6 47q4 11 26 31.5t27 28.5q7 12 13 39.5t14 40.5l60 46q5 8 9 38.5t11 41.5q13 9 33 27q1 9 7 27q9 14 26 46h14q4 18 20 54q19 18 46 53q6 11 9 33.5t11 33.5q4 6 28 19q21 10 21 20q0 5 -4.5 12t-4.5 9l60 93q-8 12 -26 27h-80q-5 14 -14 33 l-20 7q-4 -10 -13 -40q-25 2 -50 2t-71 -3t-71 -3q-34 0 -68 4q3 36 7 120q11 1 42 5q27 3 43 3q15 0 28 -2l33 -20q12 -1 36.5 4t40.5 5q11 0 23 -2q3 -13 7 -27q8 -2 13 -2q11 0 11 8q0 3 -2.5 10.5t-1.5 10.5q0 1 6 5.5t7 7.5q16 0 57 -4q34 -4 50 -2q17 8 27 6 q10 -9 26 -20q14 -5 28 -6h26q2 3 26 33q33 -6 39 -8t28 -12q1 -15 1 -49q-2 -44 -8 -58q-2 -5 -16 -13.5t-17 -12.5q1 -10 0 -27q-6 -3 -11.5 -7t-41.5 -73q-1 -2 0 -9.5t0 -10.5q-19 -18 -47 -53q-3 -16 -13 -40q-8 0 -20 -7q-2 -3 -22 -48q-15 -35 -25 -39q-10 2 -27 0 q1 -5 8 -14.5t6 -18.5h-7q-12 -25 -33 -56q-28 -40 -34 -51q-2 -13 -13 -40q-4 -6 -28 -22q-20 -14 -20 -24q0 -3 4.5 -8t3.5 -12t-16 -20.5t-17 -19.5v-14h-14q-1 -1 -18 -40q-12 -28 -22 -33q8 -13 7 -20q11 0 26 -2t19 -2q12 0 17.5 9.5t10.5 41.5v-47q20 3 87 0 q7 -1 29 -8q19 -6 24 -5q4 0 24 4t32 4q11 0 18 -2l4 -6.5t9 -6.5l7 13q18 7 42 7q36 0 78 -13q4 -16 4 -26q0 -16 -11 -8q12 -3 40 -6q-31 -12 -31 -17q0 -3 4 -14t7 -23q-21 -18 -27 -26q-20 2 -50 0q-37 -3 -51 -3q-22 0 -45 3q-4 0 -24 7t-30 6l-13 -13q-24 -7 -73 -7 q-28 0 -108 8q-73 7 -112 5q-5 0 -28.5 -7t-31.5 -6q-6 6 -20 13v14q2 -5 4 -5q5 0 9 18zM252 619q0 9 4 9q6 0 6 -5q0 -6 -9 -16q0 -1 -1 12zM253 547v25q0 18 7 15q3 -1 3 -7q0 -11 -10 -33zM300 -120q8 2 13 -2t7 -5q-1 28 0 27l-13 13q2 -2 2 -6q0 -5 -4.5 -16zM306 89 q0 5 3 5q7 0 7 -5q0 -4 -9 -9zM353 140v9q-1 5 3 5q7 0 7 -4t-10 -10zM360 753h13q-3 2 -2 8t-11 6v-14zM379 6q0 8 4 8q6 0 6 -5q0 -6 -9 -16q0 -1 -1 13zM427 -107h33q-3 2 -3 7q1 5 1 6q-2 2 -11 1q3 0 -20 -14zM473 720l7 -13l1 10q0 3 -8 3zM479 -46q1 7 8 6t7 -7 q0 -10 -14 -13q0 7 -1 14zM533 282q-1 3 1.5 6.5t5.5 4.5q8 2 8 -1q0 -4 -8 -12q-6 -1 -7 2zM542 -12q5 1 9 -1q6 -2 -4 -7q26 2 39.5 4t7.5 3q-8 1 -41 0q-6 0 -11 1zM578 -44q0 2 9 4q12 2 12 -3q0 -4 -6 -10q-15 6 -15 9zM653 -107h20q13 -1 14 -2q-12 0 -26 1 q-25 1 -8 1zM679 522q0 7 3 7q8 0 8 -6q0 -4 -10 -10zM706.5 562q-0.5 7 0.5 10q1 4 6 1q3 -1 3 -4q0 -6 -9 -16q0 2 -0.5 9zM707 -51q-1 5 2 5q7 0 7 -5q0 -4 -9 -9v9zM713 -82q0 12 7 9q2 -1 2 -5q0 -7 -9 -22v18zM713 587v17q0 13 7 9q2 -1 2 -5q0 -7 -9 -21z" />
<glyph unicode="^" horiz-adv-x="408" d="M0 541q4 11 20 40q8 19 27 57q8 8 17 21q-1 3 0 10q4 2 10 6q0 10 6 27q6 4 14 11v10q7 10 17 27v13q8 8 17 24v10q5 8 10 17q6 1 13 3q-1 5 0 10q4 3 17 7q20 3 30 -7q4 -13 11 -34q3 -6 13 -20t13 -20.5t7 -19.5t7 -20q9 -10 20 -31q-1 -6 0 -17q8 -8 20 -23 q19 -31 41 -81l7 -20q0 -5 -4.5 -7.5t-21.5 -2.5q-17 1 -20.5 2.5t-18.5 30.5t-16 34q1 5 0 13q-7 18 -34 61q-2 2 -7 3q-1 9 -6 27q-7 9 -17 24q0 8 -7 24q-2 3 -8 5.5t-9 4.5q-16 -13 -26.5 -38.5l-20.5 -49.5q0 -1 -5 -6.5t-5 -6.5q0 -2 0.5 -7t-0.5 -7q-11 -10 -27 -30 q1 -6 0 -17l-7 -3q-3 -16 -17 -48q-11 -15 -20 -15q-5 0 -5 3q0 1 2 2q-11 1 -37 4zM121 595q0 7 3 6q5 -2 -3 -6zM178 625v5q0 4 4 2q4 -3 -4 -7zM276 719q0 8 3 7q5 -2 -3 -7zM326 689v7q0 5 4 3t-4 -10zM330 605q0 8 3 6q5 -2 -3 -6z" />
<glyph unicode="_" horiz-adv-x="636" d="M16 391q0 2 7 3q15 1 34 -2q24 -5 31 -5l-8 -21q-17 -2 -17 -4q1 -2 10 -3q-3 2 -13.5 0t-14.5 0v14l-14.5 7.5t-14.5 10.5zM123 344v22q1 3 15 7q4 0 21 -22q-12 -1 -36 -7zM173 351v36q2 1 15 7q8 -4 16 -5q12 0 19 -2q-3 -10 -14 -28q-14 -13 -19 -13q-1 0 -4 3t-7 3 q-3 0 -6 -1zM233 545q2 0 5.5 -1.5t9.5 -11.5t1 -10q-2 0 -4 1q-19 22 -12 22zM259 373q4 4 21 14q-4 0 10 -4t19 -3q7 1 22.5 10.5t20.5 10.5q36 7 71 -7l15 -14q6 -1 18 4t20 5q6 0 12 -2q11 -15 28 -36q-5 0 -36 -5q-25 -3 -28 -2q-5 2 -3 8q3 9 2 10q-1 5 -13 4 q-2 0 -4 -14q-2 -10 -25 -8q-18 11 -43 22q-4 0 -16 -7.5l-12 -7.5h-72zM311 513q0 1 5 3q14 6 36 14v-14q-41 -4 -41 -3zM430 516h22q14 -1 15 -2q0 -1 -28 0q-28 2 -9 2zM508 384q0 3 6 8t6 7t-4 2h-1h8q24 0 24 -12q0 -3 -2 -10q-2 -5 0 -6q-4 2 -20.5 4t-16.5 7z M545 516h50q0 -1 -1 14q0 5 8 7t8 -6q0 -19 -6.5 -21.5t-14.5 -2.5q2 0 -44 9z" />
<glyph unicode="`" horiz-adv-x="275" d="M-12 828q11 6 32 20q30 -14 72 -23q35 -8 48 -18q20 -15 35 -56l13 -7v-38q4 0 10 -3q0 -1 3 -10q-8 -2 -19 -7q-28 -24 -40 -24t-25 11l-6 13q-9 2 -10 -3q0 -2 2 -5q-2 1 -5 2q3 6 6 13q2 7 0 13q-2 4 -13 7t-13 6q0 10 -6 25q-10 8 -25.5 9.5t-32.5 3.5q9 3 26 7 q-17 14 -52 64zM34 670q0 5 6 3q14 -4 14 -18q0 -10 -8 -7q-1 0 -6.5 9t-5.5 13z" />
<glyph unicode="a" horiz-adv-x="655" d="M9 106q0 26 8 26v-53q-8 0 -8 27zM15 25q0 11 2 21l13 7q5 7 7 23t6 23q14 9 33 26q3 13 14 33q7 -1 19 0q11 12 33 27q11 -2 33 0l27 20q11 2 23 2q19 0 48.5 -8t40.5 -8q17 0 46.5 7.5t50.5 7.5q11 0 22 -1v16q0 6 7 10q4 -3 4 -6q0 -2 -1 -4t-1 -3q0 -4 11 -7 q-9 17 -20 46q-1 6 -1 13q0 8 2 24t2 24q0 11 -3 19q-8 6 -20 19h-20q-15 10 -39 20q-13 1 -27 -5q-17 -8 -20 -8q-6 0 -11.5 6.5t-14.5 6.5q-21 1 -54 -13l-45 -20q-17 -7 -29 -7t-25 8q-16 10 -32 19q2 5 7 20q-2 3 -33 13q0 28 3 28q1 -1 3 -2q9 5 5 7t-9 1q-4 -1 11 -1 v20q30 9 60 19q64 20 65 20q3 -1 9.5 -10t17.5 -9q3 0 4.5 9t1.5 10q14 0 40.5 3.5t32.5 3.5h33q1 -1 7 -13q10 -1 11.5 6l1.5 7q11 3 20 -7q12 -13 13 -13q10 2 26 0l7 -13q9 -3 29 -2.5t30 -4.5q6 -3 8 -16.5t6 -16.5h19l33 -58q16 -33 16 -65q0 -18 -6 -58q-4 -35 -3 -50 l13 -13q2 -8 2 -18q0 -12 -4 -31q-4 -22 -4 -24q-2 -27 1 -76q3 -35 5 -69q1 -27 -2 -76q-4 -55 -4 -82q-3 0 -45 -8q-29 -5 -47 -5q-21 0 -34 6q-5 2 -11.5 16.5t-8.5 16.5q-70 -35 -143 -35q-39 0 -101 9q-12 -2 -33 0l-40 33q-30 24 -60 78q-34 61 -34 112zM61 397 q1 0 3 -1.5t7 -14t2 -12.5q-1 0 -3 1t-7.5 14t-1.5 13zM138 -12q0 -20 19 -31l51 -23q-17 -13 -13 -13q10 -3 30 -1q22 2 30 1l13 -14q31 -8 72 0l20 20q15 5 26 3q18 -3 21 -3q19 38 19 93q1 -2 7.5 -23.5t6.5 -23.5q3 20 3 34q0 12 -2.5 26.5t-2.5 25.5t2 27q-5 1 -14 -20 l-6 33q-25 0 -54.5 4t-41.5 4q-11 0 -23 -2l-13 -13q-5 -1 -81 -5q-28 -1 -45 -15q-5 -4 -8 -18q-4 -19 -5 -21q-11 -29 -11 -45zM151 252q5 1 9 -1q6 -2 -4 -7q26 2 39.5 4t6.5 3t-40 0q-6 0 -11 1zM156 33h19q13 -1 14 -2q-29 1 -33 2zM326 85q0 8 4 8q6 0 6 -5 q0 -6 -9 -16q0 -1 -1 13zM326 295q1 12 8 9q2 -1 2 -5q0 -8 -9 -22q0 9 -1 18zM326 336q0 8 4 8q6 0 6 -5q0 -6 -9 -16q0 -1 -1 13zM333 259q0 6 3 6q7 0 7 -5q0 -4 -9 -9zM440 297l6 -13q0 1 1 10q0 3 -7 3z" />
<glyph unicode="b" horiz-adv-x="627" d="M-4 47q0 60 11 101q15 20 13 20l-20 47q-2 11 7 41q2 27 -1 85q-3 71 -3 98q0 42 4 72q-8 0 -8 7q0 10 8 20q0 11 -2.5 39.5t-2.5 43.5q0 24 5 38q9 4 20 13q1 8 0 20q-1 2 -27 7q0 41 20 101q21 -6 38 -8q12 -1 32 0q24 1 38 1q1 -9 0 -27h-14v-13h27q-9 -62 -9 -138 q0 -98 16 -151q9 -1 27 0q12 15 33 34q12 -1 34 0q6 1 33 19q23 15 41 14q11 -1 23.5 -13.5t16.5 -13.5q5 -1 11.5 7.5t15.5 6.5q6 -9 14 -20q3 -1 7.5 3t12.5 3q20 -1 38 -18q15 -14 29 -29q4 2 20 7q-1 -8 0 -20l14 -7q2 -4 26 -74q1 -6 1 -11q0 -10 -4.5 -28t-2.5 -28 q0 -1 9.5 -6.5t10.5 -7.5q2 -5 2 -12q0 -10 -4.5 -28t-4.5 -20q0 -3 1.5 -27.5t1.5 -39.5q0 -40 -10 -41q-2 0 -2 -3q0 -8 16 -30q1 -7 1 -16q0 -39 -20 -102q-19 -58 -35 -77q-17 -8 -40 -27q0 -9 -7 -20q-6 2 -20 0q-4 -10 -14 -20q-9 -3 -26 -1q-20 2 -27 1l-14 -14 q-20 -5 -39 -5q-39 0 -82 22l-60 37h-27q-9 -23 -20 -47q-10 -6 -55 -9t-60 2q-3 6 -13 14q3 25 3 56q0 28 -3.5 86t-3.5 86zM134 108l14 -14q0 -6 -4 -20t-4 -23q0 -5 1 -10q2 -9 16 -25q17 -21 18 -23q3 -14 13 -33q7 -5 23 -9q21 -4 24 -5q64 -22 78 -22q9 0 16 2 q5 12 14 27q6 5 36 21q25 13 31 26q2 4 2 7q0 5 -5.5 12.5t-3.5 14.5q4 3 10 6.5t10 6.5q1 5 0 38q0 17 21 36q1 2 -9 14q-6 6 -12 13v13q1 -4 2 -4q2 0 5 11q0 5 -13 88q13 8 6 33q-9 5 -20 14q-1 2 -13 34q-7 18 -20 26q-10 1 -27 7q-7 6 -10 26q-2 16 -12 16q-5 0 -12 -2 l-7 -27q-67 0 -114 -27v-40q-7 3 -7 11v16q-5 -3 -12 -6.5t-14 -0.5q-3 -5 -14 -20q4 -14 7 -40l-14 -54q-1 -17 3 -43.5t4 -37.5q-9 -22 -7 -33zM170 771q0 15 11 16v-27q-11 -3 -11 11zM181 269v9q0 5 3 5q7 0 7 -4t-10 -10zM181 565q0 18 7 168q0 -17 -7 -168zM187 234 q0 9 4 9q6 0 6 -5q0 -6 -9 -16q0 -1 -1 12zM302 41q33 1 41 0q11 -1 12 -2q0 -1 -19 0q-17 0 -31 1t-3 1zM309 -94v-13h14q-4 2 -3 7.5t-11 5.5zM320 137q1 -1 3 -2q5 4 8 4q4 0 4 -6q0 -9 -6 -25q-14 29 -9 29zM396 199q-1 9 0 13q2 6 7 3q3 -1 3 -5q0 -8 -9 -22 q0 -1 -1 11zM402 239q0 19 8 17v-34q-8 0 -8 17z" />
<glyph unicode="c" horiz-adv-x="634" d="M-1 65q-1 13 0 33q1 37 1 35v-52q-1 -11 -1 -16zM-1 148q0 5 3 5q7 0 7 -5q0 -4 -9 -9zM-0.5 33q-0.5 9 0.5 12q1 5 6 3q3 -1 3 -5q0 -7 -9 -20q0 1 -0.5 10zM6 178v17q0 13 7 9q2 -1 2 -5q0 -7 -9 -21zM12 -8q0 6 3 6q7 0 7 -5q0 -4 -9 -9zM38 -60q0 6 3 6q7 0 7 -5 q0 -4 -9 -9zM78 308v8q-1 6 2 6q7 0 7 -5q0 -4 -9 -9zM84 185q9 20 20 51q-2 15 0 46l45 97q6 6 22.5 9.5t22.5 9.5q3 3 7 21t13 25q5 4 16 4t16 2q12 13 33 26q7 1 12 -3t8 -4t6 1q9 7 18 13q17 13 33 13q10 0 26.5 -6.5t19.5 -6.5q20 1 58 0q-1 -3 7 -13q-19 -13 -13 -13 q8 -1 14.5 6t11.5 13l58 -32v-13q7 -4 22.5 -3.5t22.5 -3.5q19 -9 19 -32q0 -13 -12 -19h-7q-2 -8 3 -16t5 -14q0 -4 -1.5 -10t-38.5 -38q-3 2 -12.5 0.5t-13.5 -0.5t-7.5 13t-5.5 13t-104 39q-9 0 -29 -9q-23 -10 -29 -11q-9 -1 -23.5 3t-15.5 4q-8 -9 -19 -20 q-48 -29 -63 -77q-11 -31 -15 -111q-3 -9 -5 -18q-4 -17 -2 -27l13 -13q2 -32 7 -71q8 -4 19 -13q2 -13 13 -33q8 -7 29 -13t30 -13q4 -11 13 -26q8 9 19 20q5 1 16.5 -6.5t20.5 -7.5q4 0 8 1q-5 8 -5 10q0 5 12 3q16 -2 13 -4q-5 -3 -9 -5q-5 -5 9 -11q-38 -4 -38 -10 q1 -2 5 -3l7 -19q29 7 32 6q0 13 7 33q5 5 19.5 7.5t19.5 5.5q11 11 52 39l12 19q22 -19 27 -25q2 -3 19 -33h13q-2 -10 0 -26q3 0 10 4q2 1 9 -4q-16 -28 -51.5 -57.5t-63.5 -39t-118 -13.5q-1 1 -7 13q-12 2 -24 -2.5t-21 -4.5q-27 4 -52 13q-2 6 -6 13q-16 0 -46 7 l-58 51v13h-13q-3 6 -3 19t-3 20q-14 13 -33 39q1 9 0 26q-9 11 -19 26q-18 79 -7 156zM382 -60q0 6 3 6q7 0 7 -5q0 -4 -10 -9v8z" />
<glyph unicode="d" horiz-adv-x="684" d="M0 267q0 -3 7 73q0 -81 -6 -81q-1 1 -1 8zM6 364q-1 9 0 13q2 6 7 3q3 -1 3 -5q0 -8 -9 -22q0 -1 -1 11zM6 415q0 6 3 6q7 0 7 -5q0 -4 -9 -9zM13 140v18q0 12 7 9q2 -1 2 -5q0 -8 -9 -22zM13 433q0 -1 0 9q0 6 3 6q7 0 7 -5q0 -4 -10 -10zM37 163q0 38 3 70 q0 3 6.5 27.5t6.5 26.5q0 -4 -2 50q-1 29 9 50q8 1 20 6q5 5 5 20t2 20q6 13 25 17q23 6 27 9t7 17.5t7 16.5q12 6 28 4q25 -4 19 -4l7 20q22 8 64 8q43 0 62 -8l7 -13q9 -3 33 -4q17 -1 27 -9q1 -8 7 -20q11 -8 28 -12q25 -5 32 -8q8 30 4 85q-6 84 -6 92q0 36 8 63 q10 24 7 26q-16 14 -13 80q1 1 13 7q70 -2 113 -13q0 1 -2 -124q-2 -74 2 -123l6 -49q4 -37 1 -58q-6 -13 -13 -40q-1 -24 9 -82q10 -61 10 -92q0 -29 -6 -52l-13 -14q-1 -11 10 -49t10 -44q0 -4 -13.5 -17.5t-13.5 -15.5q-2 -15 8.5 -22t11.5 -12q8 -33 -7 -173 q-52 -9 -120 0q-4 19 -13 53h-20q-4 -9 -13 -20q-2 -1 -9.5 0t-10.5 0q-15 -4 -54 -29q-34 -23 -60 -24q-6 0 -53 8.5t-53 11.5q-7 12 -20 27q-8 -1 -20 0l-67 53q-4 8 -4.5 21t-2.5 19l-13 13q-23 86 -23 210zM39 489q-1 6 3 6q8 0 8 -5q0 -4 -10 -10zM165 171q0 -23 2 -44 l13 -34q1 -12 -3.5 -33t-3.5 -27q13 -10 27 -26q2 -7 -3.5 -12.5t-3.5 -7.5q4 -5 20 -8t20 -6q11 -15 27 -33q12 -5 61 -3q52 2 72 10q7 11 20 26q1 0 27 7q6 33 20 100l13 13q1 8 -6 27q-2 10 -2 21q0 14 5 42q4 25 3 37q-6 3 -13 7q0 41 -7 86q1 0 -13 7q0 -1 -1 -13 q0 -3 -6 -7q2 11 0 33l-13 7q-17 26 -28.5 31t-58.5 9v-20q0 -8 -6 -13q-5 12 -5 30q-1 11 -18 11q-9 0 -24 -1q-57 -5 -88 -73q-27 -59 -27 -143zM173 567q8 0 24 -3.5l16 -3.5q-63 6 -40 7zM312 179q0 9 4 9q6 0 6 -5q0 -6 -9 -16q0 -1 -1 12zM319 209q0 5 3 5q8 0 8 -4 t-10 -10zM327 267q0 43 6 40q3 -2 3 -7q0 -11 -9 -33zM332 39q0 9 4 9q6 0 6 -5q0 -6 -9 -16q0 -1 -1 12zM332 739q0 9 4 9q6 0 6 -5q0 -6 -9 -16q0 -1 -1 12zM333 240v9q-1 5 3 5q7 0 7 -4t-10 -10zM333 320v9q-1 5 3 5q7 0 7 -4t-10 -10zM333 513q0 -1 0 9q0 6 3 6 q7 0 7 -5q0 -4 -10 -10zM333 560v9q-1 5 3 5q7 0 7 -4t-10 -10zM333 600v9q-1 5 3 5q7 0 7 -4t-10 -10zM425 251q0 18 8 16v-34q-8 0 -8 18zM426 149q-1 6 0 9q2 5 7 2q3 -1 3 -4q0 -6 -9 -16q0 -1 -1 9zM426 489q-1 6 2 6q2 0 5 -1.5t3 -3.5q0 -4 -9 -10q0 1 -1 9zM427 580 q0 41 6 167q0 -31 -3 -88q-3 -66 -3 -79zM433 47v8q0 6 3 6q7 0 7 -5q0 -4 -10 -9zM433 80v29q0 21 7 18q3 -1 3 -8q0 -12 -10 -39zM433 207v8q0 6 3 6q7 0 7 -5q0 -4 -10 -9zM503 284q0 -4 10 -11q6 7 6 11q0 6 -12 3q-4 -1 -4 -3z" />
<glyph unicode="e" horiz-adv-x="603" d="M3 81q6 -3 6 25q0 -10 -6 12q0 -3 3 11.5t3 19.5q0 -3 -3.5 2t-2.5 10q9 61 16 89q12 51 28 79q8 4 18 12q11 24 25 50h12q2 9 13 24q8 2 24 7q2 6 7 12q49 20 117 12q1 3 0 10q-1 2 7 3q17 2 57 -4t60 -15q10 -11 25 -25h12q-1 -8 0 -18q15 -3 38 -13q5 -4 7 -18 t5.5 -19.5t18 -15t18.5 -15.5q23 -40 23 -111q0 -30 -4 -62q0 4 1 4q2 0 5 -10l-8 -33t-17 -23t-69 -7q-36 0 -132 4q-84 4 -109 3q-30 -5 -74 -13q6 -40 25 -111q2 2 3 2q2 0 3.5 -3l1.5 -3q3 0 10 23v-38q21 -10 56 -24q9 1 25 0l6 -13q7 -1 16 -1q58 0 120 32 q11 12 25 25q15 -3 25 -6q6 1 19 0q11 -4 49 -56q-31 -43 -118 -81q-10 -8 -24 -18q-22 -6 -67 -9q-49 -3 -70 3l-24 18q-15 0 -44 6q-7 8 -18 19q-35 20 -47.5 31.5t-33.5 42.5q-16 15 -37 44q1 11 0 31q-8 17 -19 43q0 5 7 37q-9 1 -10.5 7t-2.5 12zM128 219q0 -43 55 -45 q9 0 27 6t22 6q9 0 13 -5.5t6 -6.5q28 -8 87 0q27 9 74 18q-6 37 -9 49q-5 21 -16 38q-26 39 -49 50q-31 14 -74 14q-13 0 -25 -2l-7 -12q-10 1 -31 0q-16 -5 -43 -38q-30 -37 -30 -72zM210 274q4 1 8 -1q5 -1 -4 -6q23 2 36.5 3.5t7.5 2.5q-7 1 -38 0q-5 0 -10 1zM232 -12 q11 1 35.5 -2.5t26.5 -3.5q-13 0 -42 2.5t-20 3.5zM263 -235q10 0 32 -3t24 -3q-11 0 -39 3t-17 3zM270 62h37l11 -1q-12 -1 -17 -1q-16 1 -29 1.5t-2 0.5zM467 52q0 5 3 5q7 0 7 -4t-9 -9zM473 24q0 8 3 8q6 0 6 -5t-8 -14z" />
<glyph unicode="f" horiz-adv-x="448" d="M0 442l7 61q28 3 36 5q24 7 31 22q10 21 6 69q-5 52 1 73q2 8 17 18t17 15v41q7 3 52 30q34 20 56 24q16 3 32 3q18 0 44 -4q37 -5 46 -6q6 -5 13 -13q6 -16 2 -47q-2 -30 -9 -41h-13q-1 0 -7 -10t-7 -10q-12 -5 -37 -4t-37 -3l-7 -14q-11 -2 -27 -13q-6 -13 -9 -44 q-3 -32 2 -51q7 -31 52 -34h77q9 -31 13 -81h41q-2 0 -20.5 -2.5t-26.5 -3.5q-1 -1 -7 -14q-10 -1 -27.5 3t-19.5 4l-14 -14q-25 -6 -61 -6q-4 -37 -4 -85q0 -29 3 -99q2 -61 1 -93q-3 -80 -5 -160t5 -144q-8 -1 -27 -7v-7q-10 -3 -25 -3q-16 0 -42 4q-32 6 -34 6 q0 12 -7 40q6 -1 7 1q1 1 0 6t0 7h7q-7 12 -14 27q-1 14 9 25t11 15q3 16 -4 16q-1 0 -2 -2q-1 0 -0.5 5t-1.5 5q-2 -1 -5 -3q7 107 0 135l-14 13q-1 8 6.5 35.5t7.5 32.5l-7 7q1 30 1 60q2 39 13 48v13q-11 29 -21 108q-34 10 -67 14v17q-1 6 -7 10zM216 -112h41l12 -1 q-13 -1 -19 -1q-17 1 -31.5 1.5t-2.5 0.5zM284 741q0 -7 13 -15q7 10 7 15q0 8 -13 5q-7 -1 -7 -5zM290 3q-1 6 0 10q0 4 3 4q7 0 7 -5q0 -6 -9 -16q0 1 -1 7zM290 -36q-1 6 3 6q7 0 7 -5q0 -4 -9 -10zM290 167q-1 6 3 6q7 0 7 -5q0 -4 -9 -10zM291 253q-1 13 2.5 42t3.5 32 q0 -82 -5 -82q-1 1 -1 8zM296 42q0 9 4 9q7 0 7 -5q0 -6 -10 -16q0 -1 -1 12zM296 -86q0 9 4 9q7 0 7 -6t-10 -16q0 -1 -1 13zM296 140q0 6 4 6q2 0 4.5 -1.5t2.5 -3.5q0 -4 -10 -10zM296 205q0 27 8 27v-54q-8 0 -8 27zM398 377q-1 6 0 9q2 5 7 2q3 -1 3 -4q0 -6 -9 -16 q0 -1 -1 9zM405 591v17q0 13 7 10q3 -1 3 -5q0 -8 -10 -22z" />
<glyph unicode="g" horiz-adv-x="696" d="M0 100q-11 58 0 124q0 3 9.5 21.5t9.5 24.5q1 9 -8 38q-8 26 -5 40q9 5 20 13q-1 9 0 26q4 14 29 46t36 39q10 -1 26 0q8 10 20 20q8 1 12 -3.5t7 -3.5q6 2 27 19q18 13 32 14q11 1 47.5 -4t44.5 -9q4 -2 4 -12.5t2 -13.5q7 -2 20 -13q19 6 20 6q6 -5 19 -19q32 -2 39 18 q9 26 13 28q13 7 37 7q15 0 42 -3.5t33 -3.5q0 -3 -4 -7.5l-4 -4.5q0 -1 1 -2q14 -7 14 -76q0 -32 -5 -120q-4 -75 -2 -98l13 -39q1 -13 -6 -26q-7 -16 -7 -20q-3 -30 0 -98t0 -98q0 4 1 5q2 0 5 -11q-2 -15 0.5 -39t-0.5 -40l-13 -19q2 -36 -6 -105q-6 -3 -14 -6 q-3 -16 -13 -46q-11 -4 -26 -13q1 -8 0 -20q-1 -5 -48 -40t-56 -38q-12 -4 -35 -4q-27 -1 -37 -3l-13 -13q-13 -3 -69 5q-52 9 -69 15q-9 3 -24 19t-21 20q-16 4 -46 20q-19 15 -19 26q-1 16 -1 32q15 14 40 33q8 -2 19 0l13 33q10 1 26 0q4 -2 7 -13t6 -13q10 1 27 0 q4 -9 13 -20l27 -17q5 -5 18 -29l20 13q-8 2 -10 10q0 2 -3 3q49 -8 43 -8q15 0 35 8q4 2 4.5 10.5t2.5 9.5q17 5 39 20q4 6 2 19l-2 13q11 -1 26 0q9 4 20.5 28.5t12.5 37.5q1 9 -5 38l-8 40q-9 1 -26 0q-4 -1 -8 -13t-5 -13q-7 -4 -22 -4h-4q-13 0 -20 -3q-21 -15 -59 -32 q-8 -1 -18 -1q-41 0 -96 22q-51 21 -76 45.5t-45 65.5q-23 49 -20 90q0 1 6.5 16t6.5 17l-13 6q-2 5 -6 33zM127 219q0 -18 10 -139q-2 -18 0 -52q10 -30 57 -61q51 -33 98 -33q11 0 21 2q8 9 20 20q6 -2 20 0q7 3 14 17q11 20 12 22q8 4 19 13q12 19 13 64v67q3 11 5 22 q4 20 2 30l-13 13q-1 13 6 23l7 10q1 7 -2 20q-4 18 -5 26h-32q8 5 26 6q1 6 0 20q-9 5 -20 13q-21 29 -32 34l-53 12v13h-65q-8 -2 -46 -33h-13q-5 -2 -8 -11q-3 -12 -5 -15q-11 -8 -26 -26q-10 -26 -10 -77zM189 93q0 2 7 66q0 -74 -6 -74q-1 1 -1 8zM195 63q-1 5 2 5 q8 0 8 -4t-9 -10q0 1 -1 9zM195 171q0 8 4 8q5 0 5 -5q0 -6 -8 -15zM201 -12q0 8 4 8q6 0 6 -5t-9 -15q0 -1 -1 12zM201 34q0 8 4 8q6 0 6 -5q0 -6 -9 -16q0 -1 -1 13zM201 230q0 8 4 8q6 0 6 -5t-9 -15q0 -1 -1 12zM294 54q0 27 3 76q3 59 3 68q0 -27 -3 -76q-3 -59 -3 -68 zM594 -186q0 21 7 18q3 -1 3 -7q0 -12 -10 -39v28zM600 -7q0 17 7 15v-32q-8 0 -7 17zM600 -141q0 9 7 6q3 -1 3 -5q0 -5 -9 -15q0 7 -1 14zM606 39q0 17 8 15v-33q-8 0 -8 18zM606 -46q0 17 8 15v-33q-8 0 -8 18zM606 257q0 26 8 26v-52q-8 0 -8 26zM607 -88q0 6 3 6 q7 0 7 -5q0 -4 -10 -9v8zM607 119q0 -1 0 12q0 9 4 9q5 0 5 -5q0 -6 -9 -16zM607 165v25q1 18 7 14q3 -1 3 -6q0 -11 -10 -33zM613 102q0 5 3 5q8 0 8 -4t-10 -10z" />
<glyph unicode="h" horiz-adv-x="752" d="M0 89q0 26 8 26v-53q-8 0 -8 27zM1 17q0 5 3 5q2 0 4.5 -1t2.5 -4t-9 -9zM1 164q-1 6 3 6q7 0 7 -5q0 -4 -9 -9zM1 254q-1 9 0 13q2 6 7 3q3 -1 3 -5q0 -8 -9 -22q0 -1 -1 11zM7 195q0 9 4 9q2 0 4 -1t2 -4q0 -6 -9 -16q0 -1 -1 12zM8 35v9q0 5 3 5q7 0 7 -5q0 -4 -10 -9 zM8 129v9q0 5 3 5q7 0 7 -5q0 -4 -10 -9zM8 283v9q0 6 3 6q7 0 7 -5q0 -4 -10 -10zM8 458v28q1 22 7 19q3 -1 3 -8q0 -12 -10 -39zM8 565v28q1 22 7 19q3 -1 3 -8q0 -12 -10 -39zM101 20q0 9 4 9q6 0 6 -5q0 -6 -9 -16q0 -1 -1 12zM101 -35q1 13 8 9q2 -1 2 -5q0 -7 -9 -21 q0 9 -1 17zM101 73q1 13 8 9q2 -1 2 -5q0 -7 -9 -22q0 9 -1 18zM101 213q0 19 8 17v-34q-8 0 -8 17zM102 626v8q0 6 3 6q7 0 7 -5q0 -4 -10 -9zM108 -74q0 9 4 9q6 0 6 -5q0 -6 -9 -16q0 -1 -1 12zM108 177q1 9 8 6q2 -1 2 -4q0 -7 -9 -17q0 7 -1 15zM109 95q0 45 7 41 q3 -1 3 -7q0 -11 -10 -34zM109 438q0 17 7 174q0 -20 -7 -174zM115.5 258.5q-0.5 7.5 0.5 9.5q1 4 6 2q3 -1 3 -4q0 -6 -9 -16q0 1 -0.5 8.5zM129 270l20 60v14q-6 -4 -13 33q0 -3 3.5 9.5t3.5 17.5q1 32 0 87q-7 10 -14 34q-1 18 7.5 62.5t6.5 71.5q0 2 -5 27q-4 22 -4 36 q0 10 2 18l13 13v32q0 10 27 15q8 2 17 2q12 0 35.5 -4.5t34.5 -4.5q9 -79 0 -295q0 -8 7 -40q8 2 13.5 -3t13.5 -4l20 20q10 -1 27 0q2 9 7 20q11 8 56 15t58 5q12 -2 32 -16.5t28 -16.5q10 -2 20 4t20 3l7 -14q8 -1 27 -7v-33q4 -7 34 -27q38 -26 40 -27v-13 q0 1 1.5 -15.5t1.5 -25.5q0 -13 -3 -13q2 -7 -3.5 -13t-3.5 -14q12 -12 27 -40q1 -7 1 -14q0 -19 -10.5 -41.5t-10.5 -25.5q0 -5 6.5 -8.5t6.5 -4.5q2 -6 2 -14q0 -12 -4.5 -32t-4.5 -21q-3 -49 14 -114q-2 -2 -9.5 -7l-10.5 -7l13 -20q2 -11 -5 -20q-8 -12 -8 -13 q-1 -10 6 -74q-7 0 -20 -4q-1 0 -6 -16l-7 -7q-10 -3 -23 -3q-15 0 -40 4q-29 6 -31 6q0 61 13 141q2 7 6 6t4 2q0 4 -10 18q-11 31 -11 92q0 32 5 49l13 14q-2 11 -4 11q-2 -1 -3 -4v8q1 7 -2 7l-4 -2l6 54q3 34 0 53l-13 7l-19 50.5t-28 36.5q-10 2 -27 7l-7 13 q-24 9 -54 9q-62 0 -93 -29q-6 -13 -20 -33q-12 -7 -27 -20q-3 -6 -1 -20q2 -15 1 -21l-14 -13q-3 -10 -3 -21q0 -12 5.5 -35.5t4.5 -37.5q0 -4 -3.5 -10.5t-3.5 -2.5q6 -24 7 -14q0 -43 -3.5 -106.5t-3.5 -91.5q0 -52 7 -104q-4 -2 -4.5 -7t-2.5 -6q-24 -13 -60 -13 q-21 0 -60 6q-1 5 -1 10q1 1 -6 3q4 18 13 54q-12 10 -12 9q0 2 6 5q1 0 2.5 4t10.5 2q-20 62 -20 144q0 48 7 98q-2 -19 -7 67q0 2 7 12t6 22q0 1 -10 19t-10 21zM324 -99q0 50 6 47q3 -2 3 -8q0 -13 -9 -39zM330 -14q0 18 7 15q3 -1 3 -7q0 -10 -10 -33v25zM330 35 q0 17 3 51q4 41 4 43q0 -17 -3 -51q-4 -41 -4 -43zM330 162v9q0 6 3 6q7 0 7 -5q0 -4 -10 -10zM330 203v17q0 13 7 10q3 -1 3 -5q0 -8 -10 -22zM336 151q0 6 3 6q8 0 8 -5q0 -4 -10 -10zM351 -106q7 0 23.5 -3.5l16.5 -3.5l-32 4q-22 3 -8 3zM417.5 -37q-0.5 7 0.5 10 q1 4 6 1q3 -1 3 -4q0 -6 -9 -16q0 2 -0.5 9zM417.5 312q-0.5 7 0.5 10q1 4 6 1q3 -1 3 -4q0 -6 -9 -16q0 2 -0.5 9zM423 148q0 9 4 9q7 0 7 -5q0 -6 -10 -16q0 -1 -1 12zM424 -10q0 6 3 6q7 0 7 -5q0 -4 -10 -10q0 -1 0 9zM431 189v26q0 18 7 15q3 -1 3 -7q0 -11 -10 -34z M646 95l7 -13q8 -2 8 1q0 10 -15 12z" />
<glyph unicode="i" horiz-adv-x="365" d="M-1 197q0 9 4 9q6 0 6 -5q0 -6 -9 -16q0 -1 -1 12zM-1 383q0 6 3 6q8 0 8 -5q0 -4 -10 -10zM-1 440q1 13 8 9q2 -1 2 -5q0 -8 -9 -22q0 9 -1 18zM-1 648q0 19 8 17v-34q-8 0 -8 17zM0 87q0 4 20 4q4 0 27 -7q-17 -12 -13 -14q-34 11 -34 17zM6 479q0 19 8 17v-34 q-8 0 -8 17zM7 -4q0 44 7 40q3 -1 3 -7q0 -10 -10 -33zM7 300q0 45 7 41q3 -1 3 -7q0 -11 -10 -34zM19 241q0 6 3 6q8 0 8 -5q0 -4 -10 -10zM94 146q0 6 3 6q8 0 8 -5q0 -4 -10 -9zM94 234q0 6 3 6q8 0 8 -5q0 -4 -10 -9zM94.5 646.5q-0.5 7.5 0.5 9.5q1 4 6 2q3 -1 3 -4 q0 -6 -9 -16q0 1 -0.5 8.5zM95 347v9q-1 6 3 6q7 0 7 -5t-10 -10zM100 16q0 27 8 27v-54q-8 0 -8 27zM101 64v17q0 13 7 10q3 -1 3 -5q0 -8 -10 -22zM101 165v29q0 21 7 18q3 -1 3 -7q0 -13 -10 -40zM101 273q1 1 0 9q-1 6 2 6q2 0 5 -1.5t3 -3.5q0 -4 -10 -10zM101 462v18 q0 12 7 9q3 -1 3 -5q0 -8 -10 -22zM107 113q0 6 4 6q2 0 4.5 -1.5t2.5 -3.5q0 -4 -10 -10zM107 311q1 13 8 9q2 -1 2 -5q0 -7 -9 -22q0 9 -1 18zM149 138q5 2 13 20h27v14l-33 20q6 8 13 20q1 3 1 53t-1 55l-13 7q-11 29 -7 81q6 29 13 95q4 2 14 6q28 -8 46 -8q14 0 55 8 q2 -20 2 -45q0 -20 -2 -62t-2 -64q0 -24 2 -45l14 -13q3 -11 3 -22q0 -12 -4 -30l-6 -29q-3 -20 -3 -47q0 -24 3 -79t3 -83q0 -35 -3 -62q-2 -45 -7 -128h-34q-2 4 -6 14q-10 0 -30 -7t-24 -7q-9 0 -14 3.5t-13 3.5q7 134 -7 331zM149 726q0 23 11 43q12 15 23 31 q25 -5 87 -7q3 -6 7 -13q12 -8 12 -34q0 -13 -12 -81q-97 -2 -121 0q-1 10 -4 35q-3 22 -3 26zM169 -51h34v13q-6 1 -27 7q-2 -8 -7 -20zM233 736q0 -4 10 -10q7 7 7 11q0 3 -6 3q-11 0 -11 -4z" />
<glyph unicode="j" horiz-adv-x="335" d="M0 -262q-8 32 7 27q6 -10 13 -20q-3 1 -20 -7zM0 -363q22 2 45.5 3.5t35.5 10.5q3 11 13 27q8 -1 20 6q-1 10 0 27l14 14q2 6 2 13q0 11 -8.5 37t-7.5 44l14 7q-3 20 -3 47q0 23 3 69.5t3 67.5q0 26 -3 45q0 1 -7 16.5t-7 17.5q-1 29 6 63q8 39 21 51q1 1 1 2q0 5 -14 11 q1 10 0 27v48l-14 13q-1 4 -1 8q0 9 7.5 17t7.5 9q4 20 4 42t-5 60q-5 42 -6 59q8 3 19.5 8t14.5 6q15 3 33 7q18 1 30.5 -4t23.5 -10q-1 7 2 7q1 0 6 -3.5t6 -3.5q0 -124 -7 -175q-7 -2 -7 -12t7 -30.5t7 -24.5q3 -27 3 -56q0 -44 -10 -119q0 -23 -4 -23q-1 1 -3 2l14 -20 q2 -7 2 -72q-1 -63 -2 -69l-14 -21q-2 -29 6 -84q8 -61 8 -89q0 -33 -7 -62l-40 -68q-6 -5 -23.5 -10.5t-23.5 -9.5q-1 -9 -7 -20q-6 1 -20 0q-9 -9 -21 -20q-21 -6 -49 -6q-45 0 -52 -1l-13 34v20q2 -2 20 -14l14 -6l-7 27q-21 -1 -20 0q-5 11 -5 28q-1 28 -2 32z M80.5 -71.5q-0.5 7.5 0.5 9.5q1 4 6 2q3 -1 3 -4q0 -6 -9 -16q0 1 -0.5 8.5zM80.5 -145.5q-0.5 7.5 0.5 9.5q1 4 6 2q3 -1 3 -4q0 -6 -9 -16q0 1 -0.5 8.5zM87 -46q2 1 5 7t9 6t7 -3q0 -6 -21 -10zM87 -102q0 13 7 9q3 -2 3 -5q0 -8 -10 -22v18zM87 115v18q0 12 7 9 q3 -1 3 -5q0 -8 -10 -22zM87 277v9q0 6 3 6q7 0 7 -5q0 -4 -10 -10zM87 425v26q0 18 7 15q3 -1 3 -7q0 -11 -10 -34zM94 1q-3 48 0 94v-94zM118 761q0 16 3 28q12 11 27 27q36 -6 81 -20q3 -10 13 -27q-1 6 1 7q1 1 5.5 0t7.5 0q0 -76 0 -66q-1 -39 -14 -42q-7 -2 -33 7 q-22 3 -41 1q-24 -2 -40 -1q0 4 -6 38q-4 29 -4 48zM138 -163q0 -4 10 -11q5 6 5 10q0 6 -12 3q-3 -1 -3 -2zM172 646q2 2 10 2q9 0 10 -2l-1 -6q0 -4 4 -6q-23 11 -23 12zM188 -114v-13q13 -3 13 2q0 9 -13 11zM222 715q20 3 20 13q0 8 -13 7z" />
<glyph unicode="k" horiz-adv-x="655" d="M-3 468q0 17 3 29.5t27 34.5l-14 33q-3 14 -1 41q2 32 1 40q0 3 -5.5 27.5t-7.5 39.5q1 1 20 13q1 10 -6.5 26.5t-7.5 25.5q0 5 1 9l13 13q4 -1 114 -7q-1 -5 -7 -8.5t-6 -4.5q-2 -7 -2 -18q0 -19 7 -57q7 -47 8 -53q2 -23 2 -51q0 -26 -2.5 -80.5t-2.5 -82.5 q0 -37 3 -68h-27v-26h27q0 -88 7 -141l47 20v13q10 2 27 14q-1 8 0 20l33 40q4 3 25 9q16 5 18 18q-1 15 4 40q3 5 20 7.5t21 6.5q-1 11 0 26q3 11 34 31t34 24t2.5 12.5t2.5 13.5q17 -5 61 -20q-12 10 -12 21q0 5 5 6q6 2 21 -3.5t26 -3.5q1 0 9 6t11 7q-3 1 -3 2q0 3 23 5 l7 -20q-2 -3 -9.5 -3.5t-10.5 -3.5q-5 -15 -14 -33q-8 -11 -30 -27.5t-30 -26.5q1 -7 0 -20q-3 -7 -22 -21q-22 -15 -25.5 -19t-3.5 -13.5t-3 -13.5t-9.5 -4t-10 -3t-4 -10t-2.5 -10q-5 -8 -22 -21q-23 -17 -25 -19q22 -48 22 -65q0 -13 -9 -16q11 -1 13 -1q3 0 21 1 q15 -42 40 -80l13 -7q-2 -10 0 -27q1 0 10.5 -3t9.5 -4q5 -4 8 -15q3 -14 6 -18q9 -4 20 -14q-1 -10 0 -27q6 -21 80 -100q-1 -3 -4 -20q-1 -9 -9 -14l34 -13q-1 0 -2 -8.5t-5 -8.5q-3 0 -7 3l-3 -6.5t-4 -6.5q-6 -1 -12 -1q-20 0 -41 14q-12 0 -26.5 -5.5t-21.5 -5.5 q-9 0 -19 5l-7 20h-13q2 8 0 20q-9 2 -21 7q-11 11 -25 53q-17 52 -22 61q-9 6 -20 20q2 7 0 20q-4 7 -23.5 23t-23.5 24q-3 22 -13 54q-13 19 -30 19q-25 0 -57 -39l-38 -42q-25 -29 -29 -46q-3 -12 0 -24l6 -23q0 5 -3 -9t-3 -17q0 5 3 -6.5t3 -14.5q-5 -2 -6 -37v-57 q-19 1 -44 -2.5t-34 -3.5q-24 0 -50 13q0 3 3 110q2 64 -3 105q-1 5 2.5 14.5t4.5 5.5q-9 57 -7 74q0 5 8 32q6 23 5 35l-13 27q-2 12 -2 27q0 19 4.5 58t4.5 56q0 9 -5 46t-5 58zM187 289q0 9 4 9q2 0 4 -1t2 -4q0 -6 -9 -16q0 -1 -1 12zM187 569q1 13 8 10q2 -1 2 -5 q0 -8 -9 -22q0 9 -1 17zM188 -79q0 25 7 127q0 -23 -3 -68q-4 -51 -4 -59zM188 323q0 18 3 52q4 40 4 42q0 -17 -3 -51q-4 -39 -4 -43zM194 258q-1 6 3 6q7 0 7 -5q0 -4 -9 -9zM195 478q0 43 6 40q3 -1 3 -7q0 -11 -9 -33zM281 -83q0 19 8 17v-33q-8 0 -8 16zM281 576 q1 13 8 9q2 -1 2 -5q0 -7 -9 -22q0 9 -1 18zM288 -24q0 6 3 6q2 0 4.5 -1t2.5 -4t-9 -9zM289 377q0 50 6 47q3 -1 3 -8q0 -13 -9 -39zM289 458q0 50 6 47q3 -2 3 -9q0 -13 -9 -38zM442 346q0 5 3 5q8 0 8 -4t-10 -10zM462 178q0 12 5 12q1 0 3 -1q4 -10 4 -17q0 -11 -11 -10 q0 -2 -1 16zM529 409q0 1 1 2q9 4 27 13q-13 -25 -13 -27q-15 7 -15 12zM610 426q0 6 3 6q7 0 7 -5t-9 -10z" />
<glyph unicode="l" horiz-adv-x="356" d="M0 256q3 13 7 21q-10 85 0 335q0 -4 -1 -4q-2 0 -6 11v134q1 26 7 34.5t27 12.5q2 0 47 -7h13q9 -3 27 0q2 -8 13 -20q0 -36 1.5 -99t1.5 -90q0 -98 -16 -160q0 4 13 -13q-1 14 0 40l1 8q-1 0 -1 -109v41h-6v-41q4 -2 13 -6q-2 -30 0 -94q-2 -2 -7.5 2l-5.5 4 q-3 -3 -3 -7t4.5 -10t4.5 -7q0 -4 -13 -2v-14q9 -5 9 -10q0 -2 -2 -3q9 21 13 20q-9 -87 -9 -159q0 -88 16 -110q2 -5 13 -13v-7q16 -6 60 -6q2 -11 7 -41q18 0 18 -5q0 -3 -8 -3q-5 0 -10 2v-9q-1 -6 3 -6q2 0 4 1q-6 -14 -7 -27v-27q-8 -2 -20 -13q-7 1 -60 4q-38 2 -54 9 q-8 15 -27 34q-12 -1 -33 7q1 11 0 27q-10 4 -21 13q-7 15 -6 41q1 39 0 46q-4 42 -2 138q1 89 -5 137zM121 558h13l-3.5 25t-2.5 16q-3 -16 -7 -41zM221 48v9q0 6 3 6q7 0 7 -5q0 -4 -10 -10zM221 464v9q0 6 3 6q7 0 7 -5q0 -4 -10 -10zM227 26q1 13 8 9q3 -1 3 -5 q0 -8 -10 -22q0 9 -1 18zM227 93q1 13 8 9q3 -1 3 -5q0 -8 -10 -22q0 9 -1 18zM227 131q0 6 4 6q2 0 4.5 -1.5t2.5 -3.5q0 -4 -10 -10zM227 173q1 13 8 10q3 -2 3 -5q0 -8 -10 -22q0 9 -1 17zM227 339q0 6 4 6q2 0 4.5 -1.5t2.5 -3.5q0 -4 -10 -10zM227 421q0 19 8 17v-34 q-8 0 -8 17zM228 230v25q0 18 7 15q3 -1 3 -7q0 -11 -10 -33zM301 -48q1 13 8 9q3 -1 3 -5q0 -8 -10 -22q0 9 -1 18z" />
<glyph unicode="m" horiz-adv-x="956" d="M3 -7q-5 56 18 126q-2 1 -10 28t-8 32q0 4 6 21.5t6 20.5q3 23 3 50q0 17 -3 69q-2 42 0 66q42 12 46 12q12 0 26 -6l6 -12q2 0 8 4t10 4q3 0 6 -2q4 -14 12 -30q5 -2 18 0t18 0v15q0 6 6 9q1 -9 6 -30v18q17 1 54 12v12q41 24 71 24q21 0 30.5 -8.5t11.5 -9.5q11 5 36 6 q2 -8 6 -18q4 -2 26 -7q17 -4 22 -11q2 -15 6 -30q24 -10 66 0q20 5 30 26t12 22q7 4 24 4t24 2l5 12q4 1 6.5 -5.5t11.5 -6.5q1 0 24 18q9 2 23 2q31 0 68.5 -10t46.5 -22q3 -13 12 -36l24 -18q10 16 12 12q-1 -10 0 -30q9 -8 18 -17q2 -10 -4 -26l-8 -22q14 -3 36 -6 q0 -22 5 -53q6 -36 7 -43q1 -11 -3.5 -27t-4.5 -22t2 -11q8 -7 8 -10q0 -2 -2 -3t-12 -35q-2 -16 -2 -35q0 -25 5 -71t5 -68q0 -33 -8 -59l-18 -24q-18 0 -54 6l-12 12q-8 1 -12 -3t-12 -3l-6 108q11 7 24 18q-9 4 -24 12q0 14 3 36q3 28 3 29l18 6q1 -1 3.5 -6.5t8.5 -5.5 l3 6q4 -1 9 0v18q-8 0 -36 -6q-4 11 -12 30q2 2 2 5q0 7 -8 19q2 -1 2 -5q0 -6 -8 -19q7 48 7 94q0 19 -1 38h12v6q-4 16 -12 36l-18 6q-1 4 -1 8q0 6 4 15.5t4 15.5q0 4 -1 9q-4 4 -12 18q2 0 -22 -3q-15 -2 -26 3q-9 14 -24 29q-3 1 -28 -1t-32 -4.5t-20.5 -18 t-20.5 -17.5h-12q2 -13 0 -30q-4 -3 -12 18q-33 -73 -36 -162q0 -39 6 -36q-3 -3 -18 -30l24 -36q9 2 24 0q-33 -14 -33 -21q0 -2 2 -10.5t2 -17.5q0 -7 -1 -16q-2 -4 -18 -12q19 -66 19 -91q0 -45 -62 -45q-22 0 -53 4q-1 14 -1 32q0 26 4 93q4 60 3 90q0 7 -8 39 q-6 27 -4 45l12 24q4 27 -8 75q-10 44 -22 63q-7 11 -20.5 17.5t-27.5 12.5q-36 18 -69 18q-28 0 -80 -18q0 -1 5 -17q3 -9 1 -19q-1 -4 -12 18q-20 -29 -42 -72q-1 -7 -1 -16q0 -17 6 -48q6 -35 7 -50q-1 1 -3 1t-2 -7q0 -12 5 -36q-7 1 -7 -8q0 -10 7 -28q-1 -2 -9.5 -9.5 t-8.5 -8.5q-1 -4 -1 -8q0 -8 6.5 -16.5t6.5 -10.5q1 -6 2 -39q1 -38 -2 -51q0 -2 -6.5 -9t-5.5 -15l7 -7t5 -17q-5 -5 -12 -18q-26 -8 -51 -6l-51 6q0 27 5 86q3 50 1 81zM147 346q2 -8 6 -18l4 2q0 3 -4 9t-6 7zM159 424q0 39 6 36q2 -1 2 -6q0 -10 -8 -30zM165 11 q0 20 3 55q3 44 3 47q0 -17 -3 -54.5t-3 -47.5zM170 247q0 5 3 5q7 0 7 -4t-9 -9zM247 217q0 5 3 5q7 0 7 -4t-9 -9zM248 113v13q0 8 6 5q2 -1 2 -4q0 -5 -8 -14zM248 179v8q-1 5 2 5q7 0 7 -4t-9 -9zM248 275v12q0 9 6 6q2 -1 2 -4q0 -5 -8 -14zM253 249q0 16 7 14v-30 q-7 0 -7 16zM254 65v8q-1 5 2 5q7 0 7 -4t-9 -9zM296 370q1 -5 1 -17q0 -8 5 -13q-2 -6 2 -6q5 0 16 6v30h-24zM362 334q6 -6 12 -18h24v42q-13 2 -30 6q-4 -7 -6 -30zM386 418q0 33 6 30q3 3 5 3q1 0 1 -4q-1 -5 0 -5q4 -3 -12 -24zM506 442q18 0 36 -6q-15 2 -29 3 q-19 3 -7 3zM535 235q0 5 3 5q7 0 7 -4t-9 -9zM536 53q0 45 6 42q2 -1 2 -7q0 -11 -8 -35zM541 133q0 5 3 5q7 0 7 -5q0 -3 -9 -8zM542 23q0 19 2 19t4 -1t2 -3q0 -5 -8 -15zM672 490q2 5 7 6q13 3 19 3q5 0 5 -2q0 -3 -11.5 -9t-14.5 -6v1l2 1q-8 0 -7 6zM679 406h12 q-3 2 -2 7t-10 5v-12zM721 328l6 -12v9q1 3 -6 3zM739 131q0 39 6 36q2 -1 2 -6q0 -10 -8 -30zM739 203v12q0 9 6 6q2 -1 2 -4q0 -5 -8 -14zM799 251q30 11 30 10q0 3 -24 8q-2 -7 -6 -18zM805 -66v-24q3 -1 6 -1q6 0 6 7q0 16 -12 18z" />
<glyph unicode="n" horiz-adv-x="715" d="M7 108q0 -3 7 72q0 -80 -6 -80q-1 1 -1 8zM13 74q0 9 4 9q5 0 5 -5q0 -6 -8 -16zM13 203q0 9 1 13.5t6 2.5q3 -1 3 -5q0 -8 -9 -21q0 -2 -1 10zM13 268q-1 13 0 33q1 37 1 35v-52q-1 -11 -1 -16zM50 398q0 9 16 16v-32q-16 8 -16 16zM99 160l13 39q0 7 -3.5 15.5 t-3.5 10.5q1 5 20 46q-9 3 -15.5 37t-6.5 67q0 16 2 26q10 13 20 33q0 15 -6 15q-1 0 -1 -2v20q6 -2 20 0q5 2 18 16t20 16t9 2q-5 -4 -5 -5q1 -2 3 -3l2 1q5 0 -21 -21l6 -13q11 0 33 7q5 3 5 12l1 14h27q0 13 6 -65q16 3 46 13q1 9 6 19q9 2 15 -5.5t11 -7.5q4 6 20 13 l6 26q5 2 10 2q9 0 24 -7.5t19 -7.5q35 1 32 26q4 1 7 1q8 0 12 -6.5t7 -7.5q13 -4 41 -5q24 -1 38 -8q10 -5 23 -30t22 -29q8 2 20 0q8 -9 15 -31q5 -17 11.5 -34.5t12.5 -64.5q-10 -29 -10 -44q0 -10 5 -10q3 1 5 2q-3 -26 -3 -53q0 -19 2 -55.5t2 -55.5t-1 -38 q-8 0 -8 -4q0 -3 4 -6.5t4 -2.5q0 2 0 -13q0 -4 -7 -7q15 -91 7 -163h-20q1 -12 0 -26q-24 -9 -46 -9q-69 0 -69 65q0 14 4 29l14 13q0 5 -4.5 18.5t-4.5 22.5q0 5 2 11q10 5 20 13q1 10 -9 26.5t-11 19.5q-9 44 -9 93q0 80 22 161q-5 3 -13 3t-13 3t-8 16.5t-5 16.5 q-15 25 -46 42q-34 19 -74 19q-12 0 -24 -2q-20 -3 -48 -20q-31 -18 -36 -32v-13l-9 1q-7 2 -11 -8q-15 -41 -15 -133q0 -49 9 -50q0 -39 -3.5 -102t-3.5 -92q0 -51 7 -99q-49 -13 -40 -13q-10 -2 -20 -2q-9 0 -71 15q3 15 7 33q2 18 -7 58l7 46q3 22 3 42q0 23 -9 72 q-8 46 -7 88zM319 200q1 9 8 6q2 -1 2 -4q0 -5 -9 -16q0 7 -1 14zM320 -73q1 21 7 18q3 -1 3 -7q0 -13 -10 -39v28zM326.5 -14q-0.5 7 0.5 10q1 4 6 1q3 -1 3 -4q0 -6 -9 -16q0 2 -0.5 9zM398 319q0 5 3 5q7 0 7 -5q0 -4 -9 -9zM410 158q0 17 8 15v-32q-8 0 -8 17zM417 -74 q1 9 8 6q2 -1 2 -4q0 -5 -9 -16q0 7 -1 14zM417 123q0 5 3 5q8 0 8 -4t-10 -10zM417 197q1 12 8 9q2 -1 2 -4q0 -8 -9 -22q0 8 -1 17zM418 -11q0 18 7 15q3 -1 3 -7q0 -11 -10 -33v25z" />
<glyph unicode="o" horiz-adv-x="648" d="M23 54q0 26 3 64q5 49 5 56h-6q-2 29 6 84l13 7q2 11 4 49q0 27 9 41q3 5 16.5 11t16.5 9q-1 7 0 19q9 3 19 7q8 16 26 38q3 3 10 1t9 -1q5 2 17 16.5t16 16.5q21 9 90 13q82 5 97 0q-5 -31 0 -33q8 -3 16.5 5t9.5 8q12 2 23.5 -3l22.5 -10q4 -30 6.5 -32.5t38.5 -12.5 q1 -15 6 -32q9 -8 16 -8q3 0 6 1.5t4 1.5q7 0 20 -34l13 -7q-2 -15 0 -45q0 -1 9 -15t10 -17q3 -20 -1 -52q-5 -49 -5 -52q-1 -23 2 -54q3 -34 3 -49q0 -25 -5.5 -53t-42.5 -80t-61 -68q-10 -7 -32 -13t-33 -13l-6 -13q-9 -3 -29 -3t-29 -3l-7 -13q-32 -6 -65 6l-6 13 q-5 1 -10 1q-8 0 -21.5 -4t-20.5 -3q-9 2 -30.5 19t-27.5 19q-7 -2 -20 0q-19 12 -32.5 36.5t-25.5 48.5q-17 20 -39 58q-8 32 -8 74zM146 104q0 -30 2 -46q1 -4 12 -35q9 -25 7 -37q-5 -3 -13 -19q9 -3 16 0l10 6q13 -35 17 -37l35 -8l7 -13q7 -2 12.5 2.5t12.5 4.5l39 -13 q5 0 38.5 11t40 15t13.5 22t12 23q8 0 19 6q3 6 1 20t-1 19q10 9 20 26q2 17 -3.5 49t-3.5 48l13 7q-6 21 -13 64q-1 9 3.5 21.5t4.5 19.5q0 5 -1 11l-72 78q-6 3 -35.5 8t-35.5 5q-23 0 -71 -26q-23 -9 -52 -26q-34 -40 -34 -206zM224 224q0 17 8 15v-33q-8 0 -8 18z M224 314q0 17 8 15v-32q-8 0 -8 17zM239 109q-8 31 6 26v-6l6 -20h-12zM324 456q0 -5 18 -17q3 -1 3 11q0 10 -16 9q-5 0 -5 -3zM336 -20h19q13 -1 14 -2q0 -1 -26 0q-24 1 -7 2z" />
<glyph unicode="p" horiz-adv-x="659" d="M32 28q8 21 8 34q0 12 -8 12l13 27q1 18 -4 55.5t-9 36.5q4 29 3 90q-1 58 4 89q-1 47 0 80v26q14 5 28 9q20 6 34 6q9 0 17 -2q1 0 8.5 -6t11.5 -7q18 11 26 7q5 -2 9.5 -16.5t10.5 -16.5q7 2 20 0l52 36q34 21 61 23q17 1 53 -9.5t46 -10.5q3 0 11 4.5t14 4.5q4 0 8 -2 q8 -3 16.5 -27t10.5 -26q8 -6 30 -10.5t29 -9.5v-13q2 -4 13.5 -10t13.5 -10q1 -4 -3.5 -8t-3.5 -12l13 -13q10 -36 10 -68t-10 -64q16 -13 16 -104q0 -86 -16 -95q5 -35 5 -52q0 -30 -11 -54q-8 -4 -20 -13q1 -6 0 -20q-4 -10 -27 -19q-29 -11 -34 -14.5t-12.5 -20 t-12.5 -19.5q-29 -20 -99 -20q-75 0 -113 20q-19 23 -40 46h-33q-2 -3 -4 -12q-1 -4 -9 -8v-26l2 -51q3 -35 11 -62h20q-4 -3 -27 -6q0 -15 3.5 -54t3.5 -59q0 -33 -7 -53q-8 -6 -19 -20q-57 0 -106 14v19q-7 26 -7 53q4 62 7 166q-2 14 -5 29q-4 24 -2 37l13 33q3 31 -5 81 q-8 57 -8 85zM158 160q14 -1 14 -15q0 -6 -4.5 -22.5t-3.5 -21.5l14 -14q-1 -29 6 -86l20 -26q-2 -14 0 -33q11 1 27 0v-13h20q2 -4 6 -14q13 -1 15.5 9t5 11t5.5 1q4 0 14 -7h-11q6 1 10 0q5 -1 -6 -7q65 9 106 7q1 11 7 33q3 7 25 27q18 18 21 32q2 10 -2.5 21t-4.5 17 q0 4 1 9q0 1 9.5 11.5t9.5 14.5q1 9 -5 40q-8 35 -8 40q-1 16 1 41q1 29 1 38q0 30 -8 53q-11 31 -47.5 50.5t-83.5 19.5q-21 0 -42 -4q-83 -16 -106 -152q-1 -6 2.5 -11t4.5 -2q-3 -9 -13 -47zM203 182q0 6 3 6q8 0 8 -5q0 -4 -10 -9zM203 262q0 5 3 5q8 0 8 -4t-10 -10z M204 -283q0 22 3 64q4 47 4 55q0 -22 -3 -64q-4 -47 -4 -55zM209 125q0 18 8 15v-33q-8 0 -8 18zM217 81v9q0 5 3 5q7 0 7 -5q0 -4 -10 -9zM230.5 43q-0.5 7 0.5 10t6 1q3 -1 3 -4q0 -6 -9 -15q0 1 -0.5 8zM297 366q10 0 33.5 -3.5t26.5 -3.5q-13 0 -42.5 3.5t-17.5 3.5z M382 36q0 6 3 6q8 0 8 -4t-10 -10zM409 293v8q-1 6 3 6q7 0 7 -5q0 -4 -10 -9zM415 123q0 5 3 5q8 0 8 -5q0 -4 -10 -9zM415 232q0 9 4 9q6 0 6 -5q0 -6 -9 -16q0 -1 -1 12zM415 275q0 6 4 6q7 0 7 -5q0 -4 -10 -10zM416 458h13q-3 2 -2 8t-11 6v-14zM423 167q0 43 6 40 q3 -2 3 -8q0 -11 -9 -32z" />
<glyph unicode="q" horiz-adv-x="646" d="M0 266q0 50 11 82q13 11 27 33q1 7 -4 12.5t-5 8.5t2 6q5 8 18 12q17 4 22 8q7 13 20 33h13q14 19 34 40q5 3 19 1q16 -2 21 -1q22 10 60 20q11 0 36 -6q29 -6 37 -7v-13q10 -4 30 -6.5t30 -7.5q8 -10 20 -20q11 2 33 0l7 40q80 17 120 14q0 -1 4 -30q4 -23 3 -37 q-3 -20 -5 -39q-4 -33 -2 -54l13 -27q0 5 0 -14q1 -8 0 -13q-15 -4 -6 -160l4 -32q3 -27 2 -41q-10 -143 0 -213q1 -5 -2.5 -11t-3.5 -3q0 -14 6 -33q-3 -7 -13 -13v-27q7 -3 7 -82q0 -112 -7 -165h-73l2 -1q-1 -2 -6 -2q-36 0 -43 23q-9 29 -7 80q3 59 0 80q0 -3 3 12.5 t4 21.5q-8 35 -7 46q2 22 2 36q0 40 -19 40q-13 0 -56 -22q-84 -42 -128 -42q-13 0 -25 2q-18 11 -47 26q-11 -2 -27 0q-6 3 -14 17t-12 17l-34 24q-20 15 -26 29q-4 11 -4.5 34t-2.5 33q-9 14 -20 33q-5 25 -2 63q2 44 2 50q0 1 -6 68q-5 46 -5 77zM133 151q0 -103 11 -136 q3 -8 17 -21.5t17 -18.5q1 -12 6 -27q30 -17 105 -17q28 0 42 4q1 0 3 6t4 7q9 -1 26 0q6 2 25 24t22 29q5 12 5 32q0 24 2 35l13 33q1 6 -5.5 79.5t-7.5 74.5q8 19 6 26l-13 7q-40 103 -128 103q-15 0 -32 -3q-11 -9 -27 -20q-35 -15 -49 -25q-23 -16 -31 -42 q-11 -35 -11 -150zM204 108v9q0 5 3 5q7 0 7 -5q0 -4 -10 -9zM210 149q1 9 8 6q2 -1 2 -4q0 -6 -9 -16q0 7 -1 14zM211 -5q0 19 3 54q4 42 4 46q0 -19 -3 -54q-4 -42 -4 -46zM217 -14q2 5 7 2q3 -1 3 -4q0 -6 -9 -16q0 -1 -1 9q-1 6 0 9z" />
<glyph unicode="r" horiz-adv-x="616" d="M2 177q0 6 3 6q8 0 8 -5q0 -4 -10 -9zM3 202v17q0 13 7 9q2 -1 2 -5q0 -7 -9 -21zM3 307q0 -1 0 9q0 6 3 6q7 0 7 -5q0 -4 -10 -10zM9 86q0 19 8 17v-33q-8 0 -8 16zM9 151q0 6 4 6q2 0 4.5 -1.5t2.5 -3.5q0 -4 -10 -10zM9 268q0 26 8 26v-53q-8 0 -8 27zM15 -51 q0 17 8 15v-33q-8 0 -8 18zM15 -178q-1 59 2 69v-52q-1 -16 -2 -17zM16 125q0 5 3 5q7 0 7 -5q0 -4 -9 -9zM108 -124q1 13 8 9q2 -1 2 -4q0 -8 -9 -23q0 9 -1 18zM108 323q0 5 3 5q8 0 8 -4t-10 -10zM109 -16q0 25 7 119q0 -22 -3 -64q-4 -47 -4 -55zM109 123q0 43 7 39 q2 -1 2 -6q0 -10 -9 -33zM114 -76q0 27 8 27v-53q-8 0 -8 26zM142 50q-3 15 0 73l13 59q1 25 -8 79q-8 50 -5 86q6 72 0 119l7 7q74 8 80 8q25 0 52 -8v-33q9 -4 19 -14l54 38q39 25 59 28q53 9 86 0l13 -13q19 3 53 0l26 -33q1 3 3 3t4 -9q-10 -20 -33 -51q-27 -35 -40 -42 h-7v-13q-6 -2 -12 -2q-15 0 -33 13q-21 14 -27 15q-10 2 -21 2q-40 0 -82 -23q-47 -25 -55 -61q1 -20 -1 -56l-13 -27q-6 -34 -6 -70q0 -34 7.5 -96t7.5 -93q0 -20 -2 -38q0 -3 -9 -31t-9 -40q0 -15 11 -15q-7 -21 -7 -20q-17 -3 -35 -3q-10 0 -90 10q0 48 5 104q7 68 8 101 q-7 0 -8 2q0 2 4 4t4 0v27z" />
<glyph unicode="s" horiz-adv-x="682" d="M4 -112q2 14 7 39q33 4 33 9q0 1 -2 1q-4 0 -18 -3q-2 6 0 20q9 2 20 6l26 40q14 -17 40 -40q9 1 26 0q11 -9 26 -20q13 -4 36 -6t37 -7q8 -9 20 -20q17 -4 53 -4t53 4q8 9 19 20l24 8.5t16 11.5q-2 6 0 20q10 7 20 20q3 20 -5 43q-8 18 -15 36q-4 -1 -7 -1q-5 0 -4 6 t-2 8h33q-13 13 -7 13q-60 -16 -105 -13l-27 13q-16 -4 -59 -6q-34 2 -60 13q-2 7 -6 13q-14 -2 -40 0q-12 3 -49 35.5t-43 43.5q-3 7 -3 20.5t-4 19.5l-13 7q-2 7 -2 15q0 14 7.5 34.5t7.5 22.5q2 9 -3 14t-4 13l14 13q-1 10 0 33q2 7 21 29t25 24q12 -2 33 0q5 9 13 19h13 q0 27 0 20q5 3 17 0.5t16 -0.5q0 1 0 -10q0 -5 7 -3l20 33q3 -1 18 -8q12 -6 21 -5q3 6 7 13q9 0 37 4q24 4 29 3q8 -1 15.5 -10t10.5 -10q15 -4 37 -4h36q15 -2 26 -9q4 -12 14 -27q8 -2 12.5 3t7.5 5q10 0 30 -17q27 -23 29 -24q0 -17 -4 -17q-1 1 -3 4q-28 -54 -59 -79 q-24 7 -73 26q-9 10 -20 20q-25 9 -68 9q-57 0 -100 -15q-50 -17 -56 -47q-3 -13 -3 -22q0 -13 8 -19q13 -9 15 -12q32 -49 121 -49q22 0 57 3l7 -20q6 -1 11 -1q8 0 26 5q15 5 29 3q36 -4 80 -44t52 -75q3 -12 3 -41q1 -29 -3 -32q9 -32 6 -46t-32.5 -59.5t-39.5 -52.5 q-6 -4 -16.5 -4t-16.5 -3q-4 -8 -14 -20q-15 -9 -46 -19q-44 -14 -114 -14q-72 0 -124 14q-19 12 -52 26q-7 -1 -20 0q-7 4 -16.5 20t-16.5 20q-19 6 -53 20zM201 -39q0 8 8 6q5 -7 5 -12q0 -8 -12 -8q-1 -6 -1 14zM214 283q0 8 4 8q6 0 6 -5t-9 -15q0 -1 -1 12zM300 232 q1 9 8 6q2 -1 2 -4q0 -6 -9 -16q0 7 -1 14zM374 290q-7 0 86 -6q-16 0 -56.5 3t-29.5 3zM604 81q0 6 4 6q2 0 4.5 -1.5t2.5 -3.5q0 -4 -10 -10zM611 55q0 5 3 5q7 0 7 -5q0 -4 -9 -9zM617 -8q0 9 4 9q6 0 6 -5q0 -6 -9 -16q0 -1 -1 12z" />
<glyph unicode="t" horiz-adv-x="529" d="M0 336q0 53 7 50q3 -2 3 -9q0 -13 -10 -41zM56 -18q0 20 8 18v-36q-8 0 -8 18zM56 163q0 9 4 9q2 0 4.5 -1t2.5 -4q0 -6 -10 -17q0 -1 -1 13zM57 514v31q0 23 7 19q3 -1 3 -8q0 -14 -10 -42zM63 -68q0 20 8 18v-36q-8 0 -8 18zM63 478q0 9 4 9q7 0 7 -6t-10 -17 q0 -1 -1 14zM64 14v31q0 23 7 19q3 -2 3 -9q0 -13 -10 -41zM64 93v26q0 20 7 17q3 -2 3 -8q0 -11 -10 -35zM64 186q0 20 3 58q4 45 4 49q0 -20 -3 -58q-4 -45 -4 -49zM136 479v78q23 3 71 7q8 33 9 69q2 24 0 69q-2 58 -2 84l22 7l7 7q33 -10 100 -7q10 -22 21 -57 q2 -22 -6 -56q-8 -37 -8 -51q0 -9 10 -34q10 -28 11 -31q37 0 93 -14q-1 -31 -7 -79q12 0 12 -3q-1 -2 -5 -4q-8 -4 -25 -5q-23 0 -32 -2q-18 -8 -50 -21v-56q-2 -26 -28 -44q-3 -2 -3 -5q0 -7 24 -17q4 -8 4 -34q0 -21 -1.5 -39.5t-2.5 -4.5q2 -18 0 -115v-57q0 -13 7 -50 q0 4 -2 -25q-1 -18 2 -25q12 -28 100 -28q3 -22 7 -72q-1 -18 -7 -50q-5 -1 -9 -7.5t-5 -6.5q-10 -2 -22 -2q-62 0 -135 45q-19 10 -43 28q-2 14 -14 36q-10 2 -22 7q10 5 10 29q0 14 -6 58q-5 39 -4 56q7 99 7 336q-23 4 -23 6q0 1 2 1q21 4 20 14q-1 24 1 29 q-34 12 -78 36zM151 217q0 8 13 12v-15q-13 -3 -13 3zM163 131q0 6 3 6q8 0 8 -5t-10 -11zM170 284q0 10 5 10q2 0 4 -1t2 -4q0 -7 -10 -18q0 -2 -1 13zM171 64v27q1 20 8 16q3 -1 3 -7q0 -11 -11 -36zM171 150v19q0 14 8 10q2 -1 2 -5q0 -8 -10 -24zM171 414v19q0 14 8 10 q2 -1 2 -5q0 -8 -10 -24z" />
<glyph unicode="u" horiz-adv-x="757" d="M2 329q0 19 8 17v-33q-8 0 -8 16zM3 91v8q0 6 3 6q7 0 7 -5q0 -4 -10 -9zM9 8q-1 5 2 5q8 0 8 -4t-9 -10q0 1 -1 9zM9 127q-1 9 0 13q2 6 7 3q3 -1 3 -5q0 -8 -9 -21q0 -2 -1 10zM15 -22q0 9 4 9q6 0 6 -5q0 -6 -9 -16q0 -1 -1 12zM16 51q1 3 0 7.5t0 5.5q1 2 7 1t6 -5 q0 -7 -13 -9zM94.5 238q-0.5 9 0.5 13q1 5 6 3q3 -1 3 -5q0 -8 -9 -21q0 1 -0.5 10zM100 112q0 6 3 6q8 0 8 -5q0 -4 -10 -9zM101 71v9q-1 5 3 5q7 0 7 -4t-10 -10zM101 267q0 17 3 51q4 40 4 41q0 -17 -3 -50q-4 -41 -4 -42zM110 -124q6 1 10 -1q5 -2 -5 -7q26 2 39.5 4 t6.5 3t-40 0q-5 0 -11 1zM114 14q0 6 3 6q7 0 7 -5q0 -4 -9 -9zM126 228q0 7 8 7q-2 20 -2 43q0 21 2.5 65.5t2.5 68.5q0 31 -3 58q7 2 26 7v6q2 -1 20 -6v-13h6q1 2 3 17q1 7 11 9q15 3 29 -1l23 -6q13 -43 13 -135q0 -95 -26 -100q6 -8 13 -20q15 -31 13 -124 q-3 -11 -5 -22q-4 -21 -2 -31l14 -13q-7 -4 -7 -13q0 -8 7 -13l6 -6q-2 -10 0 -27q4 -7 28 -25.5t31 -19.5q8 1 20 0l13 -27q12 -3 24.5 5.5t20.5 8.5q15 -8 40 -14v14q12 0 39 6l-5 7q-4 4 -2 6q15 9 33 26q3 5 1 16q-2 13 -1 17l13 13q5 17 2 37q-3 22 -2 29l13 19 q3 14 0 30l-6 29q7 5 11 35q4 27 2 50l-13 33q-1 11 -1 22q0 15 5 53q4 32 2 56q0 2 -4.5 22t-4.5 33q0 10 3 17q6 3 13 13q4 -1 13 -20q6 -1 20 0q3 2 4 8q1 10 2 12q46 -4 79 -20q0 2 3 -85q2 -53 -3 -85q0 -1 -7 -17t-6 -22q0 -5 9.5 -15t9.5 -11q-1 -9 0 -27 q-16 -6 -39 -19v-13q12 -2 26 -7q8 -19 7 -128q-1 -101 -7 -147q-6 1 -15 -2q-1 -2 -5 -11q13 -10 27 -26q2 -13 -4.5 -27t-14 -18t-38.5 -9.5t-49 -5.5q-8 0 -12 1q-6 8 -20 20v33q-6 2 -13 6q-5 -8 -13 -19q-6 -4 -16.5 -4.5t-16.5 -2.5l-56 -27q-35 -16 -61 -12 q-1 0 -31 9t-35 10q-44 8 -66.5 31.5l-44.5 47.5q-12 7 -26 19q-8 17 -15 62q-10 58 -11 63q11 7 39 19q-3 4 -19 15q-12 8 -14 18q-1 7 -1 14q0 9 4.5 32t3.5 39l-13 20v13q7 3 6 7v13q-8 -2 -8 6zM310 259q0 17 7 15v-33q-8 0 -7 18zM310.5 46.5q-0.5 7.5 0.5 9.5q1 4 6 2 q3 -1 3 -4q0 -6 -9 -16q0 1 -0.5 8.5zM311 339q0 49 6 46q3 -1 3 -8q0 -12 -9 -38zM316 223q0 6 3 6q8 0 8 -4t-10 -10zM317 91v17q0 13 7 9q2 -1 2 -5q0 -7 -9 -21zM317 287v24q0 18 7 15q3 -1 3 -6q0 -11 -10 -33zM318 387q0 8 12 11v-13q-12 -3 -12 2zM323 197q0 6 3 6 q7 0 7 -5q0 -4 -9 -9zM392 168q0 8 10 8q2 0 2 -3q0 -5 -8 -17q-4 7 -4 12zM408 141q0 12 7 9q3 -1 3 -6q0 -7 -9 -21q0 9 -1 18zM408 250q-1 5 2 5q8 0 8 -4t-9 -10q0 1 -1 9zM408.5 -45q-0.5 7 0.5 10t6 1q3 -1 3 -4q0 -6 -9 -15q0 1 -0.5 8zM409 38q0 43 6 40q3 -2 3 -7 q0 -11 -9 -33zM415 7q1 21 7 18q3 -1 3 -7q0 -13 -10 -39v28zM421 271q-1 13 0 33q1 37 1 35v-52q-1 -11 -1 -16zM535 -16q0 -4 18 -11q3 4 3 8q0 7 -16 5q-5 -1 -5 -2z" />
<glyph unicode="v" horiz-adv-x="641" d="M-7 351q65 13 59 13q1 -2 2 -2q3 0 5 7q1 6 -1 8q-7 6 -26 20q-2 3 -7 26q-4 18 -12 20v13q1 8 12.5 19.5t19.5 13.5l13 -13q10 -1 27 1q21 2 27 2q20 0 31 -10v-26q10 -6 20 -13q6 -21 9.5 -55.5t10.5 -55.5q12 -15 26 -40q1 -11 -6.5 -19.5t-6.5 -12.5q12 -5 26 -14 q3 -7 1 -22q-3 -16 -1 -23q12 -9 26 -26q1 -4 1 -7q0 -5 -3.5 -10.5t-3.5 -9.5q0 -2 9.5 -10t9.5 -9q4 -7 4 -25.5t3 -27.5q22 -37 26 -39h13q8 5 17.5 12.5t15.5 20.5q7 17 10 46t9 45q9 5 20 14q1 3 7 39q0 9 -5 18q-4 6 -2 14h13q0 18 7 59q9 -14 13 -13q-1 5 6 13v53 q3 1 7 0q5 -2 6 -2q4 0 7 8q8 23 15 62q9 55 11 63l85 13q4 0 13.5 -3.5t6.5 -3.5l26 -6q2 -19 0 -53q-12 -12 -26 -33q-3 -7 -0.5 -22.5t0.5 -22.5l-13 -7q-6 -10 -11 -29q-8 -26 -9 -30l-13 -6q-3 -7 -1 -23q2 -17 1 -23q-9 -11 -20 -26q2 -9 0 -26l-13 -7q1 -9 0 -26 q-9 -11 -19 -26q-5 -22 -20 -72q-7 -25 -26 -66q-9 -12 -33 -19q-2 -6 -2 -11q0 -6 5 -19t4 -23q-1 -2 -33 -98q-9 -1 -26 -6v-7q-4 -2 -8 -2q-5 0 -9.5 4.5t-8.5 4.5l-20 -13q-4 -1 -21 2.5t-25 3.5q-3 17 -13 53l-13 6q2 14 0 39q-14 21 -33 59q0 13 -6 39q-9 7 -20 20 q-6 17 -10.5 44t-10.5 40.5t-25 46.5q-6 19 -9 52t-10 53q-9 5 -20 13q2 11 0 32q-10 12 -20 27q2 11 0 32h-65zM5 246q0 8 4 8q6 0 6 -5q0 -6 -9 -16q0 -1 -1 13zM18 196q0 6 4 6q2 0 4.5 -1t2.5 -4q0 -4 -10 -9zM31 169q1 9 8 6q2 -1 2 -4q0 -5 -9 -16q0 7 -1 14zM51 105 q0 5 3 5q7 0 7 -5q0 -4 -9 -9zM254 151q-1 6 0.5 9.5t6.5 1.5q2 -2 2 -5q0 -5 -8 -15q0 -1 -1 9zM261 175q0 -1 0 8q0 6 3 6q7 0 7 -4q0 -5 -10 -10zM280.5 222q-0.5 7 0.5 10t6 1q3 -1 3 -4q0 -6 -9 -15q0 1 -0.5 8zM293 268q0 6 3 6q7 0 7 -5q0 -4 -9 -9zM300 279 q0 -1 0 12q0 9 4 9q5 0 5 -5q0 -6 -9 -16zM306 326q1 9 8 6q2 -1 2 -4q0 -5 -9 -16q0 7 -1 14zM319 65q0 6 3 6q8 0 8 -5q0 -4 -10 -9zM358 178q0 18 8 16v-32q-8 0 -8 16z" />
<glyph unicode="w" horiz-adv-x="991" d="M-7 437q1 11 0 32q81 15 123 13q9 -7 20 -19q4 -26 13 -72h32q-8 -2 -32 -6q0 -22 6 -65q12 -17 26 -45q2 -11 -2.5 -30t-3.5 -22q12 -12 26 -33q1 -17 6 -52q10 -23 26 -77q0 -1 4 5.5t2 13.5q9 -16 9 -23q0 -3 -2 -3q-7 -1 -7 -13t4 -12q2 0 3 12l6 -19q6 -2 14.5 2 t8.5 8q-1 2 -3 3h6q5 18 20 65q11 14 26 45q0 22 6 65l20 26q3 20 13 64q4 11 16.5 36.5t15.5 35.5q6 36 19 84q8 -1 20 0v20q24 2 84 0q4 -10 20 -65l26 -91l13 -13q-2 -13 0 -39q0 -1 9 -12t10 -14q0 -20 6 -58q11 -14 26 -39q3 -9 0 -25t0 -27q4 -14 18 -42 q17 -32 21 -42q11 3 26 13q11 18 16 54q7 51 10 62l13 7l20 58q3 16 1 37q-3 21 -1 28q14 30 32 78q3 13 1 33q-2 21 -1 25q9 8 19 20q-2 12 0 32q6 13 23.5 22.5t35.5 9.5l19 -12q20 -1 65 -7q-3 -9 -7 -9q-8 -1 -12 -4q0 1 2 -39q1 -25 -2 -39q-9 -11 -20 -26q2 -13 0 -39 q-12 -16 -26 -38q-6 -18 -10 -52.5t-9 -51.5l-13 -7q-15 -37 -20 -58q2 -11 0 -32l-13 -7q1 -17 -6 -52q-10 -8 -20 -19q0 -19 -6 -59q-3 -11 -58 -142h-104q-9 10 -20 26q2 20 0 58q-2 11 -16 33.5t-16 31.5q2 18 0 52q-11 14 -26 39q1 10 0 26q-8 42 -29.5 100.5 t-41.5 87.5q-8 -1 -20 -7q-1 -3 -26 -58q-7 -15 -9 -47q-3 -36 -10 -57q-12 -15 -26 -39q2 -17 0 -52l-13 -13q-5 -13 -26 -84l-18 -70q-14 -33 -51 -33q-17 0 -41 6l-13 13q-3 0 -7 -4.5t-7 -4.5q-2 0 -5 2v7q-9 4 -11 5v0q4 -3 5 -4q6 -3 7 -3q1 1 -8 8q-12 9 -12 36 q0 37 -1 42q-4 3 -9.5 6.5t-9.5 6.5q-4 11 -4 26v10q0 13 -3 22q-11 15 -26 46q0 22 -6 65q-9 5 -20 13q-3 8 -2.5 25.5t-3.5 25.5q-9 7 -20 20q0 20 -6 58q-11 16 -26 46q1 11 0 32q-11 18 -26 52q2 15 0 45q-2 8 -13.5 24t-12.5 22zM245 366q0 9 7 6q3 -1 3 -4 q0 -6 -9 -16q-1 -4 -1 14zM258 292q0 17 7 15v-32q-8 0 -7 17zM304 132v8q0 6 3 6q7 0 7 -5q0 -4 -10 -9zM350 -127h19q13 -1 14 -2q0 -1 -26 0q-24 1 -7 2zM401 -97q-1 8 0.5 13t6.5 2q2 -1 2 -5q0 -7 -8 -21q0 -1 -1 11zM420 -22q0 6 3 6q7 0 7 -5q0 -4 -9 -9zM446 76 q0 5 3 5q7 0 7 -5q0 -4 -9 -9zM459 118q0 8 4 8q5 0 5 -5q0 -6 -8 -15zM465 147q0 5 3 5q8 0 8 -4t-10 -10zM680 61q0 -1 0 8q0 6 3 6q7 0 7 -4q0 -5 -10 -10zM693 100v17q0 12 7 8q2 -1 2 -4q0 -7 -9 -21zM718 204q1 9 8 6q2 -1 2 -4q0 -5 -9 -16q0 7 -1 14zM731 270 q0 6 4 6q2 0 4.5 -1t2.5 -4q0 -4 -10 -9zM745 300v9q-1 5 3 5q7 0 7 -4t-10 -10zM757 367q0 6 3 6t5 -1t2 -3q0 -5 -9 -10z" />
<glyph unicode="x" horiz-adv-x="731" d="M-2 -205q8 20 13 19v-13l32 -3q-10 -1 -45 -3zM37 266q0 -1 0 8q0 6 3 6q7 0 7 -4q0 -5 -10 -10zM49 -112q0 6 3 6q8 0 8 -5q0 -4 -10 -9zM70 -205h19q13 -1 14 -2q0 -1 -26 0q-24 1 -7 2zM83 -192q25 25 59 65q3 6 2.5 17t3.5 16q6 2 13 7q4 9 6 28q2 16 6.5 23 t16.5 8.5t17 5.5q-1 7 0 20l13 6l48 69q36 53 37 68q2 26 -19 50l-33 36q1 7 0 19l-20 13q0 8 -6 26q-6 10 -48 66q-29 40 -44 72h26q-11 11 -6 13q-21 7 -32 13.5t-27 19.5v13q8 5 33 6q8 -6 19 -13q-4 -1 2.5 -4t10.5 -2q46 8 52 8q21 0 33 -8q2 -14 7 -33h6 q20 -10 44.5 -55t34.5 -50q5 -2 30 -5t25 -4q-3 -2 -22 -4q-7 -1 -27 -6q24 -32 40 -32q10 0 24 15l28 30q-6 1 -16 3.5l-10 2.5q15 4 46 13q-2 16 0 46q1 5 15.5 14.5t16.5 11.5q10 12 40 72q17 0 55 3.5t49 3.5q6 0 40 -7q-2 -15 -13 -39q-15 -4 -33 -13q-5 -9 -4.5 -27 t-2.5 -25h-13q-11 -25 -39 -72q-9 -4 -20 -13q-6 -10 -9.5 -26.5t-9.5 -26.5q-28 -29 -59 -65q-7 -23 0 -53q11 -12 26 -32q14 -31 52 -92q14 -8 33 -26q5 -7 6.5 -22.5t6.5 -23.5q11 -5 26 -19q4 -6 4 -16.5t3 -16.5q5 -9 27 -25t25 -21t3 -13t4 -13q-59 -7 -98 -7 q4 0 -6.5 -3t-13.5 -3q-18 0 -29 10q-3 3 -17.5 22t-32.5 46q2 10 0 26q-7 13 -34 40q-31 30 -38 39q-2 10 -13 26q-8 3 -32 13q-52 -63 -92 -131l-19 -41t-27 -31v-13q-10 -4 -28 -4q-20 0 -64 5.5t-58 5.5zM366 -84q0 10 11 10q-2 -1 -2 -2q0 -5 9 -18q-18 1 -18 10z M448 -190q0 5 3 5q8 0 8 -4t-10 -10zM567 -42l6 -13q0 1 1 10q0 3 -7 3z" />
<glyph unicode="y" horiz-adv-x="658" d="M0 519q9 3 27 7q11 1 46 -2q41 -5 55 -5q21 -37 41 -104l33 -112h21q-17 -11 -14 -34q10 -11 20 -27q4 -9 4 -27t3 -27q9 -8 20 -20q4 -9 4 -24.5t3 -22.5l14 -7q2 -7 3 -37q1 -23 10 -31q11 0 27 -6q13 15 27 33q3 8 0.5 24.5t-0.5 23.5l14 13q-2 14 0 41q4 13 24 40.5 t23 40.5q-3 16 0 54q9 11 20 27q-1 16 0 47l27 48q-1 12 0 33q13 22 34 61q44 -5 135 -13q-16 -38 -40 -102q-3 -11 -3 -30t-4 -30q-11 -15 -27 -41q15 -9 13 -14h-13q-9 -13 -20 -33q-6 -13 -8 -35t-6 -33q-9 -7 -20 -20q1 -11 0 -34q-11 -15 -27 -40q-8 -21 -14 -51 q-7 -33 -13 -51q-13 -21 -34 -61q-6 -16 -10 -39q-5 -26 -10 -42q-14 -22 -34 -61q2 -10 0 -27q-12 -12 -27 -33q-2 -4 -2 -8q0 -5 4.5 -10t4.5 -9q-2 -16 -43 -83t-50.5 -72t-25 -5t-23.5 -3q-1 0 -3.5 -6.5t-3.5 -6.5q-16 -6 -41 -7h-47q-2 5 -20 14q-2 34 0 88 q1 4 13 7.5t14 5.5q1 9 7 20q7 2 23 -1q16 -2 23 1t37 36t32 39q-2 16 0 47q1 5 12 27q9 18 8 34q-1 17 -15 43q-17 32 -19 38q-2 9 2.5 16.5t4.5 10.5q-10 9 -19 21t-13 34q-5 27 -9 39q-12 15 -27 41q-3 10 -3 29.5t-4 31.5q-18 25 -40 61q-4 8 -4 23t-3 24q-9 9 -20 27 q-14 48 -47 142q-8 32 -27 94zM249 251q0 6 3 6q7 0 7 -5t-9 -10zM255 224q0 6 3 6q8 0 8 -5q0 -4 -10 -10zM269 183q0 6 3 6q8 0 8 -4t-10 -10zM282 140q0 9 4 9q7 0 7 -5q0 -6 -10 -16q0 -1 -1 12zM310 53v9q0 6 3 6q7 0 7 -5q0 -4 -10 -10zM350 -390q0 6 3 6q8 0 8 -5 t-10 -10zM377 -344q0 6 3 6q8 0 8 -5q0 -4 -10 -9zM384.5 -316.5q-0.5 7.5 0.5 9.5q1 4 6 2q3 -1 3 -4q0 -6 -9 -16q0 1 -0.5 8.5zM405 -262q0 5 3 5q7 0 7 -5q0 -4 -10 -9v9zM431 -188q0 7 3 7q8 0 8 -6q0 -4 -10 -10zM573 204q0 7 3 7q8 0 8 -6q0 -4 -10 -10zM587 236v8 q0 6 3 6q7 0 7 -5q0 -4 -10 -9z" />
<glyph unicode="z" horiz-adv-x="559" d="M0 -118q4 8 12.5 22t12.5 22q17 -2 18 0q5 6 7.5 22t5.5 21h6q9 5 17 28.5t14 28.5q7 0 19 6q3 13 13 37q1 2 15 19.5t16 18.5h12q8 11 16 31.5t16 30.5l25 32q4 3 12.5 2t12.5 4q-1 7 0 19q14 14 31 37q-2 9 0 25q14 7 31 25q-1 11 0 31q-36 0 -96 4t-87 4q-19 0 -36 -1 q6 0 -12 -13q-4 -1 -25 13h-25v68q-6 23 -6 32l12 12q16 6 37 6q18 0 48 -6q34 -5 46 -6q12 3 38 6q3 0 31 -19q20 9 63 19q99 7 187 -12q0 2 6 37q0 -35 1 -70q0 -47 -7 -67q-3 -10 -30 -30t-32.5 -27t-10 -22t-8.5 -21q-15 -13 -38 -38q-4 -16 -18 -44h-13q-9 -18 -31 -43 h-6q-6 -9 -11.5 -29t-13.5 -28q-3 -3 -9.5 -3.5t-9.5 -2.5q-13 -8 -44 -50q2 -1 2 -4q0 -4 -8 -21q14 1 14 -2q0 -2 -2.5 -4.5t-13 -4.5t-17.5 -14q-3 -5 -12 -37q7 -6 18 -13q35 -5 107 0q5 0 39 8q31 6 42 5l19 -13q18 3 50 0q12 -4 27 -32l10 -24q1 -8 -3.5 -12t-2.5 -13 q0 -2 5.5 -8.5t6.5 -10.5q-18 -11 -12 -12q-14 0 -75 -1q-48 -1 -74 0q-38 1 -57 7l31 19l-6 18q-12 1 -44 7q9 -8 9 -15q0 -2 -2 -9.5t-1 -13.5q-90 -12 -250 -12v6q-14 7 -10 39t-2 36zM93 413q1 0 25 -12v18q-9 -1 -25 0v-6zM130 478q0 5 3 5q7 0 7 -5q0 -4 -9 -9z M156 501q16 0 48 -3l39 -4q-9 0 -33.5 1.5t-42.5 3.5t-11 2zM262 494h19q12 -1 13 -2q-12 0 -25 1q-24 1 -7 1zM324 17q0 8 1 12.5t6 2.5q3 -1 3 -5q0 -7 -9 -20q0 -2 -1 10zM362 82h19q12 -1 12 -2q-26 1 -31 2zM387 501q6 0 56 -7q-12 0 -39.5 3.5t-16.5 3.5zM437 -12 q27 2 38.5 3.5t5.5 2.5h-38q6 0 -6 -6zM450 -149l6 -13q5 -2 8 -2q6 0 0 6t-14 9zM493 1v8q0 5 3 5q7 0 7 -4t-10 -9z" />
<glyph unicode="&#xad;" d="M275 397q10 6 20 15q23 1 60 0q4 0 26 -7.5t29 -7.5q8 5 30 10q33 -1 80 0v-10q11 -1 41.5 2t43.5 3q2 -4 6 -8.5t17 -24.5q15 -24 15 -38q0 -10 -8 -14q-43 -1 -65 0h-275q1 7 -2 12.5t-3 7.5q7 8 15 20q-9 14 -30 40zM370 452v8t5 2q2 -1 3 -3q0 -3 -8 -7zM455 467 q43 2 65 0q17 -1 -6 -1q-19 -1 -44 0q-26 1 -15 1zM550 397l5 -20q8 2 8.5 8t1.5 12h-15zM595 447q-13 14 0 10q3 0 5 -3t1 -6q-1 -2 -6 -1zM660 407v10q0 7 5 5q2 -1 2 -3q0 -5 -7 -12z" />
<glyph unicode="&#xb4;" horiz-adv-x="272" d="M3 673q-1 12 0 42q-1 6 0 17q2 5 35 24q4 6 4 21t2 20q13 36 39 41l67 6q1 0 11 6t13 6q1 0 20 -2.5l27 -3.5q-12 -21 -41 -59q-7 1 -18 0v-6h-6l-6 -17h-12q2 -9 0 -24q-2 -5 -17 -10t-18 -8v-11q-13 -36 -82 -42q-4 1 -18 0zM103 656v8q-1 5 2 5q2 0 4 -1t2 -4t-8 -8z M191 685v9q0 4 6 3t6 -5q0 -5 -12 -7z" />
<glyph unicode="&#x2000;" horiz-adv-x="451" />
<glyph unicode="&#x2001;" horiz-adv-x="903" />
<glyph unicode="&#x2002;" horiz-adv-x="451" />
<glyph unicode="&#x2003;" horiz-adv-x="903" />
<glyph unicode="&#x2004;" horiz-adv-x="301" />
<glyph unicode="&#x2005;" horiz-adv-x="225" />
<glyph unicode="&#x2006;" horiz-adv-x="150" />
<glyph unicode="&#x2007;" horiz-adv-x="150" />
<glyph unicode="&#x2008;" horiz-adv-x="112" />
<glyph unicode="&#x2009;" horiz-adv-x="180" />
<glyph unicode="&#x200a;" horiz-adv-x="50" />
<glyph unicode="&#x2010;" d="M275 397q10 6 20 15q23 1 60 0q4 0 26 -7.5t29 -7.5q8 5 30 10q33 -1 80 0v-10q11 -1 41.5 2t43.5 3q2 -4 6 -8.5t17 -24.5q15 -24 15 -38q0 -10 -8 -14q-43 -1 -65 0h-275q1 7 -2 12.5t-3 7.5q7 8 15 20q-9 14 -30 40zM370 452v8t5 2q2 -1 3 -3q0 -3 -8 -7zM455 467 q43 2 65 0q17 -1 -6 -1q-19 -1 -44 0q-26 1 -15 1zM550 397l5 -20q8 2 8.5 8t1.5 12h-15zM595 447q-13 14 0 10q3 0 5 -3t1 -6q-1 -2 -6 -1zM660 407v10q0 7 5 5q2 -1 2 -3q0 -5 -7 -12z" />
<glyph unicode="&#x2011;" d="M275 397q10 6 20 15q23 1 60 0q4 0 26 -7.5t29 -7.5q8 5 30 10q33 -1 80 0v-10q11 -1 41.5 2t43.5 3q2 -4 6 -8.5t17 -24.5q15 -24 15 -38q0 -10 -8 -14q-43 -1 -65 0h-275q1 7 -2 12.5t-3 7.5q7 8 15 20q-9 14 -30 40zM370 452v8t5 2q2 -1 3 -3q0 -3 -8 -7zM455 467 q43 2 65 0q17 -1 -6 -1q-19 -1 -44 0q-26 1 -15 1zM550 397l5 -20q8 2 8.5 8t1.5 12h-15zM595 447q-13 14 0 10q3 0 5 -3t1 -6q-1 -2 -6 -1zM660 407v10q0 7 5 5q2 -1 2 -3q0 -5 -7 -12z" />
<glyph unicode="&#x2012;" d="M275 397q10 6 20 15q23 1 60 0q4 0 26 -7.5t29 -7.5q8 5 30 10q33 -1 80 0v-10q11 -1 41.5 2t43.5 3q2 -4 6 -8.5t17 -24.5q15 -24 15 -38q0 -10 -8 -14q-43 -1 -65 0h-275q1 7 -2 12.5t-3 7.5q7 8 15 20q-9 14 -30 40zM370 452v8t5 2q2 -1 3 -3q0 -3 -8 -7zM455 467 q43 2 65 0q17 -1 -6 -1q-19 -1 -44 0q-26 1 -15 1zM550 397l5 -20q8 2 8.5 8t1.5 12h-15zM595 447q-13 14 0 10q3 0 5 -3t1 -6q-1 -2 -6 -1zM660 407v10q0 7 5 5q2 -1 2 -3q0 -5 -7 -12z" />
<glyph unicode="&#x2013;" horiz-adv-x="500" d="M100 250v100h300v-100h-300z" />
<glyph unicode="&#x2014;" horiz-adv-x="1000" d="M100 250v100h800v-100h-800z" />
<glyph unicode="&#x2018;" horiz-adv-x="275" d="M-12 828q11 6 32 20q30 -14 72 -23q35 -8 48 -18q20 -15 35 -56l13 -7v-38q4 0 10 -3q0 -1 3 -10q-8 -2 -19 -7q-28 -24 -40 -24t-25 11l-6 13q-9 2 -10 -3q0 -2 2 -5q-2 1 -5 2q3 6 6 13q2 7 0 13q-2 4 -13 7t-13 6q0 10 -6 25q-10 8 -25.5 9.5t-32.5 3.5q9 3 26 7 q-17 14 -52 64zM34 670q0 5 6 3q14 -4 14 -18q0 -10 -8 -7q-1 0 -6.5 9t-5.5 13z" />
<glyph unicode="&#x2019;" horiz-adv-x="234" d="M-9 682v8q-1 5 2 5q6 0 6 -4t-8 -9zM6 715q1 2 9 2t9 -1q0 -1 -1 -5q0 -4 3 -6q-5 2 -11 4q-9 4 -9 6zM26 696q-1 2 1 5t5 4q11 2 11 -1q0 -2 -5 -6t-6 -4q-5 -1 -6 2zM49 651q0 8 3 8q2 0 4 -1t2 -3q0 -5 -8 -14zM73 647q0 51 12 106q11 0 35 5v12q-3 2 -23 -6 q-2 25 -18 59q21 16 30 18q7 2 22 -1q10 -3 19 -5q2 -31 -6 -88h-24v-12l22 -30q3 -7 8 -47q-9 -2 -16.5 3t-13.5 3q-1 -4 0 -17h-17v-6q-14 3 -30 6zM91 676l6 -12v9q1 3 -6 3z" />
<glyph unicode="&#x201c;" horiz-adv-x="306" d="M-16 869q2 0 19 6q14 4 19 4q9 -2 25 -5q23 -91 58 -158q-26 -14 -33 -14q-11 4 -31 9q-20 45 -43 107q6 3 15 9q1 1 1 3q0 7 -20 11q-3 10 -10 28zM34 897q1 2 5 0q7 -3 -2 -9q0 1 -1.5 4.5t-1.5 4.5zM50 879q0 2 5 0q7 -4 -2 -10q0 1 -2 5t-1 5zM84 902q0 2 4 0 q8 -4 -1 -10q0 1 -2 5t-1 5zM99 860q15 -45 15 -52v-1q-11 0 -14 24q-1 15 -1 29zM133 804q2 2 7 5l6.5 2t10.5 2q-3 4 -19 14q-1 14 5 38q2 2 7 2.5t6 1.5l26 -9q16 -42 24 -79q5 0 16 -5h-14q13 -40 13 -38q0 -6 -5 -8q-1 0 7 -6.5t7 -7.5q-5 -4 -17 -4q-21 -1 -23 -1 q5 -1 -6 -3l-11 -2l-13 10q-9 12 -15 42q-9 38 -12 46zM193 884q0 4 2 4q4 -13 14 -37q-5 0 -10.5 12.5t-5.5 20.5zM205 839q0 3 3 2q6 -3 7 -32q-10 25 -10 30z" />
<glyph unicode="&#x201d;" horiz-adv-x="294" d="M3 785q21 12 21 13q0 6 -17 10q-1 5 0.5 14.5t-0.5 13.5q3 0 20.5 4.5t21.5 4.5q8 -1 24 -4q-11 -89 0 -159l-38 -14q-9 4 -28 10q0 23 -2 54q-2 39 -2 53zM68 854v8t5 2q2 -1 2 -2q0 -3 -7 -8zM77 836v6q-1 4 1 4q6 0 6 -3t-7 -7zM114 780q0 8 2.5 27t2.5 20 q0 -13 -2 -37q-2 -27 -3 -10zM119 859v7q0 4 5 2q2 -1 2 -2q0 -3 -7 -7zM126 699q0 11 3.5 36t3.5 36q3 1 10 4.5t18 4.5q-1 3 -14 14q4 14 19 37q5 1 14 5l23 -9q0 -41 -5 -79q5 0 14 -5q-3 -1 -14 0v-28q0 -15 -9 -19q6 -6 9 -14q-4 -2 -42 -4q8 -2 -18 -5q-4 4 -10 9 q-2 7 -2 17zM217 775q0 35 4 33q2 -1 2 -6q0 -9 -6 -27zM220 836q0 18 6 18v-37q-6 0 -6 19z" />
<glyph unicode="&#x2026;" horiz-adv-x="1110" d="M716 -70q0 16 42 57v-38q-15 -3 -25 -25q-17 -3 -17 6zM732 -107q0 14 14 18q6 2 10 2q6 0 6 -4q0 -7 -16 -23q-14 -3 -14 7zM771 -190q18 5 50 13q-10 8 -38 25l23 38q14 24 15 38q0 -2 -7 21t-7 39q0 9 2 15q18 11 38 26q12 -10 12 -26q0 -15 -12 -25q-5 0 18 2 q15 1 19 -2q-26 -18 -26 -23q0 -2 1 -2q29 -10 83.5 -13.5t80.5 -11.5q6 -52 13 -101l-50 -38q-11 -2 -26 -2q-31 0 -94 11q-77 14 -95 16zM834 -76v-26h25q-6 4 -6 9q0 2 1 5.5t1 4.5q0 7 -21 7zM924 6q0 5 11 6q19 2 37 -4q25 -9 26 -9q35 13 38 13v-25l-41 -10 q-24 -5 -35 -3q-5 2 -19 12q-17 13 -17 20zM346 -70q0 16 42 57v-38q-15 -3 -25 -25q-17 -3 -17 6zM362 -107q0 14 14 18q6 2 10 2q6 0 6 -4q0 -7 -16 -23q-14 -3 -14 7zM401 -190q18 5 50 13q-10 8 -38 25l23 38q14 24 15 38q0 -2 -7 21t-7 39q0 9 2 15q18 11 38 26 q12 -10 12 -26q0 -15 -12 -25q-5 0 18 2q15 1 19 -2q-26 -18 -26 -23q0 -2 1 -2q29 -10 83.5 -13.5t80.5 -11.5q6 -52 13 -101l-50 -38q-11 -2 -26 -2q-31 0 -94 11q-77 14 -95 16zM464 -76v-26h25q-6 4 -6 9q0 2 1 5.5t1 4.5q0 7 -21 7zM554 6q0 5 11 6q19 2 37 -4 q25 -9 26 -9q35 13 38 13v-25l-41 -10q-24 -5 -35 -3q-5 2 -19 12q-17 13 -17 20zM-24 -70q0 16 42 57v-38q-15 -3 -25 -25q-17 -3 -17 6zM-8 -107q0 14 14 18q6 2 10 2q6 0 6 -4q0 -7 -16 -23q-14 -3 -14 7zM31 -190q18 5 50 13q-10 8 -38 25l23 38q14 24 15 38q0 -2 -7 21 t-7 39q0 9 2 15q18 11 38 26q12 -10 12 -26q0 -15 -12 -25q-5 0 18 2q15 1 19 -2q-26 -18 -26 -23q0 -2 1 -2q29 -10 83.5 -13.5t80.5 -11.5q6 -52 13 -101l-50 -38q-11 -2 -26 -2q-31 0 -94 11q-77 14 -95 16zM94 -76v-26h25q-6 4 -6 9q0 2 1 5.5t1 4.5q0 7 -21 7zM184 6 q0 5 11 6q19 2 37 -4q25 -9 26 -9q35 13 38 13v-25l-41 -10q-24 -5 -35 -3q-5 2 -19 12q-17 13 -17 20z" />
<glyph unicode="&#x202f;" horiz-adv-x="180" />
<glyph unicode="&#x205f;" horiz-adv-x="225" />
<glyph unicode="&#x2122;" horiz-adv-x="1678" d="M728 136q0 6 10 66q6 44 4 76q-1 11 -6 42q-4 26 -4 42t3 31l13 21q2 20 -2 53q-5 39 -5 55q0 10 1 20q0 4 9 29q6 21 4 32l-20 21q-2 13 5 24q8 15 8 16q4 24 -6 109q19 -3 39 -7q23 -3 35 0q4 1 10.5 13.5t9.5 13.5q14 -1 41 0q-4 0 -4 -1q0 -2 11 -6q2 -5 2 -10 q0 -6 -4 -16t-5 -14q20 -17 23 -20q8 -8 18 -28q17 -28 40 -81q-1 -12 0 -34q2 -5 14.5 -14t13.5 -13q-2 -10 0 -27q-4 -2 -13 -4q-4 -1 -8 -10q8 1 14 1q40 0 40 -43q0 -16 -6 -39q11 -7 23 -13q13 -9 13 -18q0 -10 -16 -23q19 -11 41 -34q-2 -10 0 -27q12 -7 27 -20 q5 -12 5.5 -46.5t0.5 -35.5q10 -2 21 -7q2 -3 7 -23q4 -14 13 -17q14 2 41 0q10 8 20 20q4 9 4 27t3 27q11 14 27 41q-1 10 0 27q13 11 27 27q4 9 4 25t3 23q20 26 47 67q4 9 4 24.5t3 23.5q1 1 7.5 3.5t6.5 3.5q-2 11 0 27l27 6q4 12 3 38t4 37h6q4 2 8 17.5t7 17.5t16 0 t17 -1q3 6 13 13q-2 3 -5 8t-3 9q0 2 2 4q6 3 13 7l-2 1q0 -1 29 -1q23 -20 24 -20l17 33q-13 -2 -34 0q-6 3 -6 11q0 10 6 23q-7 5 -18 5q-19 0 -23 -12l7 -27h-13q3 48 7 57q2 2 40 38q17 -2 47 -7q0 -9 7 -20q3 -1 6 -1t11 5t17 3q11 -9 27 -21q-5 -13 -20 -47 q-5 1 -12 7t-8 6q-4 1 -8 1q-7 0 -15.5 -3.5t-10.5 -3.5q4 -3 5 -11q0 -13 1 -16q25 -2 61 -14q-8 -73 -9 -75q-6 -12 -52 -27v-27q30 -14 61 -34q2 -6 2 -15q0 -12 -4 -31t-4 -21h-21q2 -9 0 -21q11 -5 27 -13v-75h-13q-4 -4 0 -20q17 -11 17 -141q0 -67 -4 -117 q0 -6 -7 -54q-7 -42 -6 -54q1 -11 7 -18t6 -9q3 -13 3 -28q0 -20 -6 -47q-10 -38 -10 -40q-40 -11 -57 -11q-16 0 -25 15q-15 23 -33 36l-21 7q-3 9 7 20q2 11 2 21q0 11 -3 27.5t-3 24.5q0 11 4 22q9 0 9 3q0 2 -2 4l-14 14q2 7 7 40q12 7 14 7q6 0 -21 20q1 1 0 21 q0 -4 -1 -4q-2 0 -5 10q2 44 6 109q0 7 8 44q6 34 6 44q-8 36 -20 102q-12 -6 -28 -21q-5 -9 -6 -30t-7 -31q-2 -4 -14 14q-8 -10 -20 -27q-6 -14 -13.5 -47.5t-13.5 -47.5q-14 -17 -34 -48q-3 -10 -3 -30.5t-4 -30.5h-13q-4 -22 -21 -67q-9 -5 -20 -14q1 -9 0 -20 q-5 -3 -47 -7q15 -10 27 -14v-13q-74 -7 -78 -7q-45 0 -58 20q-6 10 -11 43q-6 37 -9 46q-13 14 -27 40q-1 9 4 18.5t3 15.5q-2 3 -28 7q-16 54 -52 131q-44 93 -56 126h-14q-1 -2 -7 -10.5t-6 -9.5q-13 -49 -7 -176q0 -4 3.5 -13.5t3.5 -6.5q-4 -11 -6 -11q-1 1 -1 4v-17 q0 -7 7 -10q-2 -20 0 -61q-15 -27 -14 -34q7 -3 14 -7q0 -165 -14 -217h-20q-37 -24 -60 -24q-21 0 -62 24v20q3 11 5 43q2 26 3 47q-1 3 -1 5q7 24 7 48q0 17 -9 67q-8 44 -5 82zM771 562q1 -2 2 -2q3 0 9 3q19 21 12 21q-2 0 -4.5 -1t-10.5 -9.5t-8 -11.5zM803 624l33 -27 q-1 5 -6 13q-9 4 -27 14zM828 -160q0 -4 22 -9q-3 2 -3 6q1 5 0 6q-2 3 -11 1q-8 -1 -8 -4zM910 289q0 3 8 3q9 0 9 -3t-16 -11zM952 441l6 -20q3 -2 7 -2q9 0 9 7q0 10 -22 15zM952 563l6 -21q1 -5 1 14q0 7 -7 7zM1040 -81h40q12 -1 13 -1q-14 -1 -19 -1q-17 1 -31.5 1.5 t-2.5 0.5zM1108 -60q3 0 6 -1q8 -2 8 -10q0 -5 -8 -3q-14 14 -6 14zM1147 231q1 10 8 7q2 -1 2 -4q0 -7 -9 -17q0 7 -1 14zM1189 305q0 -1 0 9q0 6 3 6q7 0 7 -5q0 -4 -10 -10zM1228 392q0 9 4 9q7 0 7 -5q0 -6 -10 -16q0 -1 -1 12zM1263 129q8 -3 12 -3q6 0 6 4 q0 15 -18 19q1 -5 0 -20zM1277 509q5 37 7 27q3 -12 6 -34q-6 3 -13 7zM1289 -35q0 9 4 9q7 0 7 -5q0 -6 -10 -16q0 -1 -1 12zM1296 -165q1 12 8 9q7 -13 14 -20l-21 -7q0 9 -1 18zM1366 -60q3 0 7.5 -1t25.5 -6q0 -7 1 -15q-1 -9 -8 -6v14q-4 1 -10 -0.5t-10 0.5 q-13 14 -6 14zM1368 80q0 4 4 2q15 -10 15 -25q0 -4 -2 -4t-5 1.5t-7.5 11t-4.5 14.5zM1391 208q1 13 8 9q2 -1 2 -5q0 -7 -9 -22q0 9 -1 18zM1398 127q1 13 8 9q3 -1 3 -5q0 -8 -10 -22q0 9 -1 18zM1398 -164q0 9 4 9q6 0 6 -5q0 -6 -9 -16q0 -1 -1 12zM1399 224q0 51 7 47 q3 -1 3 -7q0 -13 -10 -40zM1404 -124q0 18 8 16v-34q-8 0 -8 18zM1405 158q0 6 3 6q7 0 7 -5t-9 -10zM1445 -170q0 8 8 8q17 0 17 -16q0 -15 -17 -11q-8 0 -8 19zM1541 -20l7 -27q4 0 20 7l-6 20h-21zM1548 163q1 -15 7 -34q2 -2 5 -2q7 0 15 9q-9 11 -20 27h-7zM0 679 q4 49 0 87q4 11 6 11q1 0 1 -4l6 20q8 -1 35 -5q22 -4 35 -4t24 3q6 6 21 13q10 1 21 1q25 0 76.5 -7t69.5 -7q3 0 15 4t20 4q7 0 12 -2l14 -20q10 -1 29.5 12.5t23.5 14.5q14 2 29.5 -5.5t17.5 -7.5q14 -2 54 2q47 6 59 6q10 0 15 -2q10 -13 27 -27q5 -2 11 -2 q5 0 14.5 1.5t13.5 1.5q19 0 28 -27q2 -6 -7 -74q-97 -14 -113 -14q-30 0 -61 7q-4 1 -17 11t-17 9v-13q-19 -8 -36.5 -17t-23.5 -30q-2 -5 20 -14h-20q5 -30 13 -87q-22 -11 -20 -13q27 -20 20 -101q-1 -7 -8 -44q-6 -30 -5 -50l13 -20v-13q0 -13 -1 -26q1 -48 1 -55 q-1 -9 -8.5 -41.5t-7.5 -51.5q0 -15 3 -28l13 -13q6 -59 -7 -128q0 -2 -8 -17q-7 -11 -5 -23l13 -7q10 -15 10 -29q0 -23 -30 -45l-13 -13h-47q2 0 -13 3t-21 4q2 -2 3 -4q0 -3 -16 -3q-9 13 -7 13h-7q0 33 7 141q0 -2 -7 81q-3 35 1 95l6 86q2 34 -1 99q-4 77 -4 104 q0 46 5 79h-20v7h20q-4 25 -3.5 76.5t-3.5 77.5q-87 10 -194 7q-10 -3 -19 -5q-19 -5 -28 -2q-10 9 -27 20zM160 576q1 13 8 9q3 -1 3 -5q0 -8 -10 -22q0 9 -1 18zM161 525v9q0 5 3 5q7 0 7 -5q0 -4 -10 -9zM475 434q0 19 8 17v-34q-8 0 -8 17zM476 79q0 15 1 23.5t6 6.5 q3 -1 3 -8q0 -13 -9 -39q0 -4 -1 17zM476 250q-1 6 0 10q0 4 3 4q7 0 7 -5q0 -6 -9 -16q0 1 -1 7zM476 299q0 5 3 5q7 0 7 -5q0 -4 -9 -9zM482 131q0 6 3 6q8 0 8 -5q0 -4 -10 -10zM482 172q0 19 8 17v-33q-8 0 -8 16zM482 344q0 26 8 26v-53q-8 0 -8 27zM489 -111q0 6 3 6 q8 0 8 -5q0 -4 -10 -9zM557 511q32 1 40 0q11 -1 12 -2q0 -1 -19 0q-17 0 -30.5 1t-2.5 1zM677 527q0 6 4 6q2 0 4.5 -1.5t2.5 -3.5q0 -4 -10 -10zM677 567q0 6 3 6q8 0 8 -5q0 -4 -10 -10z" />
<glyph unicode="&#xe000;" horiz-adv-x="495" d="M0 495h495v-495h-495v495z" />
<glyph unicode="&#xfb01;" horiz-adv-x="813" d="M447 197q0 9 4 9q6 0 6 -5q0 -6 -9 -16q0 -1 -1 12zM447 383q0 6 3 6q8 0 8 -5q0 -4 -10 -10zM447 440q1 13 8 9q2 -1 2 -5q0 -8 -9 -22q0 9 -1 18zM447 648q0 19 8 17v-34q-8 0 -8 17zM448 87q0 4 20 4q4 0 27 -7q-17 -12 -13 -14q-34 11 -34 17zM454 479q0 19 8 17v-34 q-8 0 -8 17zM455 -4q0 44 7 40q3 -1 3 -7q0 -10 -10 -33zM455 300q0 45 7 41q3 -1 3 -7q0 -11 -10 -34zM467 241q0 6 3 6q8 0 8 -5q0 -4 -10 -10zM542 146q0 6 3 6q8 0 8 -5q0 -4 -10 -9zM542 234q0 6 3 6q8 0 8 -5q0 -4 -10 -9zM542.5 646.5q-0.5 7.5 0.5 9.5q1 4 6 2 q3 -1 3 -4q0 -6 -9 -16q0 1 -0.5 8.5zM543 347v9q-1 6 3 6q7 0 7 -5t-10 -10zM548 16q0 27 8 27v-54q-8 0 -8 27zM549 64v17q0 13 7 10q3 -1 3 -5q0 -8 -10 -22zM549 165v29q0 21 7 18q3 -1 3 -7q0 -13 -10 -40zM549 273q1 1 0 9q-1 6 2 6q2 0 5 -1.5t3 -3.5q0 -4 -10 -10z M549 462v18q0 12 7 9q3 -1 3 -5q0 -8 -10 -22zM555 113q0 6 4 6q2 0 4.5 -1.5t2.5 -3.5q0 -4 -10 -10zM555 311q1 13 8 9q2 -1 2 -5q0 -7 -9 -22q0 9 -1 18zM597 138q5 2 13 20h27v14l-33 20q6 8 13 20q1 3 1 53t-1 55l-13 7q-11 29 -7 81q6 29 13 95q4 2 14 6q28 -8 46 -8 q14 0 55 8q2 -20 2 -45q0 -20 -2 -62t-2 -64q0 -24 2 -45l14 -13q3 -11 3 -22q0 -12 -4 -30l-6 -29q-3 -20 -3 -47q0 -24 3 -79t3 -83q0 -35 -3 -62q-2 -45 -7 -128h-34q-2 4 -6 14q-10 0 -30 -7t-24 -7q-9 0 -14 3.5t-13 3.5q7 134 -7 331zM597 726q0 23 11 43q12 15 23 31 q25 -5 87 -7q3 -6 7 -13q12 -8 12 -34q0 -13 -12 -81q-97 -2 -121 0q-1 10 -4 35q-3 22 -3 26zM617 -51h34v13q-6 1 -27 7q-2 -8 -7 -20zM681 736q0 -4 10 -10q7 7 7 11q0 3 -6 3q-11 0 -11 -4zM0 442l7 61q28 3 36 5q24 7 31 22q10 21 6 69q-5 52 1 73q2 8 17 18t17 15v41 q7 3 52 30q34 20 56 24q16 3 32 3q18 0 44 -4q37 -5 46 -6q6 -5 13 -13q6 -16 2 -47q-2 -30 -9 -41h-13q-1 0 -7 -10t-7 -10q-12 -5 -37 -4t-37 -3l-7 -14q-11 -2 -27 -13q-6 -13 -9 -44q-3 -32 2 -51q7 -31 52 -34h77q9 -31 13 -81h41q-2 0 -20.5 -2.5t-26.5 -3.5 q-1 -1 -7 -14q-10 -1 -27.5 3t-19.5 4l-14 -14q-25 -6 -61 -6q-4 -37 -4 -85q0 -29 3 -99q2 -61 1 -93q-3 -80 -5 -160t5 -144q-8 -1 -27 -7v-7q-10 -3 -25 -3q-16 0 -42 4q-32 6 -34 6q0 12 -7 40q6 -1 7 1q1 1 0 6t0 7h7q-7 12 -14 27q-1 14 9 25t11 15q3 16 -4 16 q-1 0 -2 -2q-1 0 -0.5 5t-1.5 5q-2 -1 -5 -3q7 107 0 135l-14 13q-1 8 6.5 35.5t7.5 32.5l-7 7q1 30 1 60q2 39 13 48v13q-11 29 -21 108q-34 10 -67 14v17q-1 6 -7 10zM216 -112h41l12 -1q-13 -1 -19 -1q-17 1 -31.5 1.5t-2.5 0.5zM284 741q0 -7 13 -15q7 10 7 15 q0 8 -13 5q-7 -1 -7 -5zM290 3q-1 6 0 10q0 4 3 4q7 0 7 -5q0 -6 -9 -16q0 1 -1 7zM290 -36q-1 6 3 6q7 0 7 -5q0 -4 -9 -10zM290 167q-1 6 3 6q7 0 7 -5q0 -4 -9 -10zM291 253q-1 13 2.5 42t3.5 32q0 -82 -5 -82q-1 1 -1 8zM296 42q0 9 4 9q7 0 7 -5q0 -6 -10 -16 q0 -1 -1 12zM296 -86q0 9 4 9q7 0 7 -6t-10 -16q0 -1 -1 13zM296 140q0 6 4 6q2 0 4.5 -1.5t2.5 -3.5q0 -4 -10 -10zM296 205q0 27 8 27v-54q-8 0 -8 27zM398 377q-1 6 0 9q2 5 7 2q3 -1 3 -4q0 -6 -9 -16q0 -1 -1 9zM405 591v17q0 13 7 10q3 -1 3 -5q0 -8 -10 -22z" />
<glyph unicode="&#xfb02;" horiz-adv-x="804" d="M448 256q3 13 7 21q-10 85 0 335q0 -4 -1 -4q-2 0 -6 11v134q1 26 7 34.5t27 12.5q2 0 47 -7h13q9 -3 27 0q2 -8 13 -20q0 -36 1.5 -99t1.5 -90q0 -98 -16 -160q0 4 13 -13q-1 14 0 40l1 8q-1 0 -1 -109v41h-6v-41q4 -2 13 -6q-2 -30 0 -94q-2 -2 -7.5 2l-5.5 4 q-3 -3 -3 -7t4.5 -10t4.5 -7q0 -4 -13 -2v-14q9 -5 9 -10q0 -2 -2 -3q9 21 13 20q-9 -87 -9 -159q0 -88 16 -110q2 -5 13 -13v-7q16 -6 60 -6q2 -11 7 -41q18 0 18 -5q0 -3 -8 -3q-5 0 -10 2v-9q-1 -6 3 -6q2 0 4 1q-6 -14 -7 -27v-27q-8 -2 -20 -13q-7 1 -60 4q-38 2 -54 9 q-8 15 -27 34q-12 -1 -33 7q1 11 0 27q-10 4 -21 13q-7 15 -6 41q1 39 0 46q-4 42 -2 138q1 89 -5 137zM569 558h13l-3.5 25t-2.5 16q-3 -16 -7 -41zM669 48v9q0 6 3 6q7 0 7 -5q0 -4 -10 -10zM669 464v9q0 6 3 6q7 0 7 -5q0 -4 -10 -10zM675 26q1 13 8 9q3 -1 3 -5 q0 -8 -10 -22q0 9 -1 18zM675 93q1 13 8 9q3 -1 3 -5q0 -8 -10 -22q0 9 -1 18zM675 131q0 6 4 6q2 0 4.5 -1.5t2.5 -3.5q0 -4 -10 -10zM675 173q1 13 8 10q3 -2 3 -5q0 -8 -10 -22q0 9 -1 17zM675 339q0 6 4 6q2 0 4.5 -1.5t2.5 -3.5q0 -4 -10 -10zM675 421q0 19 8 17v-34 q-8 0 -8 17zM676 230v25q0 18 7 15q3 -1 3 -7q0 -11 -10 -33zM749 -48q1 13 8 9q3 -1 3 -5q0 -8 -10 -22q0 9 -1 18zM0 442l7 61q28 3 36 5q24 7 31 22q10 21 6 69q-5 52 1 73q2 8 17 18t17 15v41q7 3 52 30q34 20 56 24q16 3 32 3q18 0 44 -4q37 -5 46 -6q6 -5 13 -13 q6 -16 2 -47q-2 -30 -9 -41h-13q-1 0 -7 -10t-7 -10q-12 -5 -37 -4t-37 -3l-7 -14q-11 -2 -27 -13q-6 -13 -9 -44q-3 -32 2 -51q7 -31 52 -34h77q9 -31 13 -81h41q-2 0 -20.5 -2.5t-26.5 -3.5q-1 -1 -7 -14q-10 -1 -27.5 3t-19.5 4l-14 -14q-25 -6 -61 -6q-4 -37 -4 -85 q0 -29 3 -99q2 -61 1 -93q-3 -80 -5 -160t5 -144q-8 -1 -27 -7v-7q-10 -3 -25 -3q-16 0 -42 4q-32 6 -34 6q0 12 -7 40q6 -1 7 1q1 1 0 6t0 7h7q-7 12 -14 27q-1 14 9 25t11 15q3 16 -4 16q-1 0 -2 -2q-1 0 -0.5 5t-1.5 5q-2 -1 -5 -3q7 107 0 135l-14 13q-1 8 6.5 35.5 t7.5 32.5l-7 7q1 30 1 60q2 39 13 48v13q-11 29 -21 108q-34 10 -67 14v17q-1 6 -7 10zM216 -112h41l12 -1q-13 -1 -19 -1q-17 1 -31.5 1.5t-2.5 0.5zM284 741q0 -7 13 -15q7 10 7 15q0 8 -13 5q-7 -1 -7 -5zM290 3q-1 6 0 10q0 4 3 4q7 0 7 -5q0 -6 -9 -16q0 1 -1 7z M290 -36q-1 6 3 6q7 0 7 -5q0 -4 -9 -10zM290 167q-1 6 3 6q7 0 7 -5q0 -4 -9 -10zM291 253q-1 13 2.5 42t3.5 32q0 -82 -5 -82q-1 1 -1 8zM296 42q0 9 4 9q7 0 7 -5q0 -6 -10 -16q0 -1 -1 12zM296 -86q0 9 4 9q7 0 7 -6t-10 -16q0 -1 -1 13zM296 140q0 6 4 6q2 0 4.5 -1.5 t2.5 -3.5q0 -4 -10 -10zM296 205q0 27 8 27v-54q-8 0 -8 27zM398 377q-1 6 0 9q2 5 7 2q3 -1 3 -4q0 -6 -9 -16q0 -1 -1 9zM405 591v17q0 13 7 10q3 -1 3 -5q0 -8 -10 -22z" />
<glyph unicode="&#xfb03;" horiz-adv-x="1261" d="M895 197q0 9 4 9q6 0 6 -5q0 -6 -9 -16q0 -1 -1 12zM895 383q0 6 3 6q8 0 8 -5q0 -4 -10 -10zM895 440q1 13 8 9q2 -1 2 -5q0 -8 -9 -22q0 9 -1 18zM895 648q0 19 8 17v-34q-8 0 -8 17zM896 87q0 4 20 4q4 0 27 -7q-17 -12 -13 -14q-34 11 -34 17zM902 479q0 19 8 17v-34 q-8 0 -8 17zM903 -4q0 44 7 40q3 -1 3 -7q0 -10 -10 -33zM903 300q0 45 7 41q3 -1 3 -7q0 -11 -10 -34zM915 241q0 6 3 6q8 0 8 -5q0 -4 -10 -10zM990 146q0 6 3 6q8 0 8 -5q0 -4 -10 -9zM990 234q0 6 3 6q8 0 8 -5q0 -4 -10 -9zM990.5 646.5q-0.5 7.5 0.5 9.5q1 4 6 2 q3 -1 3 -4q0 -6 -9 -16q0 1 -0.5 8.5zM991 347v9q-1 6 3 6q7 0 7 -5t-10 -10zM996 16q0 27 8 27v-54q-8 0 -8 27zM997 64v17q0 13 7 10q3 -1 3 -5q0 -8 -10 -22zM997 165v29q0 21 7 18q3 -1 3 -7q0 -13 -10 -40zM997 273q1 1 0 9q-1 6 2 6q2 0 5 -1.5t3 -3.5q0 -4 -10 -10z M997 462v18q0 12 7 9q3 -1 3 -5q0 -8 -10 -22zM1003 113q0 6 4 6q2 0 4.5 -1.5t2.5 -3.5q0 -4 -10 -10zM1003 311q1 13 8 9q2 -1 2 -5q0 -7 -9 -22q0 9 -1 18zM1045 138q5 2 13 20h27v14l-33 20q6 8 13 20q1 3 1 53t-1 55l-13 7q-11 29 -7 81q6 29 13 95q4 2 14 6 q28 -8 46 -8q14 0 55 8q2 -20 2 -45q0 -20 -2 -62t-2 -64q0 -24 2 -45l14 -13q3 -11 3 -22q0 -12 -4 -30l-6 -29q-3 -20 -3 -47q0 -24 3 -79t3 -83q0 -35 -3 -62q-2 -45 -7 -128h-34q-2 4 -6 14q-10 0 -30 -7t-24 -7q-9 0 -14 3.5t-13 3.5q7 134 -7 331zM1045 726 q0 23 11 43q12 15 23 31q25 -5 87 -7q3 -6 7 -13q12 -8 12 -34q0 -13 -12 -81q-97 -2 -121 0q-1 10 -4 35q-3 22 -3 26zM1065 -51h34v13q-6 1 -27 7q-2 -8 -7 -20zM1129 736q0 -4 10 -10q7 7 7 11q0 3 -6 3q-11 0 -11 -4zM448 442l7 61q28 3 36 5q24 7 31 22q10 21 6 69 q-5 52 1 73q2 8 17 18t17 15v41q7 3 52 30q34 20 56 24q16 3 32 3q18 0 44 -4q37 -5 46 -6q6 -5 13 -13q6 -16 2 -47q-2 -30 -9 -41h-13q-1 0 -7 -10t-7 -10q-12 -5 -37 -4t-37 -3l-7 -14q-11 -2 -27 -13q-6 -13 -9 -44q-3 -32 2 -51q7 -31 52 -34h77q9 -31 13 -81h41 q-2 0 -20.5 -2.5t-26.5 -3.5q-1 -1 -7 -14q-10 -1 -27.5 3t-19.5 4l-14 -14q-25 -6 -61 -6q-4 -37 -4 -85q0 -29 3 -99q2 -61 1 -93q-3 -80 -5 -160t5 -144q-8 -1 -27 -7v-7q-10 -3 -25 -3q-16 0 -42 4q-32 6 -34 6q0 12 -7 40q6 -1 7 1q1 1 0 6t0 7h7q-7 12 -14 27 q-1 14 9 25t11 15q3 16 -4 16q-1 0 -2 -2q-1 0 -0.5 5t-1.5 5q-2 -1 -5 -3q7 107 0 135l-14 13q-1 8 6.5 35.5t7.5 32.5l-7 7q1 30 1 60q2 39 13 48v13q-11 29 -21 108q-34 10 -67 14v17q-1 6 -7 10zM664 -112h41l12 -1q-13 -1 -19 -1q-17 1 -31.5 1.5t-2.5 0.5zM732 741 q0 -7 13 -15q7 10 7 15q0 8 -13 5q-7 -1 -7 -5zM738 3q-1 6 0 10q0 4 3 4q7 0 7 -5q0 -6 -9 -16q0 1 -1 7zM738 -36q-1 6 3 6q7 0 7 -5q0 -4 -9 -10zM738 167q-1 6 3 6q7 0 7 -5q0 -4 -9 -10zM739 253q-1 13 2.5 42t3.5 32q0 -82 -5 -82q-1 1 -1 8zM744 42q0 9 4 9q7 0 7 -5 q0 -6 -10 -16q0 -1 -1 12zM744 -86q0 9 4 9q7 0 7 -6t-10 -16q0 -1 -1 13zM744 140q0 6 4 6q2 0 4.5 -1.5t2.5 -3.5q0 -4 -10 -10zM744 205q0 27 8 27v-54q-8 0 -8 27zM846 377q-1 6 0 9q2 5 7 2q3 -1 3 -4q0 -6 -9 -16q0 -1 -1 9zM853 591v17q0 13 7 10q3 -1 3 -5 q0 -8 -10 -22zM0 442l7 61q28 3 36 5q24 7 31 22q10 21 6 69q-5 52 1 73q2 8 17 18t17 15v41q7 3 52 30q34 20 56 24q16 3 32 3q18 0 44 -4q37 -5 46 -6q6 -5 13 -13q6 -16 2 -47q-2 -30 -9 -41h-13q-1 0 -7 -10t-7 -10q-12 -5 -37 -4t-37 -3l-7 -14q-11 -2 -27 -13 q-6 -13 -9 -44q-3 -32 2 -51q7 -31 52 -34h77q9 -31 13 -81h41q-2 0 -20.5 -2.5t-26.5 -3.5q-1 -1 -7 -14q-10 -1 -27.5 3t-19.5 4l-14 -14q-25 -6 -61 -6q-4 -37 -4 -85q0 -29 3 -99q2 -61 1 -93q-3 -80 -5 -160t5 -144q-8 -1 -27 -7v-7q-10 -3 -25 -3q-16 0 -42 4 q-32 6 -34 6q0 12 -7 40q6 -1 7 1q1 1 0 6t0 7h7q-7 12 -14 27q-1 14 9 25t11 15q3 16 -4 16q-1 0 -2 -2q-1 0 -0.5 5t-1.5 5q-2 -1 -5 -3q7 107 0 135l-14 13q-1 8 6.5 35.5t7.5 32.5l-7 7q1 30 1 60q2 39 13 48v13q-11 29 -21 108q-34 10 -67 14v17q-1 6 -7 10zM216 -112 h41l12 -1q-13 -1 -19 -1q-17 1 -31.5 1.5t-2.5 0.5zM284 741q0 -7 13 -15q7 10 7 15q0 8 -13 5q-7 -1 -7 -5zM290 3q-1 6 0 10q0 4 3 4q7 0 7 -5q0 -6 -9 -16q0 1 -1 7zM290 -36q-1 6 3 6q7 0 7 -5q0 -4 -9 -10zM290 167q-1 6 3 6q7 0 7 -5q0 -4 -9 -10zM291 253 q-1 13 2.5 42t3.5 32q0 -82 -5 -82q-1 1 -1 8zM296 42q0 9 4 9q7 0 7 -5q0 -6 -10 -16q0 -1 -1 12zM296 -86q0 9 4 9q7 0 7 -6t-10 -16q0 -1 -1 13zM296 140q0 6 4 6q2 0 4.5 -1.5t2.5 -3.5q0 -4 -10 -10zM296 205q0 27 8 27v-54q-8 0 -8 27zM398 377q-1 6 0 9q2 5 7 2 q3 -1 3 -4q0 -6 -9 -16q0 -1 -1 9zM405 591v17q0 13 7 10q3 -1 3 -5q0 -8 -10 -22z" />
<glyph unicode="&#xfb04;" horiz-adv-x="1252" d="M896 256q3 13 7 21q-10 85 0 335q0 -4 -1 -4q-2 0 -6 11v134q1 26 7 34.5t27 12.5q2 0 47 -7h13q9 -3 27 0q2 -8 13 -20q0 -36 1.5 -99t1.5 -90q0 -98 -16 -160q0 4 13 -13q-1 14 0 40l1 8q-1 0 -1 -109v41h-6v-41q4 -2 13 -6q-2 -30 0 -94q-2 -2 -7.5 2l-5.5 4 q-3 -3 -3 -7t4.5 -10t4.5 -7q0 -4 -13 -2v-14q9 -5 9 -10q0 -2 -2 -3q9 21 13 20q-9 -87 -9 -159q0 -88 16 -110q2 -5 13 -13v-7q16 -6 60 -6q2 -11 7 -41q18 0 18 -5q0 -3 -8 -3q-5 0 -10 2v-9q-1 -6 3 -6q2 0 4 1q-6 -14 -7 -27v-27q-8 -2 -20 -13q-7 1 -60 4q-38 2 -54 9 q-8 15 -27 34q-12 -1 -33 7q1 11 0 27q-10 4 -21 13q-7 15 -6 41q1 39 0 46q-4 42 -2 138q1 89 -5 137zM1017 558h13l-3.5 25t-2.5 16q-3 -16 -7 -41zM1117 48v9q0 6 3 6q7 0 7 -5q0 -4 -10 -10zM1117 464v9q0 6 3 6q7 0 7 -5q0 -4 -10 -10zM1123 26q1 13 8 9q3 -1 3 -5 q0 -8 -10 -22q0 9 -1 18zM1123 93q1 13 8 9q3 -1 3 -5q0 -8 -10 -22q0 9 -1 18zM1123 131q0 6 4 6q2 0 4.5 -1.5t2.5 -3.5q0 -4 -10 -10zM1123 173q1 13 8 10q3 -2 3 -5q0 -8 -10 -22q0 9 -1 17zM1123 339q0 6 4 6q2 0 4.5 -1.5t2.5 -3.5q0 -4 -10 -10zM1123 421q0 19 8 17 v-34q-8 0 -8 17zM1124 230v25q0 18 7 15q3 -1 3 -7q0 -11 -10 -33zM1197 -48q1 13 8 9q3 -1 3 -5q0 -8 -10 -22q0 9 -1 18zM448 442l7 61q28 3 36 5q24 7 31 22q10 21 6 69q-5 52 1 73q2 8 17 18t17 15v41q7 3 52 30q34 20 56 24q16 3 32 3q18 0 44 -4q37 -5 46 -6 q6 -5 13 -13q6 -16 2 -47q-2 -30 -9 -41h-13q-1 0 -7 -10t-7 -10q-12 -5 -37 -4t-37 -3l-7 -14q-11 -2 -27 -13q-6 -13 -9 -44q-3 -32 2 -51q7 -31 52 -34h77q9 -31 13 -81h41q-2 0 -20.5 -2.5t-26.5 -3.5q-1 -1 -7 -14q-10 -1 -27.5 3t-19.5 4l-14 -14q-25 -6 -61 -6 q-4 -37 -4 -85q0 -29 3 -99q2 -61 1 -93q-3 -80 -5 -160t5 -144q-8 -1 -27 -7v-7q-10 -3 -25 -3q-16 0 -42 4q-32 6 -34 6q0 12 -7 40q6 -1 7 1q1 1 0 6t0 7h7q-7 12 -14 27q-1 14 9 25t11 15q3 16 -4 16q-1 0 -2 -2q-1 0 -0.5 5t-1.5 5q-2 -1 -5 -3q7 107 0 135l-14 13 q-1 8 6.5 35.5t7.5 32.5l-7 7q1 30 1 60q2 39 13 48v13q-11 29 -21 108q-34 10 -67 14v17q-1 6 -7 10zM664 -112h41l12 -1q-13 -1 -19 -1q-17 1 -31.5 1.5t-2.5 0.5zM732 741q0 -7 13 -15q7 10 7 15q0 8 -13 5q-7 -1 -7 -5zM738 3q-1 6 0 10q0 4 3 4q7 0 7 -5q0 -6 -9 -16 q0 1 -1 7zM738 -36q-1 6 3 6q7 0 7 -5q0 -4 -9 -10zM738 167q-1 6 3 6q7 0 7 -5q0 -4 -9 -10zM739 253q-1 13 2.5 42t3.5 32q0 -82 -5 -82q-1 1 -1 8zM744 42q0 9 4 9q7 0 7 -5q0 -6 -10 -16q0 -1 -1 12zM744 -86q0 9 4 9q7 0 7 -6t-10 -16q0 -1 -1 13zM744 140q0 6 4 6 q2 0 4.5 -1.5t2.5 -3.5q0 -4 -10 -10zM744 205q0 27 8 27v-54q-8 0 -8 27zM846 377q-1 6 0 9q2 5 7 2q3 -1 3 -4q0 -6 -9 -16q0 -1 -1 9zM853 591v17q0 13 7 10q3 -1 3 -5q0 -8 -10 -22zM0 442l7 61q28 3 36 5q24 7 31 22q10 21 6 69q-5 52 1 73q2 8 17 18t17 15v41 q7 3 52 30q34 20 56 24q16 3 32 3q18 0 44 -4q37 -5 46 -6q6 -5 13 -13q6 -16 2 -47q-2 -30 -9 -41h-13q-1 0 -7 -10t-7 -10q-12 -5 -37 -4t-37 -3l-7 -14q-11 -2 -27 -13q-6 -13 -9 -44q-3 -32 2 -51q7 -31 52 -34h77q9 -31 13 -81h41q-2 0 -20.5 -2.5t-26.5 -3.5 q-1 -1 -7 -14q-10 -1 -27.5 3t-19.5 4l-14 -14q-25 -6 -61 -6q-4 -37 -4 -85q0 -29 3 -99q2 -61 1 -93q-3 -80 -5 -160t5 -144q-8 -1 -27 -7v-7q-10 -3 -25 -3q-16 0 -42 4q-32 6 -34 6q0 12 -7 40q6 -1 7 1q1 1 0 6t0 7h7q-7 12 -14 27q-1 14 9 25t11 15q3 16 -4 16 q-1 0 -2 -2q-1 0 -0.5 5t-1.5 5q-2 -1 -5 -3q7 107 0 135l-14 13q-1 8 6.5 35.5t7.5 32.5l-7 7q1 30 1 60q2 39 13 48v13q-11 29 -21 108q-34 10 -67 14v17q-1 6 -7 10zM216 -112h41l12 -1q-13 -1 -19 -1q-17 1 -31.5 1.5t-2.5 0.5zM284 741q0 -7 13 -15q7 10 7 15 q0 8 -13 5q-7 -1 -7 -5zM290 3q-1 6 0 10q0 4 3 4q7 0 7 -5q0 -6 -9 -16q0 1 -1 7zM290 -36q-1 6 3 6q7 0 7 -5q0 -4 -9 -10zM290 167q-1 6 3 6q7 0 7 -5q0 -4 -9 -10zM291 253q-1 13 2.5 42t3.5 32q0 -82 -5 -82q-1 1 -1 8zM296 42q0 9 4 9q7 0 7 -5q0 -6 -10 -16 q0 -1 -1 12zM296 -86q0 9 4 9q7 0 7 -6t-10 -16q0 -1 -1 13zM296 140q0 6 4 6q2 0 4.5 -1.5t2.5 -3.5q0 -4 -10 -10zM296 205q0 27 8 27v-54q-8 0 -8 27zM398 377q-1 6 0 9q2 5 7 2q3 -1 3 -4q0 -6 -9 -16q0 -1 -1 9zM405 591v17q0 13 7 10q3 -1 3 -5q0 -8 -10 -22z" />
</font>
</defs>
</svg>
